<svg width="19" height="19" viewBox="0 0 19 19" fill="none" xmlns="http://www.w3.org/2000/svg">
<path fill-rule="evenodd" clip-rule="evenodd" d="M6.9244 19L6.89906 10.3636H3.68396V6.90909H6.89906V4.75C6.89906 1.5447 8.74639 0 11.4075 0C12.6823 0 13.7778 0.10197 14.0971 0.147552V3.49728L12.2514 3.49818C10.8042 3.49818 10.5239 4.23712 10.5239 5.32148V6.90909H14.7359L13.1283 10.3636H10.5239V19H6.9244Z" fill="#231F20"/>
<mask id="mask0_6_5171" style="mask-type:alpha" maskUnits="userSpaceOnUse" x="3" y="0" width="12" height="19">
<path fill-rule="evenodd" clip-rule="evenodd" d="M6.9244 19L6.89906 10.3636H3.68396V6.90909H6.89906V4.75C6.89906 1.5447 8.74639 0 11.4075 0C12.6823 0 13.7778 0.10197 14.0971 0.147552V3.49728L12.2514 3.49818C10.8042 3.49818 10.5239 4.23712 10.5239 5.32148V6.90909H14.7359L13.1283 10.3636H10.5239V19H6.9244Z" fill="white"/>
</mask>
<g mask="url(#mask0_6_5171)">
</g>
</svg>
