<svg width="20" height="19" viewBox="0 0 20 19" fill="none" xmlns="http://www.w3.org/2000/svg">
<path fill-rule="evenodd" clip-rule="evenodd" d="M9.99215 0C7.49089 0 7.17698 0.0110833 6.19459 0.057C4.69798 0.127458 3.38326 0.505875 2.32796 1.59442C1.27265 2.68296 0.905793 4.03908 0.837486 5.58283C0.792971 6.59617 0.782227 6.91996 0.782227 9.5C0.782227 12.08 0.792971 12.4038 0.837486 13.4172C0.905793 14.9609 1.27265 16.317 2.32796 17.4056C3.38326 18.4941 4.69798 18.8725 6.19459 18.943C7.17698 18.9889 7.49089 19 9.99215 19C12.4934 19 12.8073 18.9889 13.7897 18.943C15.2863 18.8725 16.601 18.4941 17.6563 17.4056C18.7116 16.317 19.0785 14.9609 19.1468 13.4172C19.1913 12.4038 19.2021 12.08 19.2021 9.5C19.2021 6.91996 19.1913 6.59617 19.1468 5.58283C19.0785 4.03908 18.7116 2.68296 17.6563 1.59442C16.601 0.505875 15.2863 0.127458 13.7897 0.057C12.8073 0.0110833 12.4934 0 9.99215 0ZM9.99215 1.71158C12.4512 1.71158 12.7428 1.72108 13.7137 1.767C14.7621 1.81608 15.7345 2.033 16.4828 2.80487C17.2311 3.57675 17.4414 4.57979 17.489 5.66121C17.5335 6.66267 17.5428 6.9635 17.5428 9.5C17.5428 12.0365 17.5335 12.3373 17.489 13.3388C17.4414 14.4202 17.2311 15.4233 16.4828 16.1951C15.7345 16.967 14.7621 17.1839 13.7137 17.233C12.7428 17.2789 12.4512 17.2884 9.99215 17.2884C7.5331 17.2884 7.24145 17.2789 6.27057 17.233C5.22218 17.1839 4.24976 16.967 3.50146 16.1951C2.75315 15.4233 2.54286 14.4202 2.49527 13.3388C2.45076 12.3373 2.44155 12.0365 2.44155 9.5C2.44155 6.9635 2.45076 6.66267 2.49527 5.66121C2.54286 4.57979 2.75315 3.57675 3.50146 2.80487C4.24976 2.033 5.22218 1.81608 6.27057 1.767C7.24145 1.72108 7.5331 1.71158 9.99215 1.71158ZM5.26285 9.5C5.26285 6.80596 7.38037 4.62175 9.99215 4.62175C12.6039 4.62175 14.7214 6.80596 14.7214 9.5C14.7214 12.194 12.6039 14.3783 9.99215 14.3783C7.38037 14.3783 5.26285 12.194 5.26285 9.5ZM9.99215 12.6667C8.29676 12.6667 6.92218 11.2488 6.92218 9.5C6.92218 7.75121 8.29676 6.33333 9.99215 6.33333C11.6875 6.33333 13.0621 7.75121 13.0621 9.5C13.0621 11.2488 11.6875 12.6667 9.99215 12.6667ZM14.9087 5.56858C15.5191 5.56858 16.0139 5.05819 16.0139 4.42858C16.0139 3.79898 15.5191 3.28858 14.9087 3.28858C14.2983 3.28858 13.8035 3.79898 13.8035 4.42858C13.8035 5.05819 14.2983 5.56858 14.9087 5.56858Z" fill="#231F20"/>
<mask id="mask0_6_5175" style="mask-type:alpha" maskUnits="userSpaceOnUse" x="0" y="0" width="20" height="19">
<path fill-rule="evenodd" clip-rule="evenodd" d="M9.99215 0C7.49089 0 7.17698 0.0110833 6.19459 0.057C4.69798 0.127458 3.38326 0.505875 2.32796 1.59442C1.27265 2.68296 0.905793 4.03908 0.837486 5.58283C0.792971 6.59617 0.782227 6.91996 0.782227 9.5C0.782227 12.08 0.792971 12.4038 0.837486 13.4172C0.905793 14.9609 1.27265 16.317 2.32796 17.4056C3.38326 18.4941 4.69798 18.8725 6.19459 18.943C7.17698 18.9889 7.49089 19 9.99215 19C12.4934 19 12.8073 18.9889 13.7897 18.943C15.2863 18.8725 16.601 18.4941 17.6563 17.4056C18.7116 16.317 19.0785 14.9609 19.1468 13.4172C19.1913 12.4038 19.2021 12.08 19.2021 9.5C19.2021 6.91996 19.1913 6.59617 19.1468 5.58283C19.0785 4.03908 18.7116 2.68296 17.6563 1.59442C16.601 0.505875 15.2863 0.127458 13.7897 0.057C12.8073 0.0110833 12.4934 0 9.99215 0ZM9.99215 1.71158C12.4512 1.71158 12.7428 1.72108 13.7137 1.767C14.7621 1.81608 15.7345 2.033 16.4828 2.80487C17.2311 3.57675 17.4414 4.57979 17.489 5.66121C17.5335 6.66267 17.5428 6.9635 17.5428 9.5C17.5428 12.0365 17.5335 12.3373 17.489 13.3388C17.4414 14.4202 17.2311 15.4233 16.4828 16.1951C15.7345 16.967 14.7621 17.1839 13.7137 17.233C12.7428 17.2789 12.4512 17.2884 9.99215 17.2884C7.5331 17.2884 7.24145 17.2789 6.27057 17.233C5.22218 17.1839 4.24976 16.967 3.50146 16.1951C2.75315 15.4233 2.54286 14.4202 2.49527 13.3388C2.45076 12.3373 2.44155 12.0365 2.44155 9.5C2.44155 6.9635 2.45076 6.66267 2.49527 5.66121C2.54286 4.57979 2.75315 3.57675 3.50146 2.80487C4.24976 2.033 5.22218 1.81608 6.27057 1.767C7.24145 1.72108 7.5331 1.71158 9.99215 1.71158ZM5.26285 9.5C5.26285 6.80596 7.38037 4.62175 9.99215 4.62175C12.6039 4.62175 14.7214 6.80596 14.7214 9.5C14.7214 12.194 12.6039 14.3783 9.99215 14.3783C7.38037 14.3783 5.26285 12.194 5.26285 9.5ZM9.99215 12.6667C8.29676 12.6667 6.92218 11.2488 6.92218 9.5C6.92218 7.75121 8.29676 6.33333 9.99215 6.33333C11.6875 6.33333 13.0621 7.75121 13.0621 9.5C13.0621 11.2488 11.6875 12.6667 9.99215 12.6667ZM14.9087 5.56858C15.5191 5.56858 16.0139 5.05819 16.0139 4.42858C16.0139 3.79898 15.5191 3.28858 14.9087 3.28858C14.2983 3.28858 13.8035 3.79898 13.8035 4.42858C13.8035 5.05819 14.2983 5.56858 14.9087 5.56858Z" fill="white"/>
</mask>
<g mask="url(#mask0_6_5175)">
</g>
</svg>
