<svg width="19" height="19" viewBox="0 0 19 19" fill="none" xmlns="http://www.w3.org/2000/svg">
<path fill-rule="evenodd" clip-rule="evenodd" d="M9.55673 0C4.49127 0 0.346802 4.275 0.346802 9.5C0.346802 13.5375 2.80278 16.9417 6.17975 18.3667C6.103 17.6542 6.02625 16.4667 6.17975 15.675C6.33325 14.9625 7.25424 10.925 7.25424 10.925C7.25424 10.925 7.024 10.2917 7.024 9.5C7.024 8.15417 7.79149 7.20417 8.71248 7.20417C9.47998 7.20417 9.86372 7.8375 9.86372 8.55C9.86372 9.34167 9.32648 10.6083 9.09623 11.7167C8.86598 12.6667 9.55672 13.4583 10.4777 13.4583C12.0895 13.4583 13.3942 11.7167 13.3942 9.10417C13.3942 6.80833 11.7825 5.225 9.55673 5.225C6.94725 5.225 5.41226 7.28333 5.41226 9.34167C5.41226 10.1333 5.71926 11.0042 6.103 11.4792C6.17975 11.5583 6.17975 11.6375 6.17975 11.7167C6.103 12.0333 5.94951 12.6667 5.94951 12.825C5.87276 12.9833 5.79601 13.0625 5.64251 12.9833C4.49127 12.4292 3.80052 10.6875 3.80052 9.34167C3.80052 6.33333 5.94951 3.5625 9.86372 3.5625C13.0872 3.5625 15.5432 5.9375 15.5432 9.025C15.5432 12.2708 13.5477 14.9625 10.7847 14.9625C9.86372 14.9625 8.94273 14.4875 8.63573 13.8542C8.63573 13.8542 8.17524 15.675 8.09849 16.15C7.86824 16.9417 7.33099 17.9708 6.94725 18.6042C7.71474 18.8417 8.63573 19 9.55673 19C14.6222 19 18.7666 14.725 18.7666 9.5C18.7666 4.275 14.6222 0 9.55673 0Z" fill="#231F20"/>
<mask id="mask0_6_5193" style="mask-type:alpha" maskUnits="userSpaceOnUse" x="0" y="0" width="19" height="19">
<path fill-rule="evenodd" clip-rule="evenodd" d="M9.55673 0C4.49127 0 0.346802 4.275 0.346802 9.5C0.346802 13.5375 2.80278 16.9417 6.17975 18.3667C6.103 17.6542 6.02625 16.4667 6.17975 15.675C6.33325 14.9625 7.25424 10.925 7.25424 10.925C7.25424 10.925 7.024 10.2917 7.024 9.5C7.024 8.15417 7.79149 7.20417 8.71248 7.20417C9.47998 7.20417 9.86372 7.8375 9.86372 8.55C9.86372 9.34167 9.32648 10.6083 9.09623 11.7167C8.86598 12.6667 9.55672 13.4583 10.4777 13.4583C12.0895 13.4583 13.3942 11.7167 13.3942 9.10417C13.3942 6.80833 11.7825 5.225 9.55673 5.225C6.94725 5.225 5.41226 7.28333 5.41226 9.34167C5.41226 10.1333 5.71926 11.0042 6.103 11.4792C6.17975 11.5583 6.17975 11.6375 6.17975 11.7167C6.103 12.0333 5.94951 12.6667 5.94951 12.825C5.87276 12.9833 5.79601 13.0625 5.64251 12.9833C4.49127 12.4292 3.80052 10.6875 3.80052 9.34167C3.80052 6.33333 5.94951 3.5625 9.86372 3.5625C13.0872 3.5625 15.5432 5.9375 15.5432 9.025C15.5432 12.2708 13.5477 14.9625 10.7847 14.9625C9.86372 14.9625 8.94273 14.4875 8.63573 13.8542C8.63573 13.8542 8.17524 15.675 8.09849 16.15C7.86824 16.9417 7.33099 17.9708 6.94725 18.6042C7.71474 18.8417 8.63573 19 9.55673 19C14.6222 19 18.7666 14.725 18.7666 9.5C18.7666 4.275 14.6222 0 9.55673 0Z" fill="white"/>
</mask>
<g mask="url(#mask0_6_5193)">
</g>
</svg>
