<svg width="19" height="19" viewBox="0 0 19 19" fill="none" xmlns="http://www.w3.org/2000/svg">
<path fill-rule="evenodd" clip-rule="evenodd" d="M18.9843 3.70206C18.2936 4.01547 17.6028 4.25052 16.8353 4.32887C17.6028 3.85876 18.2168 3.07526 18.5238 2.2134C17.7563 2.68351 16.9888 2.99691 16.1446 3.15361C15.4538 2.3701 14.4561 1.9 13.3816 1.9C11.3094 1.9 9.62088 3.62371 9.62088 5.73918C9.62088 6.05258 9.62088 6.36598 9.69763 6.60103C6.47415 6.44433 3.71118 4.87732 1.86919 2.52681C1.48545 3.15361 1.33195 3.78041 1.33195 4.48557C1.33195 5.81753 2.02269 6.99279 3.02043 7.69794C2.40644 7.69794 1.79244 7.54124 1.33195 7.22784C1.33195 7.22784 1.33195 7.22784 1.33195 7.30619C1.33195 9.1866 2.63669 10.7536 4.32517 11.067C4.01817 11.1454 3.71118 11.2237 3.32743 11.2237C3.09718 11.2237 2.86693 11.2237 2.63669 11.1454C3.09718 12.7124 4.47867 13.8093 6.16716 13.8093C4.86242 14.8278 3.25068 15.4546 1.48545 15.4546C1.17845 15.4546 0.871451 15.4546 0.564453 15.3763C2.25294 16.4732 4.24842 17.1 6.32066 17.1C13.3048 17.1 17.0656 11.2237 17.0656 6.13093C17.0656 5.97423 17.0656 5.81753 17.0656 5.66083C17.8331 5.11237 18.4471 4.40722 18.9843 3.70206Z" fill="#231F20"/>
<mask id="mask0_6_5189" style="mask-type:alpha" maskUnits="userSpaceOnUse" x="0" y="1" width="19" height="17">
<path fill-rule="evenodd" clip-rule="evenodd" d="M18.9843 3.70206C18.2936 4.01547 17.6028 4.25052 16.8353 4.32887C17.6028 3.85876 18.2168 3.07526 18.5238 2.2134C17.7563 2.68351 16.9888 2.99691 16.1446 3.15361C15.4538 2.3701 14.4561 1.9 13.3816 1.9C11.3094 1.9 9.62088 3.62371 9.62088 5.73918C9.62088 6.05258 9.62088 6.36598 9.69763 6.60103C6.47415 6.44433 3.71118 4.87732 1.86919 2.52681C1.48545 3.15361 1.33195 3.78041 1.33195 4.48557C1.33195 5.81753 2.02269 6.99279 3.02043 7.69794C2.40644 7.69794 1.79244 7.54124 1.33195 7.22784C1.33195 7.22784 1.33195 7.22784 1.33195 7.30619C1.33195 9.1866 2.63669 10.7536 4.32517 11.067C4.01817 11.1454 3.71118 11.2237 3.32743 11.2237C3.09718 11.2237 2.86693 11.2237 2.63669 11.1454C3.09718 12.7124 4.47867 13.8093 6.16716 13.8093C4.86242 14.8278 3.25068 15.4546 1.48545 15.4546C1.17845 15.4546 0.871451 15.4546 0.564453 15.3763C2.25294 16.4732 4.24842 17.1 6.32066 17.1C13.3048 17.1 17.0656 11.2237 17.0656 6.13093C17.0656 5.97423 17.0656 5.81753 17.0656 5.66083C17.8331 5.11237 18.4471 4.40722 18.9843 3.70206Z" fill="white"/>
</mask>
<g mask="url(#mask0_6_5189)">
</g>
</svg>
