<svg width="19" height="19" viewBox="0 0 19 19" fill="none" xmlns="http://www.w3.org/2000/svg">
<path fill-rule="evenodd" clip-rule="evenodd" d="M18.3954 5.7C18.3954 5.7 18.2419 4.35417 17.6279 3.8C16.9371 3.00833 16.1696 3.00833 15.7859 3.00833C13.1764 2.85 9.33895 2.85 9.33895 2.85C9.33895 2.85 5.50148 2.85 2.89201 3.00833C2.50826 3.0875 1.74076 3.0875 1.05002 3.8C0.512775 4.35417 0.282527 5.7 0.282527 5.7C0.282527 5.7 0.129028 7.20416 0.129028 8.7875V10.2125C0.129028 11.7167 0.282527 13.3 0.282527 13.3C0.282527 13.3 0.436026 14.6458 1.05002 15.2C1.74076 15.9917 2.66176 15.9125 3.0455 15.9917C4.50374 16.15 9.33895 16.15 9.33895 16.15C9.33895 16.15 13.1764 16.15 15.7859 15.9125C16.1696 15.8333 16.9371 15.8333 17.6279 15.1208C18.1651 14.5667 18.3954 13.2208 18.3954 13.2208C18.3954 13.2208 18.5489 11.7167 18.5489 10.1333V8.70833C18.5489 7.20416 18.3954 5.7 18.3954 5.7ZM7.42022 11.9542V6.65L12.4089 9.34167L7.42022 11.9542Z" fill="#231F20"/>
<mask id="mask0_6_5197" style="mask-type:alpha" maskUnits="userSpaceOnUse" x="0" y="2" width="19" height="15">
<path fill-rule="evenodd" clip-rule="evenodd" d="M18.3954 5.7C18.3954 5.7 18.2419 4.35417 17.6279 3.8C16.9371 3.00833 16.1696 3.00833 15.7859 3.00833C13.1764 2.85 9.33895 2.85 9.33895 2.85C9.33895 2.85 5.50148 2.85 2.89201 3.00833C2.50826 3.0875 1.74076 3.0875 1.05002 3.8C0.512775 4.35417 0.282527 5.7 0.282527 5.7C0.282527 5.7 0.129028 7.20416 0.129028 8.7875V10.2125C0.129028 11.7167 0.282527 13.3 0.282527 13.3C0.282527 13.3 0.436026 14.6458 1.05002 15.2C1.74076 15.9917 2.66176 15.9125 3.0455 15.9917C4.50374 16.15 9.33895 16.15 9.33895 16.15C9.33895 16.15 13.1764 16.15 15.7859 15.9125C16.1696 15.8333 16.9371 15.8333 17.6279 15.1208C18.1651 14.5667 18.3954 13.2208 18.3954 13.2208C18.3954 13.2208 18.5489 11.7167 18.5489 10.1333V8.70833C18.5489 7.20416 18.3954 5.7 18.3954 5.7ZM7.42022 11.9542V6.65L12.4089 9.34167L7.42022 11.9542Z" fill="white"/>
</mask>
<g mask="url(#mask0_6_5197)">
</g>
</svg>
