<svg width="51" height="51" viewBox="0 0 51 51" fill="none" xmlns="http://www.w3.org/2000/svg">
<path d="M44.4102 13.9893C43.9258 13.9893 43.6028 14.3122 43.6028 14.7967V48.7101H9.85092C9.36644 48.7101 9.04346 49.0331 9.04346 49.5175C9.04346 50.002 9.36644 50.325 9.85092 50.325H44.4102C44.8947 50.325 45.2177 50.002 45.2177 49.5175V14.7967C45.2177 14.3122 44.8947 13.9893 44.4102 13.9893Z" fill="#333333"/>
<path d="M10.4969 5.10711H36.3357C36.8201 5.10711 37.1431 4.78412 37.1431 4.29965C37.1431 3.81517 36.8201 3.49219 36.3357 3.49219H10.4969C10.0124 3.49219 9.68945 3.81517 9.68945 4.29965C9.68945 4.78412 10.0124 5.10711 10.4969 5.10711Z" fill="#333333"/>
<path fill-rule="evenodd" clip-rule="evenodd" d="M43.1183 1.15063C44.7332 -0.383544 47.2363 -0.383544 48.8512 1.15063C50.4662 2.68481 50.4662 5.26868 48.8512 6.8836L37.3046 18.4303C37.2238 18.511 31.3293 19.6415 31.3293 19.6415C31.3293 19.6415 30.2796 19.6415 30.3604 18.6725C30.3604 18.6725 31.4908 12.7781 31.5716 12.6973L43.1183 1.15063ZM32.8636 14.7161L32.2176 17.7844L35.2859 17.1384L32.8636 14.7161ZM36.9009 16.5732L35.9319 15.6042L41.2611 10.1135C41.5841 9.79053 41.5841 9.30605 41.2611 8.98306C40.9382 8.66008 40.4537 8.66008 40.1307 8.98306L34.7207 14.3931L33.4288 13.1011L42.6338 3.97681L43.7643 5.10725L42.0686 6.80292C41.7456 7.1259 41.7456 7.61038 42.0686 7.93336C42.4723 8.3371 43.0376 8.09486 43.199 7.93336L44.814 6.2377L46.0252 7.44889L36.9009 16.5732ZM47.1556 6.23772L47.7208 5.67249C48.6898 4.78429 48.6898 3.25011 47.7208 2.28116C46.8326 1.31221 45.2985 1.31221 44.3295 2.28116L43.7643 2.84638L47.1556 6.23772Z" fill="#333333"/>
<path d="M0.807461 38.9399C1.29194 38.9399 1.61492 38.6169 1.61492 38.1324V36.2752C1.61492 35.7908 1.29194 35.4678 0.807461 35.4678C0.322984 35.4678 0 35.7908 0 36.2752V38.1324C0 38.5361 0.322984 38.9399 0.807461 38.9399Z" fill="#333333"/>
<path fill-rule="evenodd" clip-rule="evenodd" d="M0 4.29976C0 2.03887 1.77641 0.262451 4.0373 0.262451C6.29819 0.262451 8.07461 2.03887 8.07461 4.29976V46.2877C8.07461 48.5486 6.29819 50.325 4.0373 50.325C1.77641 50.325 0 48.5486 0 46.2877V41.7659C0 41.2815 0.322984 40.9585 0.807461 40.9585C1.29194 40.9585 1.61492 41.2815 1.61492 41.7659V43.0579C2.26089 42.5734 3.1491 42.2504 4.0373 42.2504C4.92551 42.2504 5.81372 42.5734 6.45969 43.0579V4.29976C6.45969 2.92707 5.40999 1.87737 4.0373 1.87737C2.66462 1.87737 1.61492 2.92707 1.61492 4.29976V32.8031C1.61492 33.2876 1.29194 33.6106 0.807461 33.6106C0.322984 33.6106 0 33.2876 0 32.8031V4.29976ZM1.61493 46.2876C1.61493 47.6603 2.66463 48.71 4.03731 48.71C5.41 48.71 6.45969 47.6603 6.45969 46.2876C6.45969 44.9149 5.41 43.8652 4.03731 43.8652C2.66463 43.8652 1.61493 44.9149 1.61493 46.2876Z" fill="#333333"/>
<path d="M4.03744 6.72203C4.52192 6.72203 4.8449 6.39905 4.8449 5.91457V4.29965C4.8449 3.81517 4.52192 3.49219 4.03744 3.49219C3.55296 3.49219 3.22998 3.81517 3.22998 4.29965V5.91457C3.22998 6.39905 3.55296 6.72203 4.03744 6.72203Z" fill="#333333"/>
<path d="M3.22998 20.4488C3.22998 20.9333 3.55296 21.2563 4.03744 21.2563C4.52192 21.2563 4.8449 20.9333 4.8449 20.4488V9.14437C4.8449 8.6599 4.52192 8.33691 4.03744 8.33691C3.55296 8.33691 3.22998 8.6599 3.22998 9.14437V20.4488Z" fill="#333333"/>
<path fill-rule="evenodd" clip-rule="evenodd" d="M24.1432 23.2751C24.3046 23.5173 24.3046 23.8403 24.1432 24.0825C23.9817 24.3248 23.7394 24.4862 23.4972 24.4862H10.5778C10.2548 24.4862 10.0126 24.3248 9.8511 24.0825C9.68961 23.8403 9.68961 23.5173 9.8511 23.2751L16.3108 13.5855C16.6338 13.101 17.3605 13.101 17.6835 13.5855L24.1432 23.2751ZM16.9568 15.4426L12.0312 22.8713H21.8823L16.9568 15.4426Z" fill="#333333"/>
<path d="M25.8389 23.6788C25.8389 24.1633 26.1619 24.4863 26.6463 24.4863H41.1806C41.5036 24.4863 41.7458 24.3248 41.9073 24.0825C42.0688 23.8403 42.0688 23.5173 41.9073 23.2751L39.8887 20.0452C39.6464 19.6415 39.162 19.5608 38.7582 19.803C38.3545 20.0452 38.2738 20.5297 38.516 20.9335L39.7272 22.9521H26.6463C26.1619 22.8714 25.8389 23.1943 25.8389 23.6788Z" fill="#333333"/>
<path d="M30.6834 13.9893C30.6834 13.5049 30.3604 13.1819 29.8759 13.1819H20.1864C19.7019 13.1819 19.3789 13.5049 19.3789 13.9893C19.3789 14.4738 19.7019 14.7968 20.1864 14.7968H29.8759C30.3604 14.7968 30.6834 14.4738 30.6834 13.9893Z" fill="#333333"/>
<path fill-rule="evenodd" clip-rule="evenodd" d="M21.8017 40.6354H12.1121C11.6277 40.6354 11.3047 40.3124 11.3047 39.8279V38.1322C11.3047 37.6478 11.6277 37.3248 12.1121 37.3248C12.5966 37.3248 12.9196 37.6478 12.9196 38.1322V39.0204H14.5345V33.3682C14.5345 31.9955 15.5842 30.9458 16.9569 30.9458C18.3296 30.9458 19.3793 31.9955 19.3793 33.3682V39.0204H20.9942V26.9085C20.9942 26.4241 21.3172 26.1011 21.8017 26.1011C22.2862 26.1011 22.6091 26.4241 22.6091 26.9085V39.8279C22.6091 40.3124 22.2862 40.6354 21.8017 40.6354ZM16.9569 32.5608C16.4725 32.5608 16.1495 32.8838 16.1495 33.3683V39.0205H17.7644V33.3683C17.7644 32.8838 17.4414 32.5608 16.9569 32.5608Z" fill="#333333"/>
<path d="M11.3047 26.9085V34.4987C11.3047 34.9831 11.6277 35.3061 12.1121 35.3061C12.5966 35.3061 12.9196 34.9831 12.9196 34.4987V26.9085C12.9196 26.4241 12.5966 26.1011 12.1121 26.1011C11.6277 26.1011 11.3047 26.4241 11.3047 26.9085Z" fill="#333333"/>
<path d="M40.3729 26.9085C40.3729 26.4241 40.0499 26.1011 39.5654 26.1011C39.0809 26.1011 38.7579 26.4241 38.7579 26.9085V39.0204H25.0311C24.5466 39.0204 24.2236 39.3434 24.2236 39.8279C24.2236 40.3124 24.5466 40.6354 25.0311 40.6354H39.5654C40.0499 40.6354 40.3729 40.3124 40.3729 39.8279V26.9085Z" fill="#333333"/>
<path d="M37.3854 46.853C37.7891 47.2567 38.3543 47.0145 38.5158 46.853L40.1307 45.2381C40.1307 45.2381 40.6152 44.6729 40.1307 44.1076L38.5158 42.4927C38.1928 42.1697 37.7084 42.1697 37.3854 42.4927C36.7394 43.1387 37.6276 43.8654 37.6276 43.8654H14.0498C14.0498 43.8654 14.938 43.2194 14.292 42.4927C13.969 42.1697 13.4845 42.1697 13.1615 42.4927L11.5466 44.1076C11.1429 44.6729 11.5466 45.2381 11.5466 45.2381L13.1615 46.853C13.323 47.0145 13.969 47.2567 14.292 46.853C14.8572 46.1263 14.0498 45.4803 14.0498 45.4803H37.6276C37.6276 45.4803 36.7394 46.1263 37.3854 46.853Z" fill="#333333"/>
<path d="M32.0564 8.57933L30.4415 6.96441C30.1185 6.64142 29.634 6.64142 29.311 6.96441C28.665 7.61037 29.5533 8.33709 29.5533 8.33709H18.8948C18.8948 8.33709 19.783 7.61037 19.137 6.96441C18.814 6.64142 18.3295 6.64142 18.0066 6.96441L16.3916 8.57933C15.9072 9.14455 16.3109 9.62903 16.3916 9.70977L18.0066 11.3247C18.1681 11.4862 18.7333 11.7284 19.137 11.3247C19.783 10.598 18.8948 9.95201 18.8948 9.95201H29.5533C29.5533 9.95201 28.665 10.5172 29.311 11.3247C29.7147 11.8092 30.28 11.4862 30.4415 11.3247L32.0564 9.70977C32.0564 9.70977 32.5409 9.14455 32.0564 8.57933Z" fill="#333333"/>
</svg>
