<svg width="17" height="9" viewBox="0 0 17 9" fill="none" xmlns="http://www.w3.org/2000/svg">
<path d="M14.8928 5.22826H1.34043C1.15242 5.22826 1 5.08672 1 4.90938C1 4.73326 1.15128 4.5905 1.34043 4.5905H14.8769L11.6797 1.6049C11.5471 1.48109 11.5468 1.28064 11.6811 1.15524C11.8145 1.03071 12.0302 1.0303 12.1626 1.15393L15.868 4.61398C15.9318 4.6736 15.965 4.751 15.9672 4.82923C16.0273 4.94749 16.0047 5.09189 15.9006 5.18906L12.1953 8.64912C12.0629 8.77275 11.8471 8.77234 11.7138 8.6478C11.5795 8.52241 11.5798 8.32196 11.7124 8.19815L14.8928 5.22826Z" fill="#231F20" stroke="#231F20" stroke-width="0.5"/>
</svg>
