<svg width="49" height="50" viewBox="0 0 49 50" fill="none" xmlns="http://www.w3.org/2000/svg">
<path fill-rule="evenodd" clip-rule="evenodd" d="M18.5752 31.2916L19.6405 28.6951C17.6431 27.4301 16.245 25.233 16.1119 22.1704C14.8469 22.1704 13.6485 21.7044 13.6485 20.1731V17.3103C10.5193 17.3103 10.3196 13.0493 13.1824 12.5832C13.5153 7.85619 16.4447 4.26099 21.0386 2.99601V2.33023C21.0386 1.06525 22.1039 0 23.3688 0H25.0999C26.4314 0 27.4301 1.06525 27.4301 2.33023V2.99601C32.024 4.26099 34.9534 7.85619 35.2863 12.5832C38.1491 12.9827 37.9494 17.3103 34.8202 17.3103V20.1731C34.8202 21.7044 33.6218 22.1704 32.3569 22.1704C32.2237 25.233 30.8256 27.4301 28.8282 28.6951L29.8935 31.2916L30.6924 30.8921C31.8242 31.1585 32.8895 31.3582 34.0213 31.5579C45.6756 33.8772 45.9685 35.5905 47.6088 45.185C47.852 46.6076 48.1248 48.2033 48.4687 50H0C0.346073 48.2172 0.599641 46.6095 0.828875 45.1561C2.05495 37.3824 2.58491 34.0223 12.8495 31.8908C13.1158 31.8242 13.3822 31.7743 13.6485 31.7244C13.9148 31.6744 14.1811 31.6245 14.4474 31.5579C15.5792 31.3582 16.7111 31.1585 17.7763 30.8921L18.5752 31.2916ZM27.4966 29.3608C26.4979 29.7603 25.3661 29.96 24.2343 29.96C23.1025 29.96 21.9707 29.7603 20.972 29.3608L19.9067 31.9574L24.2343 34.0213L28.5619 31.9574L27.4966 29.3608ZM40.6125 48.4686V34.8867C45.0564 36.7606 45.6252 41.0457 46.197 45.3528C46.3362 46.4016 46.4756 47.4517 46.6711 48.4686H40.6125ZM39.1478 48.4687V34.3541C37.9494 33.9547 36.6178 33.6218 35.3528 33.3555L28.8948 39.2143L24.9667 36.2849V48.4021L39.1478 48.4687ZM33.5553 33.0226L28.8283 37.2836L25.6991 34.9534L30.8922 32.49C31.6245 32.6231 32.3569 32.7563 33.1558 32.8895L33.5553 33.0226ZM9.38745 34.3541V48.4687L23.502 48.4021V36.2849L19.5739 39.2143L13.1158 33.3555C11.8508 33.6218 10.5859 33.9547 9.38745 34.3541ZM7.8562 34.8867V48.4686H1.79761C1.98967 47.4699 2.13003 46.4391 2.27029 45.409C2.85933 41.083 3.44677 36.7688 7.8562 34.8867ZM14.9135 33.0226L19.7071 37.2836L22.8362 34.9534L17.5766 32.49C16.8442 32.6231 16.1119 32.7563 15.3129 32.8895L14.9135 33.0226ZM27.43 8.18913V4.52734C31.4913 5.79232 33.7549 9.1878 33.8215 13.3156V14.048H34.5539C36.4181 14.048 36.0852 15.8456 34.8202 15.8456H13.6484C12.45 15.8456 12.0506 14.048 13.9147 14.048H14.6471V13.3156C14.7137 9.1878 16.9773 5.79232 21.0386 4.52734V8.18913C21.0386 12.4501 27.43 12.4501 27.43 8.18913ZM33.3555 17.3103H32.3568V20.7058C32.3921 20.7058 32.4289 20.7063 32.4667 20.7068H32.4669C32.8576 20.7123 33.3555 20.7194 33.3555 20.1732V17.3103ZM17.6432 17.3103H30.8922V21.8376C30.8922 25.0333 29.1612 27.0973 26.9641 27.9628C26.0986 28.2957 25.1665 28.4954 24.2344 28.4954C23.3023 28.4954 22.3702 28.2957 21.5047 27.9628C19.3076 27.0973 17.6432 25.0333 17.6432 21.8376V17.3103ZM16.1118 17.3103H15.1132V20.1732C15.1132 20.7194 15.6111 20.7123 16.0017 20.7068L16.0019 20.7068C16.0398 20.7063 16.0766 20.7058 16.1118 20.7058V17.3103ZM23.3688 1.4646H25.0998C25.5659 1.4646 25.9653 1.86407 25.9653 2.33011V8.18897C25.9653 10.4526 22.5033 10.4526 22.5033 8.18897V2.33011C22.5033 1.86407 22.9028 1.4646 23.3688 1.4646Z" fill="#333333"/>
</svg>
