<svg width="16" height="17" viewBox="0 0 16 17" fill="none" xmlns="http://www.w3.org/2000/svg">
<path d="M6.01396 16.5039L5.99195 9.00215H3.19922V6.00143H5.99195V4.12598C5.99195 1.34177 7.59659 0 9.90815 0C11.0154 0 11.967 0.0885736 12.2444 0.128168V3.03783L10.6412 3.03861C9.38403 3.03861 9.14061 3.68048 9.14061 4.62239V6.00143H12.7992L11.4029 9.00215H9.14061V16.5039H6.01396Z" fill="white"/>
<mask id="mask0_683_1978" style="mask-type:alpha" maskUnits="userSpaceOnUse" x="3" y="0" width="10" height="17">
<path d="M6.01396 16.5039L5.99195 9.00215H3.19922V6.00143H5.99195V4.12598C5.99195 1.34177 7.59659 0 9.90815 0C11.0154 0 11.967 0.0885736 12.2444 0.128168V3.03783L10.6412 3.03861C9.38403 3.03861 9.14061 3.68048 9.14061 4.62239V6.00143H12.7992L11.4029 9.00215H9.14061V16.5039H6.01396Z" fill="white"/>
</mask>
<g mask="url(#mask0_683_1978)">
</g>
</svg>
