<svg width="20" height="16" viewBox="0 0 20 16" fill="none" xmlns="http://www.w3.org/2000/svg">
<path fill-rule="evenodd" clip-rule="evenodd" d="M1 2.23529C1 1.55306 1.55306 1 2.23529 1H17.8824C18.5646 1 19.1176 1.55306 19.1176 2.23529C19.1176 2.91753 18.5646 3.47059 17.8824 3.47059H2.23529C1.55306 3.47059 1 2.91753 1 2.23529ZM1 8C1 7.31777 1.55306 6.76471 2.23529 6.76471H17.8824C18.5646 6.76471 19.1176 7.31777 19.1176 8C19.1176 8.68223 18.5646 9.23529 17.8824 9.23529H2.23529C1.55306 9.23529 1 8.68223 1 8ZM2.23529 12.5294C1.55306 12.5294 1 13.0825 1 13.7647C1 14.4469 1.55306 15 2.23529 15H17.8824C18.5646 15 19.1176 14.4469 19.1176 13.7647C19.1176 13.0825 18.5646 12.5294 17.8824 12.5294H2.23529Z" fill="#231F20"/>
<path d="M2.23529 0.5C1.27692 0.5 0.5 1.27692 0.5 2.23529H1.5C1.5 1.8292 1.8292 1.5 2.23529 1.5V0.5ZM17.8824 0.5H2.23529V1.5H17.8824V0.5ZM19.6176 2.23529C19.6176 1.27692 18.8407 0.5 17.8824 0.5V1.5C18.2884 1.5 18.6176 1.8292 18.6176 2.23529H19.6176ZM17.8824 3.97059C18.8407 3.97059 19.6176 3.19367 19.6176 2.23529H18.6176C18.6176 2.64139 18.2884 2.97059 17.8824 2.97059V3.97059ZM2.23529 3.97059H17.8824V2.97059H2.23529V3.97059ZM0.5 2.23529C0.5 3.19367 1.27692 3.97059 2.23529 3.97059V2.97059C1.8292 2.97059 1.5 2.64139 1.5 2.23529H0.5ZM2.23529 6.26471C1.27692 6.26471 0.5 7.04162 0.5 8H1.5C1.5 7.59391 1.8292 7.26471 2.23529 7.26471V6.26471ZM17.8824 6.26471H2.23529V7.26471H17.8824V6.26471ZM19.6176 8C19.6176 7.04162 18.8407 6.26471 17.8824 6.26471V7.26471C18.2884 7.26471 18.6176 7.59391 18.6176 8H19.6176ZM17.8824 9.73529C18.8407 9.73529 19.6176 8.95838 19.6176 8H18.6176C18.6176 8.40609 18.2884 8.73529 17.8824 8.73529V9.73529ZM2.23529 9.73529H17.8824V8.73529H2.23529V9.73529ZM0.5 8C0.5 8.95838 1.27692 9.73529 2.23529 9.73529V8.73529C1.8292 8.73529 1.5 8.40609 1.5 8H0.5ZM1.5 13.7647C1.5 13.3586 1.8292 13.0294 2.23529 13.0294V12.0294C1.27692 12.0294 0.5 12.8063 0.5 13.7647H1.5ZM2.23529 14.5C1.8292 14.5 1.5 14.1708 1.5 13.7647H0.5C0.5 14.7231 1.27692 15.5 2.23529 15.5V14.5ZM17.8824 14.5H2.23529V15.5H17.8824V14.5ZM18.6176 13.7647C18.6176 14.1708 18.2884 14.5 17.8824 14.5V15.5C18.8407 15.5 19.6176 14.7231 19.6176 13.7647H18.6176ZM17.8824 13.0294C18.2884 13.0294 18.6176 13.3586 18.6176 13.7647H19.6176C19.6176 12.8063 18.8407 12.0294 17.8824 12.0294V13.0294ZM2.23529 13.0294H17.8824V12.0294H2.23529V13.0294Z" fill="white"/>
</svg>
