<svg width="20" height="20" viewBox="0 0 20 20" fill="none" xmlns="http://www.w3.org/2000/svg">
<path fill-rule="evenodd" clip-rule="evenodd" d="M17.2747 9.78105V19H11.7433V12.3163H8.5167V19H2.98533V9.78105H1.60248C1.34896 9.78105 1.09544 9.64277 1.0263 9.38925C0.957158 9.13572 1.0263 8.8822 1.21068 8.72087L10.13 1L19.0493 8.72087C19.2337 8.8822 19.2798 9.15877 19.2107 9.38925C19.1415 9.61972 18.9111 9.78105 18.6575 9.78105H17.2747ZM7.5948 18.0781V11.3944H12.6652V18.0781H16.3528V8.85915H17.8048L10.13 2.19846L2.45524 8.85915H3.90722V18.0781H7.5948Z" fill="#231F20"/>
<path d="M17.2747 19V19.15H17.4247V19H17.2747ZM17.2747 9.78105V9.63105H17.1247V9.78105H17.2747ZM11.7433 19H11.5933V19.15H11.7433V19ZM11.7433 12.3163H11.8933V12.1663H11.7433V12.3163ZM8.5167 12.3163V12.1663H8.3667V12.3163H8.5167ZM8.5167 19V19.15H8.6667V19H8.5167ZM2.98533 19H2.83533V19.15H2.98533V19ZM2.98533 9.78105H3.13533V9.63105H2.98533V9.78105ZM1.0263 9.38925L1.17101 9.34978L1.0263 9.38925ZM1.21068 8.72087L1.11251 8.60746L1.1119 8.60798L1.21068 8.72087ZM10.13 1L10.2282 0.886589L10.13 0.801607L10.0318 0.886589L10.13 1ZM19.0493 8.72087L19.1481 8.60798L19.1475 8.60746L19.0493 8.72087ZM7.5948 11.3944V11.2444H7.4448V11.3944H7.5948ZM7.5948 18.0781V18.2281H7.7448V18.0781H7.5948ZM12.6652 11.3944H12.8152V11.2444H12.6652V11.3944ZM12.6652 18.0781H12.5152V18.2281H12.6652V18.0781ZM16.3528 18.0781V18.2281H16.5028V18.0781H16.3528ZM16.3528 8.85915V8.70915H16.2028V8.85915H16.3528ZM17.8048 8.85915V9.00915H18.2065L17.9031 8.74587L17.8048 8.85915ZM10.13 2.19846L10.2283 2.08518L10.13 1.99985L10.0317 2.08518L10.13 2.19846ZM2.45524 8.85915L2.35692 8.74587L2.05355 9.00915H2.45524V8.85915ZM3.90722 8.85915H4.05722V8.70915H3.90722V8.85915ZM3.90722 18.0781H3.75722V18.2281H3.90722V18.0781ZM17.4247 19V9.78105H17.1247V19H17.4247ZM11.7433 19.15H17.2747V18.85H11.7433V19.15ZM11.5933 12.3163V19H11.8933V12.3163H11.5933ZM8.5167 12.4663H11.7433V12.1663H8.5167V12.4663ZM8.6667 19V12.3163H8.3667V19H8.6667ZM2.98533 19.15H8.5167V18.85H2.98533V19.15ZM2.83533 9.78105V19H3.13533V9.78105H2.83533ZM1.60248 9.93105H2.98533V9.63105H1.60248V9.93105ZM0.881586 9.42871C0.973761 9.76669 1.30353 9.93105 1.60248 9.93105V9.63105C1.3944 9.63105 1.21712 9.51884 1.17101 9.34978L0.881586 9.42871ZM1.1119 8.60798C0.880053 8.81085 0.798887 9.12548 0.881586 9.42871L1.17101 9.34978C1.11543 9.14596 1.17255 8.95355 1.30945 8.83376L1.1119 8.60798ZM10.0318 0.886589L1.11251 8.60746L1.30885 8.83428L10.2282 1.11341L10.0318 0.886589ZM19.1475 8.60746L10.2282 0.886589L10.0318 1.11341L18.9512 8.83428L19.1475 8.60746ZM19.3544 9.43235C19.4358 9.16091 19.3876 8.81756 19.1481 8.60798L18.9506 8.83376C19.0798 8.94684 19.1239 9.15664 19.067 9.34614L19.3544 9.43235ZM18.6575 9.93105C18.971 9.93105 19.2644 9.73214 19.3544 9.43235L19.067 9.34614C19.0187 9.5073 18.8512 9.63105 18.6575 9.63105V9.93105ZM17.2747 9.93105H18.6575V9.63105H17.2747V9.93105ZM7.4448 11.3944V18.0781H7.7448V11.3944H7.4448ZM12.6652 11.2444H7.5948V11.5444H12.6652V11.2444ZM12.8152 18.0781V11.3944H12.5152V18.0781H12.8152ZM16.3528 17.9281H12.6652V18.2281H16.3528V17.9281ZM16.2028 8.85915V18.0781H16.5028V8.85915H16.2028ZM17.8048 8.70915H16.3528V9.00915H17.8048V8.70915ZM10.0317 2.31175L17.7065 8.97244L17.9031 8.74587L10.2283 2.08518L10.0317 2.31175ZM2.55355 8.97244L10.2283 2.31175L10.0317 2.08518L2.35692 8.74587L2.55355 8.97244ZM3.90722 8.70915H2.45524V9.00915H3.90722V8.70915ZM4.05722 18.0781V8.85915H3.75722V18.0781H4.05722ZM7.5948 17.9281H3.90722V18.2281H7.5948V17.9281Z" fill="#231F20"/>
</svg>
