<svg width="51" height="50" viewBox="0 0 51 50" fill="none" xmlns="http://www.w3.org/2000/svg">
<path fill-rule="evenodd" clip-rule="evenodd" d="M13.5469 16.3794H20.9361C21.2762 16.3794 21.5518 16.6551 21.5518 16.9952V24.3843C21.5518 24.7244 21.2762 25.0001 20.9361 25.0001H13.5469C13.2068 25.0001 12.9312 24.7244 12.9312 24.3843V16.9952C12.9312 16.6551 13.2068 16.3794 13.5469 16.3794ZM20.3203 19.4581V17.6108H14.1627V19.4581H20.3203ZM14.1627 20.6897H16.6257V23.7685H14.1627V20.6897ZM17.8573 20.6897V23.7685H20.3203V20.6897H17.8573Z" fill="#333333"/>
<path fill-rule="evenodd" clip-rule="evenodd" d="M41.1402 40.1846C43.92 40.8123 47.5258 42.1099 49.3082 43.8883C50.8997 45.4752 50.8839 46.4438 50.8549 48.0408C50.8512 48.2599 50.8449 49.3641 50.8449 49.3641C50.8449 49.7108 50.5628 49.9918 50.2148 49.9918H50.2117C49.8649 49.9901 49.5847 49.7096 49.5848 49.3641C49.5848 49.3641 49.5911 48.2524 49.5948 48.027C49.6194 46.5424 49.6282 45.9874 48.4135 44.7753C47.4595 43.9242 46.3592 43.2516 45.1656 42.7897V45.5938L45.7881 45.5869C45.9554 45.5899 46.1157 45.6545 46.2379 45.7684C46.3583 45.8859 46.4264 46.0467 46.4269 46.2147V49.3672C46.4269 49.7139 46.1449 49.995 45.7969 49.995C45.4489 49.995 45.1668 49.7139 45.1668 49.3672V46.8493L44.5444 46.8562H44.5374C44.1895 46.8562 43.9074 46.5752 43.9074 46.2285V42.462C43.9111 42.4092 43.9216 42.3571 43.9389 42.307C43.2912 42.0741 42.6404 41.8726 42.0172 41.7012V46.2285C42.0172 46.5752 41.7351 46.8562 41.3872 46.8562H28.7862C28.4382 46.8562 28.1561 46.5752 28.1561 46.2285V41.7156C27.533 41.8851 26.8834 42.091 26.2383 42.3245C26.253 42.3691 26.2623 42.4153 26.266 42.462V46.2285C26.2655 46.3965 26.1974 46.5572 26.077 46.6748C25.9565 46.7914 25.7951 46.8565 25.6271 46.8562L25.0046 46.8493V49.3672C25.0046 49.7139 24.7226 49.995 24.3746 49.995C24.0266 49.995 23.7445 49.7139 23.7445 49.3672V46.2229C23.7451 46.0549 23.8131 45.8941 23.9336 45.7765C24.0578 45.6658 24.2169 45.6017 24.3834 45.5951L25.0059 45.602V42.8198C23.8312 43.2791 22.7485 43.9441 21.809 44.7834C20.5943 45.9956 20.6031 46.5505 20.6277 48.0352C20.6315 48.2605 20.6378 49.3723 20.6378 49.3723C20.6378 49.7189 20.3557 50 20.0077 50C19.6597 50 19.3777 49.7189 19.3777 49.3723C19.3777 49.3723 19.3714 48.268 19.3676 48.049L19.3675 48.0466C19.3417 46.4448 19.3261 45.4769 20.9169 43.8901C22.6993 42.1099 26.3051 40.8104 29.0848 40.1864C30.0369 39.973 30.7105 39.1267 30.7022 38.1544V37.634C30.3539 37.4354 30.0196 37.2133 29.7017 36.9692C28.9533 36.3852 28.3033 35.6859 27.7762 34.8977C27.7246 34.9109 4.2401 34.9291 4.2401 34.9291C3.89213 34.9291 3.61005 34.648 3.61005 34.3013V31.7903C3.61005 31.4436 3.89213 31.1626 4.2401 31.1626H5.49012V18.2574L3.48278 20.2574C3.23674 20.5024 2.83792 20.5024 2.59189 20.2574L0.18447 17.8594C-0.06149 17.6143 -0.06149 17.2169 0.18447 16.9718L6.18128 10.9874C6.14755 10.9095 6.13018 10.8256 6.13025 10.7407V4.79724C6.13025 4.45054 6.41233 4.16949 6.7603 4.16949H9.91054C10.2585 4.16949 10.5406 4.45054 10.5406 4.79724V6.63716L17.0068 0.18393C17.1251 0.0660429 17.2856 -0.000130464 17.4529 1.93116e-07H17.456C17.6299 0.00318865 17.7969 0.0684535 17.9267 0.18393L32.1318 14.3584L32.1803 14.1563C32.3145 13.6502 32.6079 13.2003 33.0176 12.8726C33.4054 12.5343 33.9004 12.3432 34.4157 12.3327H35.8396C36.3546 12.3454 36.8491 12.5363 37.2383 12.8726C37.5841 13.1544 37.8485 13.5226 38.0044 13.9397V13.946L38.339 15.2272C41.6547 16.5297 43.9767 19.5509 44.3742 23.0797C45.53 23.072 46.4758 23.9942 46.4931 25.1456V25.3302C46.4751 26.4868 45.5212 27.4108 44.3604 27.3961H43.9332V29.8807C43.9619 33.0735 42.2813 36.0397 39.5229 37.6648V38.1544C39.5154 39.126 40.1888 39.9713 41.1402 40.1846ZM45.233 25.3302V25.1456C45.2156 24.6822 44.8255 24.32 44.3604 24.3352H25.8899C25.4246 24.32 25.0344 24.6821 25.0166 25.1456V25.3302C25.0344 25.7936 25.4246 26.1558 25.8899 26.1406H44.3604C44.8255 26.1558 45.2156 25.7935 45.233 25.3302ZM33.8184 13.8368C33.9816 13.6883 34.1907 13.5998 34.4113 13.5857H35.8352C36.0559 13.5992 36.2652 13.6879 36.4281 13.8368C36.5797 13.9589 36.7031 14.1122 36.7897 14.2863L37.9238 18.6334C37.973 18.8581 38.1416 19.038 38.3632 19.1023C38.5848 19.1666 38.8239 19.105 38.9865 18.9418C39.1491 18.7786 39.2091 18.5398 39.1429 18.3195L38.7448 16.7872C41.1301 18.0638 42.7521 20.4071 43.1022 23.0822H27.1468C27.4979 20.4058 29.1213 18.0617 31.508 16.7847L31.13 18.2197C31.0638 18.44 31.1238 18.6788 31.2864 18.842C31.449 19.0052 31.6881 19.0668 31.9097 19.0025C32.1313 18.9382 32.2999 18.7583 32.3491 18.5336L33.4656 14.2762C33.5509 14.1067 33.6711 13.957 33.8184 13.8368ZM9.2805 5.42505H7.39035V9.77784L9.2805 7.8946V5.42505ZM3.03796 18.9259L1.52206 17.4149L17.4661 1.5022L31.4236 15.4313C30.7498 15.7341 30.1151 16.1168 29.5334 16.5712L17.9122 4.99372C17.6661 4.74866 17.2673 4.74866 17.0213 4.99372L3.03796 18.9259ZM17.4661 6.32568L6.75084 17.0018V31.1625H26.3693C26.3197 30.7897 26.2938 30.4142 26.2918 30.0382V27.396H25.8898C24.7289 27.4107 23.7748 26.4868 23.7565 25.3301V25.1455C23.7738 23.9938 24.72 23.0715 25.876 23.0796C26.1279 20.9427 27.0824 18.9489 28.5909 17.4092L17.4661 6.32568ZM4.87015 33.6735V32.418H26.6339C26.7539 32.8476 26.907 33.2674 27.092 33.6735H4.87015ZM27.5519 27.396V30.0382C27.5495 32.363 28.6301 34.5573 30.4772 35.9779C32.7757 37.7702 35.9054 38.0813 38.5139 36.7768C41.1225 35.4722 42.7422 32.786 42.6731 29.8787V27.396H27.5519ZM35.1226 38.8268C35.8716 38.8263 36.6177 38.7339 37.3442 38.5519C37.6586 38.4714 37.9681 38.3727 38.271 38.2562C38.2856 38.8201 38.4429 39.3711 38.7284 39.8582L35.1125 42.8984L31.4784 39.8852C31.7809 39.3849 31.9467 38.8144 31.9591 38.2305C32.968 38.6204 34.0404 38.8217 35.1226 38.8243V38.8268ZM29.4162 41.3948V45.6007H40.7578V41.3785C40.3247 41.2662 39.9189 41.0676 39.5651 40.7947L35.5189 44.1977C35.2855 44.3942 34.9442 44.3955 34.7093 44.2008L30.6278 40.8192C30.2676 41.0914 29.8553 41.2873 29.4162 41.3948Z" fill="#333333"/>
</svg>
