<svg width="16" height="17" viewBox="0 0 16 17" fill="none" xmlns="http://www.w3.org/2000/svg">
<path fill-rule="evenodd" clip-rule="evenodd" d="M8 0C5.82733 0 5.55467 0.0096273 4.70133 0.0495118C3.40133 0.110714 2.25933 0.439417 1.34267 1.38496C0.426 2.33049 0.107333 3.50846 0.048 4.84941C0.00933333 5.72962 0 6.01087 0 8.25197C0 10.4931 0.00933333 10.7743 0.048 11.6545C0.107333 12.9955 0.426 14.1734 1.34267 15.119C2.25933 16.0645 3.40133 16.3932 4.70133 16.4544C5.55467 16.4943 5.82733 16.5039 8 16.5039C10.1727 16.5039 10.4453 16.4943 11.2987 16.4544C12.5987 16.3932 13.7407 16.0645 14.6573 15.119C15.574 14.1734 15.8927 12.9955 15.952 11.6545C15.9907 10.7743 16 10.4931 16 8.25197C16 6.01087 15.9907 5.72962 15.952 4.84941C15.8927 3.50846 15.574 2.33049 14.6573 1.38496C13.7407 0.439417 12.5987 0.110714 11.2987 0.0495118C10.4453 0.0096273 10.1727 0 8 0ZM8 1.48673C10.136 1.48673 10.3893 1.49498 11.2327 1.53487C12.1433 1.5775 12.988 1.76592 13.638 2.43639C14.288 3.10687 14.4707 3.97814 14.512 4.91749C14.5507 5.78738 14.5587 6.04869 14.5587 8.25197C14.5587 10.4552 14.5507 10.7166 14.512 11.5865C14.4707 12.5258 14.288 13.3971 13.638 14.0675C12.988 14.738 12.1433 14.9264 11.2327 14.9691C10.3893 15.009 10.136 15.0172 8 15.0172C5.864 15.0172 5.61067 15.009 4.76733 14.9691C3.85667 14.9264 3.012 14.738 2.362 14.0675C1.712 13.3971 1.52933 12.5258 1.488 11.5865C1.44933 10.7166 1.44133 10.4552 1.44133 8.25197C1.44133 6.04869 1.44933 5.78738 1.488 4.91749C1.52933 3.97814 1.712 3.10687 2.362 2.43639C3.012 1.76592 3.85667 1.5775 4.76733 1.53487C5.61067 1.49498 5.864 1.48673 8 1.48673ZM3.892 8.25197C3.892 5.91185 5.73133 4.01458 8 4.01458C10.2687 4.01458 12.108 5.91185 12.108 8.25197C12.108 10.5921 10.2687 12.4894 8 12.4894C5.73133 12.4894 3.892 10.5921 3.892 8.25197ZM8 11.0026C6.52733 11.0026 5.33333 9.77102 5.33333 8.25197C5.33333 6.73292 6.52733 5.50131 8 5.50131C9.47267 5.50131 10.6667 6.73292 10.6667 8.25197C10.6667 9.77102 9.47267 11.0026 8 11.0026ZM12.2707 4.83703C12.8009 4.83703 13.2307 4.39369 13.2307 3.84679C13.2307 3.2999 12.8009 2.85656 12.2707 2.85656C11.7405 2.85656 11.3107 3.2999 11.3107 3.84679C11.3107 4.39369 11.7405 4.83703 12.2707 4.83703Z" fill="white"/>
<mask id="mask0_683_1982" style="mask-type:alpha" maskUnits="userSpaceOnUse" x="0" y="0" width="16" height="17">
<path fill-rule="evenodd" clip-rule="evenodd" d="M8 0C5.82733 0 5.55467 0.0096273 4.70133 0.0495118C3.40133 0.110714 2.25933 0.439417 1.34267 1.38496C0.426 2.33049 0.107333 3.50846 0.048 4.84941C0.00933333 5.72962 0 6.01087 0 8.25197C0 10.4931 0.00933333 10.7743 0.048 11.6545C0.107333 12.9955 0.426 14.1734 1.34267 15.119C2.25933 16.0645 3.40133 16.3932 4.70133 16.4544C5.55467 16.4943 5.82733 16.5039 8 16.5039C10.1727 16.5039 10.4453 16.4943 11.2987 16.4544C12.5987 16.3932 13.7407 16.0645 14.6573 15.119C15.574 14.1734 15.8927 12.9955 15.952 11.6545C15.9907 10.7743 16 10.4931 16 8.25197C16 6.01087 15.9907 5.72962 15.952 4.84941C15.8927 3.50846 15.574 2.33049 14.6573 1.38496C13.7407 0.439417 12.5987 0.110714 11.2987 0.0495118C10.4453 0.0096273 10.1727 0 8 0ZM8 1.48673C10.136 1.48673 10.3893 1.49498 11.2327 1.53487C12.1433 1.5775 12.988 1.76592 13.638 2.43639C14.288 3.10687 14.4707 3.97814 14.512 4.91749C14.5507 5.78738 14.5587 6.04869 14.5587 8.25197C14.5587 10.4552 14.5507 10.7166 14.512 11.5865C14.4707 12.5258 14.288 13.3971 13.638 14.0675C12.988 14.738 12.1433 14.9264 11.2327 14.9691C10.3893 15.009 10.136 15.0172 8 15.0172C5.864 15.0172 5.61067 15.009 4.76733 14.9691C3.85667 14.9264 3.012 14.738 2.362 14.0675C1.712 13.3971 1.52933 12.5258 1.488 11.5865C1.44933 10.7166 1.44133 10.4552 1.44133 8.25197C1.44133 6.04869 1.44933 5.78738 1.488 4.91749C1.52933 3.97814 1.712 3.10687 2.362 2.43639C3.012 1.76592 3.85667 1.5775 4.76733 1.53487C5.61067 1.49498 5.864 1.48673 8 1.48673ZM3.892 8.25197C3.892 5.91185 5.73133 4.01458 8 4.01458C10.2687 4.01458 12.108 5.91185 12.108 8.25197C12.108 10.5921 10.2687 12.4894 8 12.4894C5.73133 12.4894 3.892 10.5921 3.892 8.25197ZM8 11.0026C6.52733 11.0026 5.33333 9.77102 5.33333 8.25197C5.33333 6.73292 6.52733 5.50131 8 5.50131C9.47267 5.50131 10.6667 6.73292 10.6667 8.25197C10.6667 9.77102 9.47267 11.0026 8 11.0026ZM12.2707 4.83703C12.8009 4.83703 13.2307 4.39369 13.2307 3.84679C13.2307 3.2999 12.8009 2.85656 12.2707 2.85656C11.7405 2.85656 11.3107 3.2999 11.3107 3.84679C11.3107 4.39369 11.7405 4.83703 12.2707 4.83703Z" fill="white"/>
</mask>
<g mask="url(#mask0_683_1982)">
</g>
</svg>
