<svg width="35" height="40" viewBox="0 0 35 40" fill="none" xmlns="http://www.w3.org/2000/svg">
<path fill-rule="evenodd" clip-rule="evenodd" d="M33.6987 36.5901H27.5409L28.5504 33.782C28.6068 33.6248 28.5255 33.4523 28.3689 33.3961L27.2511 32.9937L27.5526 32.1394C27.5616 32.1137 27.5672 32.0869 27.5693 32.0594C27.6024 31.5764 27.3014 31.1295 26.8343 30.9718C26.7145 30.9323 26.5921 30.9156 26.4681 30.9167C26.3566 30.615 26.1128 30.3712 25.7989 30.2681C25.5705 30.1907 25.3267 30.1933 25.105 30.2689C24.9794 30.0237 24.7611 29.8312 24.485 29.7382C24.388 29.7053 24.2881 29.6918 24.188 29.6873C22.0061 26.0798 19.1838 24.4867 17.1135 23.7878L17.1185 21.7229C19.0895 21.003 20.6429 19.4353 21.2963 18.3456C21.2968 18.3443 21.2968 18.343 21.2976 18.3417C21.4715 18.0511 21.6347 17.693 21.7857 17.2825C22.6754 17.2713 23.5121 16.6251 23.8762 15.6343C24.3385 14.3763 23.8515 13.0093 22.7904 12.5871C22.7789 12.5827 22.7669 12.5788 22.7549 12.5749L22.7549 12.5749C22.7469 12.5723 22.7389 12.5697 22.731 12.567C22.7843 11.974 22.82 11.3657 22.8354 10.7518C22.9093 10.7706 22.9806 10.7889 23.0458 10.8067C23.1155 10.8258 23.1859 10.8348 23.2559 10.8348C23.4286 10.8348 23.5974 10.778 23.7389 10.6702C23.9382 10.5172 24.0526 10.285 24.0526 10.0329V9.1675C24.0526 8.80913 23.8232 8.50112 23.4819 8.4001C23.4162 8.38075 23.3412 8.35929 23.2591 8.33675C22.7013 5.53874 20.4145 3.27769 17.349 2.48729L17.3686 2.0934C17.3723 2.0213 17.3498 1.95053 17.3055 1.89354C17.2772 1.85643 16.5939 1 15.0084 1C13.4229 1 12.7399 1.85642 12.7115 1.893C12.6673 1.94972 12.645 2.02076 12.6484 2.09286L12.6683 2.49496C9.60254 3.29601 7.31808 5.55008 6.75985 8.32855C6.66711 8.354 6.58074 8.37812 6.50761 8.39985C6.16635 8.50058 5.93689 8.80885 5.93689 9.16725V10.0327C5.93689 10.2848 6.05109 10.517 6.2506 10.6699C6.44905 10.8215 6.70155 10.8716 6.94347 10.8064C7.01712 10.7865 7.09635 10.7661 7.1806 10.7447C7.19597 11.3615 7.23147 11.9719 7.28526 12.5672C7.2772 12.5701 7.2689 12.5727 7.26061 12.5754C7.24901 12.5791 7.23741 12.5828 7.22644 12.5871C6.16527 13.0096 5.6786 14.3768 6.14064 15.6343C6.50443 16.6246 7.34141 17.2711 8.23057 17.2825C8.38213 17.6944 8.54613 18.0543 8.72074 18.3456C9.36803 19.425 10.8995 20.9716 12.8434 21.7006L12.8352 23.8115C10.0747 24.7652 5.55315 27.4792 3.6058 35.147L3.60481 35.1506C3.60439 35.152 3.60396 35.1534 3.60368 35.155C3.48709 35.6146 3.38112 36.0944 3.28414 36.5903L1.30152 36.5897C1.13513 36.5897 1 36.7247 1 36.8914V38.6931C1 38.8595 1.13513 38.9947 1.30152 38.9947L9.90352 38.996C9.90658 38.9962 9.9094 38.997 9.91221 38.9979C9.91523 38.9988 9.91824 38.9997 9.92154 38.9997C9.92483 38.9997 9.92784 38.9988 9.93086 38.9979C9.93367 38.997 9.93649 38.9962 9.93955 38.996L11.1803 38.9963C11.1833 38.9964 11.186 38.9973 11.1886 38.9981C11.1915 38.9991 11.1944 39 11.1976 39C11.201 39 11.2042 38.9991 11.2073 38.9981H11.2073L11.211 38.997L11.2148 38.9963L19.1812 38.9976C19.1832 38.9976 19.185 38.9981 19.1868 38.9987L19.1895 38.9994L19.1908 38.9996L19.1924 38.9997C19.1934 38.9997 19.1944 38.9996 19.1953 38.9994L19.1979 38.9987C19.1997 38.9981 19.2015 38.9976 19.2035 38.9976L20.4586 38.9979C20.4604 38.9979 20.4621 38.9984 20.4637 38.9989C20.4654 38.9995 20.4671 39 20.4689 39C20.4702 39 20.4715 38.9998 20.4726 38.9995L20.4766 38.9983L20.4792 38.9979L28.4593 38.9992C28.4601 38.9992 28.4608 38.9994 28.4614 38.9996C28.462 38.9998 28.4626 39 28.4632 39C28.4646 39 28.4659 38.9992 28.4672 38.9992L29.7363 38.9995C29.7377 38.9995 29.7385 39 29.7393 39C29.7401 39 29.7414 38.9995 29.7422 38.9995H33.6987C33.7788 38.9995 33.8556 38.9679 33.9118 38.9112C33.9682 38.8545 34 38.7781 34 38.6981V36.8917C34.0003 36.7247 33.8657 36.5898 33.6987 36.5898L33.6987 36.5901ZM8.3892 30.113L8.84254 28.8728L10.5684 29.5068C10.6991 30.0282 10.9266 30.3498 11.2485 30.4595C11.332 30.4878 11.4133 30.4995 11.4915 30.4995C11.833 30.4995 12.1038 30.2721 12.1544 30.2265C12.1618 30.2185 12.2228 30.1507 12.2986 30.0473C12.3945 30.0693 12.4891 30.0818 12.5826 30.085C12.7882 30.2578 12.9896 30.3802 13.1856 30.4547C13.1894 30.4566 13.1928 30.4591 13.1961 30.4615C13.2007 30.4649 13.2054 30.4682 13.2111 30.4701L14.4476 30.9242L14.419 31.0026C14.419 31.0029 14.4187 31.0031 14.4184 31.0034L14.1262 31.8042L13.9948 32.1644L11.6441 31.3037L11.6432 31.3034C11.642 31.303 11.6411 31.3027 11.6399 31.3021L8.3892 30.113ZM13.7339 29.9286C14.0195 29.852 14.2068 29.4764 14.2672 29.3079L14.2672 29.3078C14.3048 28.9368 14.2359 28.6552 14.0624 28.4716C14.0065 28.4122 13.9418 28.3682 13.8748 28.3308C14.0131 28.7709 13.9286 29.2053 13.7217 29.5136C13.6205 29.6644 13.4949 29.786 13.3539 29.8788L13.3676 29.8847C13.3841 29.8918 13.4007 29.899 13.4175 29.9048H13.4178H13.418C13.5253 29.9422 13.6329 29.9557 13.7339 29.9286ZM13.0519 28.0986C13.4379 28.5058 13.3846 28.9343 13.2217 29.1774C13.1038 29.3531 12.886 29.501 12.5885 29.4857C12.6536 29.2885 12.6907 29.0674 12.6515 28.8326C12.5877 28.4503 12.3492 28.1256 11.9457 27.8629C12.243 27.736 12.6611 27.6861 13.0519 28.0986L13.0519 28.0986ZM12.0562 28.9302C12.0124 28.6757 11.8018 28.4499 11.4301 28.259L11.4301 28.259C11.0398 28.0584 10.6824 28.0114 10.3671 28.1188C10.0952 28.2113 9.89334 28.4037 9.7606 28.5681L10.9283 28.997C10.933 28.9986 10.9368 29.0014 10.9406 29.0042C10.9435 29.0063 10.9463 29.0084 10.9495 29.0099C10.9733 29.0205 10.995 29.0333 11.0152 29.0502C11.0263 29.0595 11.0358 29.0696 11.0454 29.0805C11.0613 29.0979 11.0748 29.116 11.0862 29.1372C11.0944 29.152 11.1 29.1674 11.1053 29.1833C11.1071 29.1886 11.1096 29.1936 11.1121 29.1985C11.1157 29.2057 11.1193 29.2128 11.1209 29.2209C11.2287 29.7755 11.3948 29.8722 11.4431 29.8889C11.5514 29.9255 11.7088 29.816 11.7369 29.7922C11.7368 29.7922 11.7382 29.7905 11.7408 29.7874C11.7816 29.7393 12.1256 29.3336 12.0562 28.9302ZM16.9438 34.2041C16.9385 34.0458 16.9607 33.6591 17.3046 33.5393C17.7386 33.3885 17.9848 33.6922 18.0092 33.7248C18.0818 33.8261 18.2092 33.8714 18.3303 33.8409C18.4511 33.8094 18.5399 33.7065 18.5537 33.5825C18.5561 33.5608 18.6173 33.0518 19.0513 33.0306C19.2992 33.0158 19.4741 33.1568 19.569 33.2599L19.2767 34.0726C19.2203 34.2298 19.3016 34.4024 19.4585 34.4586L21.393 35.1546C20.2502 35.3479 18.909 35.2835 18.006 34.9529C17.4907 34.7639 17.1566 34.4978 16.9438 34.2041L16.9438 34.2041ZM19.0218 32.428C19.3475 32.4142 19.5989 32.526 19.7852 32.6578L20.0903 31.8096C19.8002 31.6179 19.5607 31.4801 19.3088 31.3876C18.1697 30.9725 17.4111 31.5172 16.9742 32.0471C16.8932 32.1459 16.7578 32.1828 16.638 32.1388L14.8806 31.4947L14.7203 31.9339L14.6834 32.0343L16.4142 32.6671C16.539 32.7124 16.619 32.8348 16.6116 32.9676C16.6049 33.0792 16.6068 33.1972 16.6182 33.3181C16.7337 33.172 16.8882 33.0456 17.1057 32.9698C17.5087 32.8295 17.8513 32.9038 18.103 33.0381C18.2577 32.7389 18.5431 32.4513 19.0218 32.428ZM14.0696 32.8356C14.1037 32.848 14.1387 32.8538 14.1732 32.8538C14.2961 32.8538 14.4116 32.778 14.4561 32.6561L14.476 32.6012L16.0051 33.16C16.0188 33.8868 16.3119 34.9752 17.7985 35.5196C18.4352 35.7523 19.2468 35.8684 20.0731 35.8684C20.705 35.8684 21.3441 35.799 21.9212 35.6635C21.829 35.9641 21.7702 36.2875 21.7688 36.5902L8.71797 36.5904C9.77752 35.8729 10.1967 34.7469 10.5244 33.8584L10.618 33.6074C10.8975 32.8673 11.3938 32.2219 11.628 31.9414L14.0696 32.8356ZM10.8967 38.3936V37.1939H10.2235V38.3936H10.8967ZM11.4998 37.1936H18.891V38.3949L11.4998 38.3935V37.1936ZM20.1673 37.1936H19.494V38.3949H20.1673V37.1936ZM20.7706 37.1936H28.1618V38.396L20.7706 38.3946V37.1936ZM29.4381 37.1936H28.7648V38.3962H29.4381V37.1936ZM22.3712 36.5902C22.3728 36.2928 22.4512 35.9238 22.5863 35.584L25.3824 36.5902H22.3712ZM26.9305 36.5063L27.8809 33.862L27.0507 33.563L26.8347 34.1742C26.8226 34.2095 26.8035 34.2421 26.7791 34.2704C26.7033 34.3582 26.6024 34.4308 26.4781 34.4875C26.3462 34.553 26.1983 34.5843 26.0478 34.5843C25.7667 34.5843 25.4781 34.4756 25.2752 34.2832C25.0111 34.4303 24.6966 34.4618 24.403 34.364C24.3375 34.3428 24.2755 34.3147 24.2141 34.2789C24.0291 34.1763 23.8802 34.0186 23.7846 33.8328C23.5626 33.9089 23.3185 33.9118 23.0896 33.8347C22.8058 33.7387 22.5674 33.5314 22.4368 33.2661C22.3146 33.0183 22.2955 32.7416 22.383 32.4863L22.5719 31.9509L20.8966 31.3486L19.9462 33.9932L26.9305 36.5063ZM24.6188 30.7366C24.6246 30.854 24.6972 30.9568 24.8055 31.0014C24.9142 31.0464 25.0379 31.0233 25.1245 30.9444C25.2552 30.8235 25.4393 30.7827 25.6078 30.8407C25.7951 30.9022 25.925 31.0758 25.9316 31.2733C25.935 31.369 25.9833 31.4575 26.0622 31.5119C26.1412 31.5662 26.2411 31.5797 26.3314 31.5484C26.435 31.5129 26.5436 31.5116 26.6438 31.5445C26.8372 31.6102 26.967 31.7873 26.9694 31.9829L26.2911 33.9038C26.2729 33.9166 26.249 33.9298 26.2193 33.9433C26.0386 34.0335 25.7769 33.9486 25.6685 33.8214L26.1256 32.5271C26.1809 32.3699 26.0988 32.1979 25.9417 32.1422C25.7846 32.0876 25.6126 32.169 25.557 32.3262L25.0769 33.6857C25.0727 33.6894 25.0687 33.6934 25.0646 33.6973L25.0646 33.6974C25.0585 33.7033 25.0525 33.7092 25.0461 33.7143C24.9192 33.8145 24.7491 33.8442 24.5915 33.7915C24.5666 33.7835 24.543 33.7724 24.5133 33.7557C24.383 33.6833 24.2976 33.5537 24.2775 33.4114L24.7369 32.1099C24.7486 32.0767 24.7544 32.0425 24.7544 32.0091C24.7544 31.8851 24.677 31.7687 24.5533 31.725C24.3962 31.6706 24.2242 31.752 24.1686 31.9089L23.715 33.1937C23.5881 33.2839 23.4291 33.3128 23.2834 33.2637C23.1496 33.2187 23.0383 33.1227 22.9784 33.0002C22.9427 32.9276 22.9093 32.8136 22.953 32.6853L23.6909 30.5953C23.729 30.4813 23.8128 30.3883 23.9259 30.3339C24.0417 30.2783 24.1718 30.27 24.2926 30.3103C24.4815 30.3734 24.6095 30.5412 24.6188 30.7366ZM21.9944 16.651C22.5494 16.5439 23.0693 16.081 23.3101 15.4258H23.3102C23.6446 14.5167 23.3525 13.5526 22.6661 13.2017C22.5193 14.4888 22.2877 15.6766 21.9944 16.651ZM22.1621 12.1606L21.035 11.1398C20.9753 11.0857 20.8967 11.0584 20.8156 11.0624C20.735 11.0669 20.6598 11.1037 20.6063 11.1644L20.4431 11.3497L19.6858 10.2041C20.7414 10.3223 21.5898 10.4716 22.2355 10.6115C22.2246 11.1334 22.2005 11.6527 22.1621 12.1605L22.1621 12.1606ZM17.1001 7.50664C19.6723 7.6071 21.5023 7.91908 22.6077 8.17355L22.6077 8.17354C22.0111 5.76808 19.9958 3.83334 17.3185 3.10205L17.1001 7.50664ZM15.0082 1.60331C16.0373 1.60331 16.5789 2.01787 16.7596 2.19016L16.4973 7.4872C16.024 7.47554 15.5318 7.46997 15.0119 7.47448C15.0059 7.47448 14.9998 7.47474 14.9939 7.47501L14.9926 7.47495C14.987 7.47471 14.9818 7.47448 14.9762 7.47448C14.4667 7.47024 13.9836 7.47607 13.519 7.4872L13.2566 2.19172C13.4395 2.02075 13.9905 1.60327 15.0082 1.60327L15.0082 1.60331ZM12.9164 7.50622L12.6989 3.11065V3.1106C10.0215 3.85146 8.00755 5.77981 7.40982 8.16729C8.52295 7.91336 10.3538 7.60508 12.9164 7.50622ZM6.78613 10.2241C6.70506 10.2456 6.64518 10.2124 6.61683 10.191C6.56781 10.1533 6.53946 10.0956 6.53946 10.0327V9.16728C6.53946 9.07901 6.5951 9.00294 6.67777 8.97856C7.63904 8.69441 10.3707 8.03888 14.9712 8.07837L14.9828 8.0781L14.9945 8.07784L15.0178 8.07837C19.6155 8.0394 22.3494 8.69438 23.3112 8.97856C23.3938 9.00294 23.4495 9.07902 23.4495 9.16728V10.0327C23.4495 10.0955 23.4211 10.1533 23.3721 10.191C23.3435 10.2127 23.2833 10.2461 23.2028 10.2241C23.0475 10.1822 22.8674 10.1366 22.6649 10.0892C22.648 10.0817 22.6292 10.0788 22.6102 10.0759L22.5942 10.0733C21.611 9.84745 20.0991 9.58476 18.038 9.45567H18.0372C17.2466 9.40611 16.3781 9.37615 15.425 9.37615C15.2902 9.37615 15.1534 9.37668 15.0157 9.37801H14.9775C14.7971 9.37656 14.6229 9.37731 14.4485 9.37805L14.3962 9.37827L14.3912 9.37819C14.3891 9.37814 14.387 9.37812 14.3848 9.37827C10.4683 9.39656 7.95942 9.90761 6.78667 10.2241L6.78613 10.2241ZM14.8629 9.98072C14.8335 9.98081 14.8042 9.9809 14.7743 9.98078C14.7939 10.3847 14.6254 10.7924 14.4484 11.1009C16.1388 10.9923 17.0129 10.4256 17.4268 10.0269C16.6889 9.99191 15.8887 9.97363 15.0178 9.98078H14.9741C14.9362 9.98049 14.8995 9.9806 14.8629 9.98072ZM10.3601 10.1963L9.59817 11.3493L9.43496 11.164C9.38197 11.1036 9.30725 11.0673 9.22697 11.0625C9.1451 11.0572 9.06773 11.0848 9.00811 11.1386L7.85503 12.1673C7.81582 11.6554 7.7917 11.1322 7.78084 10.605C8.43474 10.4637 9.29239 10.314 10.3601 10.1963ZM7.35002 13.2019C6.66458 13.5529 6.37233 14.5171 6.70671 15.426L6.70668 15.4261C6.94754 16.0816 7.46686 16.5455 8.02194 16.6517C7.72837 15.6773 7.49681 14.4894 7.35002 13.2019ZM9.23806 18.0347C8.6284 17.0183 8.15254 15.1079 7.92361 12.9139L9.18319 11.7903L9.40602 12.0437C9.46802 12.1142 9.55996 12.151 9.65295 12.1452C9.74675 12.1388 9.83206 12.089 9.88346 12.0108L11.1322 10.1217C12.0222 10.0446 13.0317 9.99101 14.1707 9.9812C14.2102 10.4249 13.8008 11.0259 13.631 11.2254C13.5549 11.315 13.5375 11.4407 13.587 11.5475C13.6365 11.6543 13.7431 11.7227 13.8604 11.7227C16.7447 11.7227 17.8565 10.536 18.1818 10.0705C18.4338 10.0875 18.6778 10.106 18.9124 10.127L20.1576 12.0111C20.2096 12.0895 20.2949 12.1388 20.3881 12.1455C20.4814 12.1497 20.5728 12.1142 20.6351 12.044L20.8563 11.7924L22.0926 12.9126C21.8637 15.1076 21.3878 17.0187 20.7779 18.0355C20.7776 18.0359 20.7776 18.0364 20.7775 18.0368C20.7774 18.0372 20.7774 18.0376 20.7771 18.0379C19.9703 19.381 17.6933 21.5079 15.0079 21.5079C12.3218 21.5076 10.0432 19.3778 9.23806 18.0347L9.23806 18.0347ZM13.414 24.1279C13.3801 24.2088 13.3038 24.2915 13.2209 24.3185L13.2209 24.3185C12.9867 24.3948 12.7368 24.4858 12.4761 24.5912C14.792 26.1776 16.7675 25.1598 17.5619 24.5981C17.2683 24.4789 16.9851 24.3771 16.7175 24.2923C16.6409 24.2681 16.5773 24.2146 16.5405 24.143C16.5116 24.0868 16.5013 24.0235 16.51 23.962L16.5148 21.9085C16.0307 22.0355 15.5273 22.1105 15.0085 22.1105C14.4699 22.1105 13.9471 22.0315 13.4461 21.8955L13.4379 24.0116C13.4379 24.0516 13.4297 24.0911 13.414 24.1279ZM11.84 24.8719C12.9663 25.7339 14.043 26.0324 14.9844 26.0324C16.5688 26.0324 17.7704 25.2059 18.1872 24.8759C19.9176 25.7002 21.9239 27.1838 23.5748 29.8443C23.3607 29.9739 23.1986 30.1658 23.1202 30.3983L22.7728 31.3819L20.8172 30.679C20.6606 30.6226 20.4876 30.7045 20.4317 30.8608L20.3002 31.2266C20.0247 31.0509 19.7831 30.92 19.5162 30.8219C18.1133 30.3098 17.1597 30.961 16.6523 31.502L15.0882 30.9287L15.1171 30.8499C15.1744 30.6938 15.0943 30.5202 14.938 30.4632L14.3562 30.2496C14.6993 29.9373 14.844 29.4894 14.8519 29.4637C14.8577 29.4454 14.8614 29.4271 14.8636 29.4083C14.929 28.8368 14.8074 28.383 14.5022 28.0582C14.1413 27.675 13.6315 27.6021 13.3888 27.5885C12.6255 26.8866 11.757 27.2018 11.287 27.5506C10.8977 27.43 10.5247 27.4284 10.1728 27.5483C9.66729 27.7208 9.34138 28.1012 9.17099 28.3525L8.76587 28.2033C8.61034 28.1465 8.43706 28.2266 8.37983 28.383L7.71957 30.1894C7.69201 30.2644 7.69545 30.3474 7.7291 30.4205C7.76275 30.4929 7.82369 30.5494 7.8992 30.5767L8.17052 30.6758C7.40324 31.3289 5.71038 32.7974 4.56476 33.9841C6.29384 28.5365 9.42032 26.0258 11.84 24.8716L11.84 24.8719ZM8.82207 30.9138C8.14453 31.4859 5.06499 34.1148 4.17738 35.3449L4.17741 35.3449C4.077 35.7447 3.98558 36.1621 3.90001 36.59H7.15468C9.01468 36.2059 9.51678 34.8485 9.95898 33.6493L10.0538 33.3938C10.3196 32.6908 10.7454 32.0812 11.0289 31.7217L8.82207 30.9138ZM1.60309 37.1934H9.62041V38.3931L1.60309 38.3915V37.1934ZM30.041 38.3957L33.3977 38.3963V37.1931H30.041V38.3957Z" fill="#333333"/>
<path d="M27.5409 36.5901L27.4468 36.5563L27.3987 36.6901H27.5409V36.5901ZM33.6987 36.5901V36.6901H33.7867L33.7979 36.6029L33.6987 36.5901ZM28.5504 33.782L28.6445 33.8159L28.6445 33.8158L28.5504 33.782ZM28.3689 33.3961L28.335 33.4902L28.3351 33.4902L28.3689 33.3961ZM27.2511 32.9937L27.1568 32.9604L27.1237 33.0542L27.2172 33.0878L27.2511 32.9937ZM27.5526 32.1394L27.6469 32.1727L27.647 32.1725L27.5526 32.1394ZM27.5693 32.0594L27.669 32.067L27.6691 32.0662L27.5693 32.0594ZM26.8343 30.9718L26.8663 30.8771L26.8656 30.8768L26.8343 30.9718ZM26.4681 30.9167L26.3743 30.9514L26.3987 31.0173L26.469 31.0167L26.4681 30.9167ZM25.7989 30.2681L25.7668 30.3628L25.7677 30.3631L25.7989 30.2681ZM25.105 30.2689L25.016 30.3144L25.0554 30.3914L25.1372 30.3635L25.105 30.2689ZM24.485 29.7382L24.4529 29.8329L24.453 29.833L24.485 29.7382ZM24.188 29.6873L24.1024 29.7391L24.1301 29.7848L24.1835 29.7872L24.188 29.6873ZM17.1135 23.7878L17.0135 23.7875L17.0133 23.8595L17.0815 23.8825L17.1135 23.7878ZM17.1185 21.7229L17.0842 21.6289L17.0187 21.6529L17.0185 21.7226L17.1185 21.7229ZM21.2963 18.3456L21.3821 18.3971L21.3862 18.3902L21.3892 18.3828L21.2963 18.3456ZM21.2976 18.3417L21.3834 18.3931L21.3835 18.393L21.2976 18.3417ZM21.7857 17.2825L21.7844 17.1825L21.7156 17.1833L21.6918 17.248L21.7857 17.2825ZM23.8762 15.6343L23.7823 15.5998L23.7823 15.5998L23.8762 15.6343ZM22.7904 12.5871L22.8273 12.4942L22.8266 12.4939L22.7904 12.5871ZM22.7549 12.5749L22.7177 12.668L22.7242 12.6701L22.7549 12.5749ZM22.7549 12.5749L22.7921 12.4819L22.7856 12.4798L22.7549 12.5749ZM22.731 12.567L22.6314 12.558L22.6245 12.6355L22.6978 12.6613L22.731 12.567ZM22.8354 10.7518L22.8601 10.6549L22.7386 10.624L22.7354 10.7493L22.8354 10.7518ZM23.0458 10.8067L23.0722 10.7102L23.0721 10.7102L23.0458 10.8067ZM23.7389 10.6702L23.7995 10.7497L23.7998 10.7495L23.7389 10.6702ZM23.4819 8.4001L23.5103 8.30422L23.5101 8.30418L23.4819 8.4001ZM23.2591 8.33675L23.161 8.3563L23.1731 8.41686L23.2326 8.43319L23.2591 8.33675ZM17.349 2.48729L17.2491 2.48232L17.245 2.56376L17.324 2.58412L17.349 2.48729ZM17.3686 2.0934L17.2687 2.08826L17.2687 2.08843L17.3686 2.0934ZM17.3055 1.89354L17.2261 1.95425L17.2265 1.95487L17.3055 1.89354ZM12.7115 1.893L12.7904 1.9545L12.7905 1.95426L12.7115 1.893ZM12.6484 2.09286L12.5486 2.09763L12.5486 2.09779L12.6484 2.09286ZM12.6683 2.49496L12.6936 2.59171L12.7722 2.57118L12.7682 2.49003L12.6683 2.49496ZM6.75985 8.32855L6.78631 8.42499L6.84575 8.40868L6.85789 8.34825L6.75985 8.32855ZM6.50761 8.39985L6.53592 8.49576L6.5361 8.49571L6.50761 8.39985ZM6.2506 10.6699L6.18976 10.7493L6.18989 10.7494L6.2506 10.6699ZM6.94347 10.8064L6.96949 10.903L6.96953 10.903L6.94347 10.8064ZM7.1806 10.7447L7.28057 10.7422L7.27745 10.6168L7.15591 10.6478L7.1806 10.7447ZM7.28526 12.5672L7.31884 12.6614L7.39183 12.6354L7.38486 12.5582L7.28526 12.5672ZM7.26061 12.5754L7.23026 12.4801L7.23025 12.4801L7.26061 12.5754ZM7.22644 12.5871L7.18974 12.4941L7.18945 12.4942L7.22644 12.5871ZM6.14064 15.6343L6.23451 15.5998L6.23451 15.5998L6.14064 15.6343ZM8.23057 17.2825L8.32442 17.2479L8.30066 17.1834L8.23186 17.1825L8.23057 17.2825ZM8.72074 18.3456L8.63497 18.3971L8.63498 18.3971L8.72074 18.3456ZM12.8434 21.7006L12.9434 21.7009L12.9437 21.6314L12.8785 21.6069L12.8434 21.7006ZM12.8352 23.8115L12.8679 23.906L12.9349 23.8829L12.9352 23.8119L12.8352 23.8115ZM3.6058 35.147L3.70233 35.1732L3.70272 35.1716L3.6058 35.147ZM3.60481 35.1506L3.70044 35.1801L3.70133 35.1768L3.60481 35.1506ZM3.60368 35.155L3.70083 35.1796L3.70206 35.1728L3.60368 35.155ZM3.28414 36.5903L3.28412 36.6903L3.36648 36.6903L3.38228 36.6095L3.28414 36.5903ZM1.30152 36.5897L1.30154 36.4897H1.30152V36.5897ZM1.30152 38.9947L1.30153 38.8947H1.30152V38.9947ZM9.90352 38.996L9.90769 38.896H9.90353L9.90352 38.996ZM9.91221 38.9979L9.9416 38.9023L9.94158 38.9023L9.91221 38.9979ZM9.93086 38.9979L9.90149 38.9023L9.90147 38.9023L9.93086 38.9979ZM9.93955 38.996L9.93957 38.8959L9.93538 38.8961L9.93955 38.996ZM11.1803 38.9963L11.1847 38.8963H11.1804L11.1803 38.9963ZM11.1886 38.9981L11.158 39.0933L11.158 39.0933L11.1886 38.9981ZM11.2073 38.9981L11.2363 39.0938L11.239 39.093L11.2073 38.9981ZM11.2073 38.9981L11.1797 38.9019L11.1757 38.9032L11.2073 38.9981ZM11.211 38.997L11.1915 38.8986L11.1834 38.9009L11.211 38.997ZM11.2148 38.9963L11.2148 38.8963L11.205 38.8963L11.1953 38.8982L11.2148 38.9963ZM19.1812 38.9976L19.1812 39.0976H19.1812V38.9976ZM19.1868 38.9987L19.1584 39.0946L19.1607 39.0952L19.1868 38.9987ZM19.1895 38.9994L19.1633 39.0963L19.1722 39.0979L19.1895 38.9994ZM19.1908 38.9996L19.1735 39.0987L19.1843 39.0994L19.1908 38.9996ZM19.1924 38.9997L19.1858 39.0997H19.1924V38.9997ZM19.1953 38.9994L19.2172 39.0971L19.2215 39.0959L19.1953 38.9994ZM19.1979 38.9987L19.2241 39.0952L19.2263 39.0946L19.1979 38.9987ZM19.2035 38.9976L19.2035 38.8976H19.2035V38.9976ZM20.4586 38.9979L20.4586 39.0979H20.4586V38.9979ZM20.4726 38.9995L20.4982 39.0962L20.5001 39.0956L20.4726 38.9995ZM20.4766 38.9983L20.46 38.8991L20.4491 38.9022L20.4766 38.9983ZM20.4792 38.9979L20.4793 38.8979L20.471 38.8979L20.4628 38.8992L20.4792 38.9979ZM28.4593 38.9992L28.4592 39.0992H28.4593V38.9992ZM28.4614 38.9996L28.4313 39.095L28.4314 39.095L28.4614 38.9996ZM28.4672 38.9992L28.4672 38.8992H28.4672V38.9992ZM29.7363 38.9995L29.7363 39.0995H29.7363V38.9995ZM33.9118 38.9112L33.8409 38.8407L33.8407 38.8408L33.9118 38.9112ZM34 36.8917L33.9 36.8915V36.8917H34ZM33.6987 36.5898V36.4898H33.6108L33.5996 36.577L33.6987 36.5898ZM8.84254 28.8728L8.87702 28.7789L8.783 28.7444L8.74861 28.8385L8.84254 28.8728ZM8.3892 30.113L8.29528 30.0787L8.26095 30.1726L8.35484 30.2069L8.3892 30.113ZM10.5684 29.5068L10.6654 29.4825L10.6526 29.4312L10.6029 29.413L10.5684 29.5068ZM11.2485 30.4595L11.2163 30.5541L11.2164 30.5542L11.2485 30.4595ZM12.1544 30.2265L12.2216 30.3011L12.2275 30.2947L12.1544 30.2265ZM12.2986 30.0473L12.3209 29.9498L12.2568 29.9351L12.2179 29.9882L12.2986 30.0473ZM12.5826 30.085L12.6469 30.0084L12.6205 29.9862L12.586 29.985L12.5826 30.085ZM13.1856 30.4547L13.2306 30.3648L13.2211 30.3612L13.1856 30.4547ZM13.1961 30.4615L13.1372 30.5423L13.1372 30.5423L13.1961 30.4615ZM13.2111 30.4701L13.2456 30.3762L13.2419 30.375L13.2111 30.4701ZM14.4476 30.9242L14.5415 30.9584L14.5757 30.8647L14.482 30.8303L14.4476 30.9242ZM14.419 31.0026L14.325 30.9683L14.319 30.9849V31.0026H14.419ZM14.4184 31.0034L14.3477 30.9327L14.3321 30.9483L14.3245 30.9691L14.4184 31.0034ZM14.1262 31.8042L14.0322 31.7699L14.0322 31.7699L14.1262 31.8042ZM13.9948 32.1644L13.9604 32.2583L14.0544 32.2927L14.0887 32.1987L13.9948 32.1644ZM11.6441 31.3037L11.6785 31.2097L11.675 31.2086L11.6441 31.3037ZM11.6432 31.3034L11.6741 31.2083L11.6737 31.2082L11.6432 31.3034ZM11.6399 31.3021L11.6849 31.2121L11.6742 31.2082L11.6399 31.3021ZM14.2672 29.3079L14.3613 29.3416L14.3676 29.324L14.3672 29.3054L14.2672 29.3079ZM13.7339 29.9286L13.7597 30.0252L13.7598 30.0252L13.7339 29.9286ZM14.2672 29.3078L14.1669 29.2977L14.1672 29.3103L14.2672 29.3078ZM14.0624 28.4716L13.9896 28.5401L13.9897 28.5402L14.0624 28.4716ZM13.8748 28.3308L13.9235 28.2435L13.7041 28.1211L13.7794 28.3608L13.8748 28.3308ZM13.7217 29.5136L13.6386 29.4578L13.6386 29.4578L13.7217 29.5136ZM13.3539 29.8788L13.2989 29.7953L13.1438 29.8974L13.3144 29.9707L13.3539 29.8788ZM13.3676 29.8847L13.4072 29.7929L13.407 29.7928L13.3676 29.8847ZM13.4175 29.9048L13.3848 29.9993L13.4007 30.0048H13.4175V29.9048ZM13.418 29.9048L13.4509 29.8104L13.4349 29.8048H13.418V29.9048ZM13.2217 29.1774L13.3047 29.2331L13.3048 29.2331L13.2217 29.1774ZM13.0519 28.0986L13.0121 28.0069L12.881 28.0637L12.9793 28.1674L13.0519 28.0986ZM12.5885 29.4857L12.4935 29.4543L12.4524 29.5788L12.5833 29.5855L12.5885 29.4857ZM12.6515 28.8326L12.7502 28.8161L12.7501 28.8161L12.6515 28.8326ZM11.9457 27.8629L11.9064 27.771L11.7341 27.8446L11.8911 27.9468L11.9457 27.8629ZM13.0519 28.0986L13.0917 28.1903L13.2228 28.1335L13.1245 28.0298L13.0519 28.0986ZM11.4301 28.259L11.3342 28.2306L11.3106 28.3101L11.3844 28.348L11.4301 28.259ZM12.0562 28.9302L11.9576 28.9471L11.9576 28.9471L12.0562 28.9302ZM11.4301 28.259L11.526 28.2874L11.5495 28.208L11.4758 28.1701L11.4301 28.259ZM10.3671 28.1188L10.3993 28.2135L10.3993 28.2135L10.3671 28.1188ZM9.7606 28.5681L9.6828 28.5052L9.5951 28.6138L9.72612 28.6619L9.7606 28.5681ZM10.9283 28.997L10.8938 29.0908L10.8948 29.0912L10.9283 28.997ZM10.9406 29.0042L10.9996 28.9235L10.9406 29.0042ZM10.9495 29.0099L10.9047 29.0995L10.9088 29.1013L10.9495 29.0099ZM11.0152 29.0502L10.9507 29.1267L10.9511 29.127L11.0152 29.0502ZM11.0454 29.0805L10.9702 29.1464L10.9714 29.1477L11.0454 29.0805ZM11.0862 29.1372L10.9981 29.1845L10.9987 29.1856L11.0862 29.1372ZM11.1053 29.1833L11.0104 29.2149L11.0108 29.2161L11.1053 29.1833ZM11.1121 29.1985L11.2013 29.1534L11.2013 29.1534L11.1121 29.1985ZM11.1209 29.2209L11.0227 29.2398L11.0227 29.24L11.1209 29.2209ZM11.4431 29.8889L11.4103 29.9834L11.4111 29.9837L11.4431 29.8889ZM11.7369 29.7922L11.8016 29.8684L12.0091 29.6922H11.7369V29.7922ZM11.7408 29.7874L11.6645 29.7227L11.6645 29.7227L11.7408 29.7874ZM17.3046 33.5393L17.2718 33.4448L17.2718 33.4449L17.3046 33.5393ZM16.9438 34.2041L16.8438 34.2074L16.8449 34.2381L16.8629 34.2629L16.9438 34.2041ZM18.0092 33.7248L18.0905 33.6666L18.0892 33.6649L18.0092 33.7248ZM18.3303 33.8409L18.3547 33.9379L18.3556 33.9377L18.3303 33.8409ZM18.5537 33.5825L18.6531 33.5935L18.6531 33.5934L18.5537 33.5825ZM19.0513 33.0306L19.0561 33.1305L19.0572 33.1304L19.0513 33.0306ZM19.569 33.2599L19.6631 33.2937L19.6836 33.2368L19.6426 33.1922L19.569 33.2599ZM19.2767 34.0726L19.1826 34.0388L19.1826 34.0388L19.2767 34.0726ZM19.4585 34.4586L19.4923 34.3645L19.4922 34.3644L19.4585 34.4586ZM21.393 35.1546L21.4096 35.2532L21.7856 35.1897L21.4268 35.0605L21.393 35.1546ZM18.006 34.9529L17.9716 35.0468L17.9716 35.0468L18.006 34.9529ZM16.9438 34.2041L17.0248 34.1455L17.0247 34.1453L16.9438 34.2041ZM19.7852 32.6578L19.7274 32.7394L19.8348 32.8153L19.8793 32.6916L19.7852 32.6578ZM19.0218 32.428L19.0176 32.3281L19.017 32.3281L19.0218 32.428ZM20.0903 31.8096L20.1844 31.8434L20.211 31.7694L20.1455 31.7261L20.0903 31.8096ZM19.3088 31.3876L19.3432 31.2937L19.343 31.2936L19.3088 31.3876ZM16.9742 32.0471L16.8971 31.9834L16.8969 31.9836L16.9742 32.0471ZM16.638 32.1388L16.6725 32.0449L16.6724 32.0449L16.638 32.1388ZM14.8806 31.4947L14.915 31.4008L14.821 31.3663L14.7866 31.4604L14.8806 31.4947ZM14.7203 31.9339L14.8142 31.9683L14.8142 31.9682L14.7203 31.9339ZM14.6834 32.0343L14.5896 31.9999L14.5551 32.0939L14.6491 32.1283L14.6834 32.0343ZM16.4142 32.6671L16.3798 32.761L16.38 32.761L16.4142 32.6671ZM16.6116 32.9676L16.7114 32.9736L16.7114 32.9732L16.6116 32.9676ZM16.6182 33.3181L16.5186 33.3274L16.542 33.5756L16.6966 33.3801L16.6182 33.3181ZM17.1057 32.9698L17.0728 32.8753L17.0728 32.8753L17.1057 32.9698ZM18.103 33.0381L18.0559 33.1264L18.1453 33.1741L18.1918 33.0841L18.103 33.0381ZM14.0696 32.8356L14.0352 32.9295L14.0353 32.9295L14.0696 32.8356ZM14.4561 32.6561L14.5501 32.6904L14.5501 32.6902L14.4561 32.6561ZM14.476 32.6012L14.5103 32.5073L14.4161 32.4729L14.382 32.5672L14.476 32.6012ZM16.0051 33.16L16.105 33.1581L16.1037 33.0896L16.0394 33.0661L16.0051 33.16ZM17.7985 35.5196L17.7641 35.6135L17.7642 35.6135L17.7985 35.5196ZM21.9212 35.6635L22.0168 35.6928L22.0679 35.5264L21.8983 35.5662L21.9212 35.6635ZM21.7688 36.5902L21.7688 36.6902L21.8684 36.6902L21.8688 36.5906L21.7688 36.5902ZM8.71797 36.5904L8.6619 36.5076L8.39195 36.6904L8.71797 36.6904L8.71797 36.5904ZM10.5244 33.8584L10.4307 33.8235L10.4306 33.8238L10.5244 33.8584ZM10.618 33.6074L10.5244 33.572L10.5243 33.5724L10.618 33.6074ZM11.628 31.9414L11.6624 31.8475L11.5963 31.8233L11.5512 31.8773L11.628 31.9414ZM10.8967 37.1939H10.9967V37.0939H10.8967V37.1939ZM10.8967 38.3936V38.4936H10.9967V38.3936H10.8967ZM10.2235 37.1939V37.0939H10.1235V37.1939H10.2235ZM10.2235 38.3936H10.1235V38.4936H10.2235V38.3936ZM18.891 37.1936H18.991V37.0936H18.891V37.1936ZM11.4998 37.1936V37.0936H11.3998V37.1936H11.4998ZM18.891 38.3949L18.891 38.4949L18.991 38.4949V38.3949H18.891ZM11.4998 38.3935H11.3998V38.4935L11.4998 38.4935L11.4998 38.3935ZM19.494 37.1936V37.0936H19.394V37.1936H19.494ZM20.1673 37.1936H20.2673V37.0936H20.1673V37.1936ZM19.494 38.3949H19.394V38.4949H19.494V38.3949ZM20.1673 38.3949V38.4949H20.2673V38.3949H20.1673ZM28.1618 37.1936H28.2618V37.0936H28.1618V37.1936ZM20.7706 37.1936V37.0936H20.6706V37.1936H20.7706ZM28.1618 38.396L28.1618 38.496L28.2618 38.496V38.396H28.1618ZM20.7706 38.3946H20.6706V38.4946L20.7706 38.4946L20.7706 38.3946ZM28.7648 37.1936V37.0936H28.6648V37.1936H28.7648ZM29.4381 37.1936H29.5381V37.0936H29.4381V37.1936ZM28.7648 38.3962H28.6648V38.4962H28.7648V38.3962ZM29.4381 38.3962V38.4962H29.5381V38.3962H29.4381ZM22.5863 35.584L22.6202 35.4899L22.5292 35.4571L22.4934 35.547L22.5863 35.584ZM22.3712 36.5902L22.2712 36.5896L22.2706 36.6902H22.3712V36.5902ZM25.3824 36.5902V36.6902L25.4163 36.4961L25.3824 36.5902ZM27.8809 33.862L27.975 33.8958L28.0088 33.8018L27.9148 33.7679L27.8809 33.862ZM26.9305 36.5063L26.8966 36.6004L26.9907 36.6343L27.0246 36.5401L26.9305 36.5063ZM27.0507 33.563L27.0846 33.4689L26.9899 33.4348L26.9564 33.5297L27.0507 33.563ZM26.8347 34.1742L26.7404 34.1409L26.7402 34.1415L26.8347 34.1742ZM26.7791 34.2704L26.8548 34.3358L26.8549 34.3356L26.7791 34.2704ZM26.4781 34.4875L26.4366 34.3965L26.4337 34.3979L26.4781 34.4875ZM25.2752 34.2832L25.344 34.2106L25.2907 34.1601L25.2265 34.1958L25.2752 34.2832ZM24.403 34.364L24.4346 34.2691L24.4338 34.2689L24.403 34.364ZM24.2141 34.2789L24.2644 34.1925L24.2626 34.1915L24.2141 34.2789ZM23.7846 33.8328L23.8735 33.787L23.8339 33.7102L23.7522 33.7382L23.7846 33.8328ZM23.0896 33.8347L23.0576 33.9294L23.0577 33.9294L23.0896 33.8347ZM22.4368 33.2661L22.5265 33.2219L22.5265 33.2219L22.4368 33.2661ZM22.383 32.4863L22.2887 32.453L22.2884 32.4539L22.383 32.4863ZM22.5719 31.9509L22.6662 31.9841L22.6993 31.8904L22.6057 31.8568L22.5719 31.9509ZM20.8966 31.3486L20.9304 31.2545L20.8363 31.2207L20.8025 31.3148L20.8966 31.3486ZM19.9462 33.9932L19.8521 33.9594L19.8183 34.0535L19.9123 34.0873L19.9462 33.9932ZM24.8055 31.0014L24.8439 30.909L24.8435 30.9089L24.8055 31.0014ZM24.6188 30.7366L24.5189 30.7413L24.5189 30.7415L24.6188 30.7366ZM25.1245 30.9444L25.1919 31.0183L25.1925 31.0178L25.1245 30.9444ZM25.6078 30.8407L25.5753 30.9353L25.5766 30.9357L25.6078 30.8407ZM25.9316 31.2733L25.8317 31.2767L25.8317 31.2769L25.9316 31.2733ZM26.0622 31.5119L26.0055 31.5942L26.0622 31.5119ZM26.3314 31.5484L26.299 31.4539L26.2987 31.4539L26.3314 31.5484ZM26.6438 31.5445L26.676 31.4498L26.675 31.4495L26.6438 31.5445ZM26.9694 31.9829L27.0637 32.0162L27.0696 31.9994L27.0694 31.9817L26.9694 31.9829ZM26.2911 33.9038L26.3483 33.9859L26.3747 33.9675L26.3854 33.9371L26.2911 33.9038ZM26.2193 33.9433L26.1779 33.8523L26.1747 33.8539L26.2193 33.9433ZM25.6685 33.8214L25.5742 33.7881L25.555 33.8424L25.5924 33.8863L25.6685 33.8214ZM26.1256 32.5271L26.2198 32.5604L26.2199 32.5603L26.1256 32.5271ZM25.9417 32.1422L25.9751 32.048L25.9745 32.0478L25.9417 32.1422ZM25.557 32.3262L25.4627 32.2928L25.4627 32.2929L25.557 32.3262ZM25.0769 33.6857L25.1437 33.7601L25.1627 33.743L25.1712 33.719L25.0769 33.6857ZM25.0646 33.6973L25.1338 33.7695L25.1346 33.7688L25.0646 33.6973ZM25.0646 33.6974L24.9954 33.6252L24.9946 33.6259L25.0646 33.6974ZM25.0461 33.7143L25.1081 33.7928L25.1086 33.7924L25.0461 33.7143ZM24.5915 33.7915L24.6232 33.6966L24.6219 33.6962L24.5915 33.7915ZM24.5133 33.7557L24.5624 33.6685L24.5618 33.6682L24.5133 33.7557ZM24.2775 33.4114L24.1832 33.3781L24.1751 33.4011L24.1785 33.4254L24.2775 33.4114ZM24.7369 32.1099L24.8312 32.1431L24.8313 32.1431L24.7369 32.1099ZM24.5533 31.725L24.5866 31.6307L24.586 31.6305L24.5533 31.725ZM24.1686 31.9089L24.0744 31.8755L24.0743 31.8756L24.1686 31.9089ZM23.715 33.1937L23.7729 33.2753L23.7987 33.2569L23.8093 33.227L23.715 33.1937ZM23.2834 33.2637L23.2515 33.3585L23.2515 33.3585L23.2834 33.2637ZM22.9784 33.0002L23.0683 32.9563L23.0681 32.9561L22.9784 33.0002ZM22.953 32.6853L22.8587 32.652L22.8583 32.6531L22.953 32.6853ZM23.6909 30.5953L23.7852 30.6286L23.7857 30.627L23.6909 30.5953ZM23.9259 30.3339L23.9692 30.4241L23.9692 30.424L23.9259 30.3339ZM24.2926 30.3103L24.3243 30.2155L24.3242 30.2155L24.2926 30.3103ZM23.3101 15.4258V15.3258H23.2404L23.2163 15.3913L23.3101 15.4258ZM21.9944 16.651L21.8986 16.6221L21.851 16.7805L22.0133 16.7492L21.9944 16.651ZM23.3102 15.4258V15.5258H23.3799L23.404 15.4603L23.3102 15.4258ZM22.6661 13.2017L22.7116 13.1126L22.5831 13.0469L22.5667 13.1903L22.6661 13.2017ZM21.035 11.1398L20.9678 11.2139L20.9678 11.2139L21.035 11.1398ZM22.1621 12.1606L22.0949 12.2347L22.148 12.2828L22.2106 12.248L22.1621 12.1606ZM20.8156 11.0624L20.8107 10.9625L20.81 10.9626L20.8156 11.0624ZM20.6063 11.1644L20.5313 11.0983L20.5312 11.0983L20.6063 11.1644ZM20.4431 11.3497L20.3596 11.4049L20.4317 11.5139L20.5181 11.4158L20.4431 11.3497ZM19.6858 10.2041L19.697 10.1047L19.4845 10.0809L19.6024 10.2592L19.6858 10.2041ZM22.2355 10.6115L22.3355 10.6136L22.3372 10.5312L22.2567 10.5138L22.2355 10.6115ZM22.1621 12.1605L22.2107 12.248L22.2578 12.2218L22.2618 12.1681L22.1621 12.1605ZM22.6077 8.17355L22.5853 8.271L22.6573 8.08672L22.6077 8.17355ZM17.1001 7.50664L17.0002 7.50169L16.9952 7.60262L17.0962 7.60656L17.1001 7.50664ZM22.6077 8.17354L22.5107 8.19761L22.521 8.23914L22.5581 8.26036L22.6077 8.17354ZM17.3185 3.10205L17.3448 3.00558L17.2247 2.97279L17.2186 3.0971L17.3185 3.10205ZM16.7596 2.19016L16.8594 2.1951L16.8617 2.14938L16.8286 2.11778L16.7596 2.19016ZM15.0082 1.60331L14.9198 1.55663L14.8424 1.70331H15.0082V1.60331ZM16.4973 7.4872L16.4948 7.58717L16.5923 7.58958L16.5971 7.49215L16.4973 7.4872ZM15.0119 7.47448V7.57448L15.0128 7.57448L15.0119 7.47448ZM14.9939 7.47501L14.9897 7.57531L14.9985 7.57491L14.9939 7.47501ZM14.9926 7.47495L14.9882 7.57486L14.9884 7.57486L14.9926 7.47495ZM14.9762 7.47448L14.9753 7.57448H14.9762V7.47448ZM13.519 7.4872L13.4191 7.49215L13.4239 7.58951L13.5213 7.58717L13.519 7.4872ZM13.2566 2.19172L13.1883 2.11868L13.1545 2.15035L13.1568 2.19667L13.2566 2.19172ZM15.0082 1.60327L15.0967 1.64995L15.1741 1.50327H15.0082V1.60327ZM12.6989 3.11065H12.5988L12.599 3.11559L12.6989 3.11065ZM12.9164 7.50622L12.9203 7.60614L13.0213 7.60224L13.0163 7.50127L12.9164 7.50622ZM12.6989 3.1106H12.7989V2.97917L12.6722 3.01422L12.6989 3.1106ZM7.40982 8.16729L7.31281 8.143L7.27325 8.30101L7.43206 8.26479L7.40982 8.16729ZM6.61683 10.191L6.55592 10.2703L6.55646 10.2707L6.61683 10.191ZM6.78613 10.2241L6.7872 10.1241L6.77364 10.124L6.76053 10.1274L6.78613 10.2241ZM6.67777 8.97856L6.70606 9.07447L6.70612 9.07446L6.67777 8.97856ZM14.9712 8.07837L14.9703 8.17842L14.9735 8.17834L14.9712 8.07837ZM14.9828 8.0781L14.9806 7.97812L14.9804 7.97812L14.9828 8.0781ZM14.9945 8.07784L14.9967 7.97776L14.9923 7.97786L14.9945 8.07784ZM15.0178 8.07837L15.0155 8.17839L15.0186 8.17837L15.0178 8.07837ZM23.3112 8.97856L23.2828 9.07446L23.2829 9.07447L23.3112 8.97856ZM23.3721 10.191L23.4326 10.2706L23.433 10.2703L23.3721 10.191ZM23.2028 10.2241L23.2292 10.1276L23.2288 10.1276L23.2028 10.2241ZM22.6649 10.0892L22.6247 10.1807L22.6332 10.1844L22.6421 10.1865L22.6649 10.0892ZM22.6102 10.0759L22.5942 10.1746L22.5949 10.1747L22.6102 10.0759ZM22.5942 10.0733L22.5718 10.1709L22.5782 10.172L22.5942 10.0733ZM18.038 9.45567L18.0443 9.35567H18.038V9.45567ZM18.0372 9.45567L18.031 9.55567H18.0372V9.45567ZM15.0157 9.37801V9.47801L15.0166 9.478L15.0157 9.37801ZM14.9775 9.37801L14.9767 9.47801H14.9775V9.37801ZM14.4485 9.37805L14.449 9.47805H14.449L14.4485 9.37805ZM14.3962 9.37827L14.3945 9.47828L14.3966 9.47827L14.3962 9.37827ZM14.3912 9.37819L14.389 9.47816L14.3894 9.47817L14.3912 9.37819ZM14.3848 9.37827L14.3853 9.47847L14.3915 9.47805L14.3848 9.37827ZM6.78667 10.2241L6.7856 10.3241L6.7994 10.3243L6.81273 10.3207L6.78667 10.2241ZM14.7743 9.98078L14.7747 9.88078L14.6693 9.88037L14.6744 9.98563L14.7743 9.98078ZM14.8629 9.98072L14.8626 9.88072L14.8629 9.98072ZM14.4484 11.1009L14.3617 11.0512L14.269 11.2127L14.4548 11.2007L14.4484 11.1009ZM17.4268 10.0269L17.4961 10.0989L17.6632 9.938L17.4315 9.92702L17.4268 10.0269ZM15.0178 9.98078V10.0808L15.0186 10.0808L15.0178 9.98078ZM14.9741 9.98078L14.9733 10.0808H14.9741V9.98078ZM9.59817 11.3493L9.52313 11.4154L9.60953 11.5135L9.68159 11.4044L9.59817 11.3493ZM10.3601 10.1963L10.4436 10.2514L10.5611 10.0735L10.3492 10.0969L10.3601 10.1963ZM9.43496 11.164L9.35977 11.23L9.35992 11.2301L9.43496 11.164ZM9.22697 11.0625L9.22051 11.1623L9.22104 11.1623L9.22697 11.0625ZM9.00811 11.1386L9.07469 11.2132L9.07512 11.2128L9.00811 11.1386ZM7.85503 12.1673L7.75532 12.1749L7.77076 12.3765L7.9216 12.2419L7.85503 12.1673ZM7.78084 10.605L7.75972 10.5073L7.67916 10.5247L7.68086 10.6071L7.78084 10.605ZM6.70671 15.426L6.79951 15.4633L6.81383 15.4276L6.80056 15.3915L6.70671 15.426ZM7.35002 13.2019L7.44937 13.1906L7.43301 13.0471L7.30444 13.1129L7.35002 13.2019ZM6.70668 15.4261L6.61388 15.3889L6.59956 15.4245L6.61282 15.4606L6.70668 15.4261ZM8.02194 16.6517L8.00313 16.75L8.16533 16.781L8.11769 16.6229L8.02194 16.6517ZM7.92361 12.9139L7.85705 12.8393L7.81884 12.8734L7.82415 12.9243L7.92361 12.9139ZM9.23806 18.0347L9.1523 18.0862L9.33763 18.0255L9.23806 18.0347ZM9.18319 11.7903L9.25828 11.7243L9.19178 11.6486L9.11662 11.7157L9.18319 11.7903ZM9.40602 12.0437L9.48112 11.9777L9.48111 11.9777L9.40602 12.0437ZM9.65295 12.1452L9.65921 12.245L9.65972 12.245L9.65295 12.1452ZM9.88346 12.0108L9.80004 11.9557L9.7999 11.9559L9.88346 12.0108ZM11.1322 10.1217L11.1235 10.0221L11.0754 10.0262L11.0488 10.0665L11.1322 10.1217ZM14.1707 9.9812L14.2703 9.97234L14.2621 9.88041L14.1698 9.8812L14.1707 9.9812ZM13.631 11.2254L13.5548 11.1606L13.5547 11.1607L13.631 11.2254ZM13.587 11.5475L13.4963 11.5896L13.4963 11.5896L13.587 11.5475ZM18.1818 10.0705L18.1886 9.97073L18.1322 9.96694L18.0999 10.0132L18.1818 10.0705ZM18.9124 10.127L18.9958 10.0718L18.9692 10.0316L18.9213 10.0274L18.9124 10.127ZM20.1576 12.0111L20.0742 12.0662L20.0742 12.0663L20.1576 12.0111ZM20.3881 12.1455L20.381 12.2453L20.3836 12.2454L20.3881 12.1455ZM20.6351 12.044L20.7099 12.1103L20.7102 12.11L20.6351 12.044ZM20.8563 11.7924L20.9234 11.7183L20.8482 11.6502L20.7812 11.7264L20.8563 11.7924ZM22.0926 12.9126L22.1921 12.923L22.1973 12.8725L22.1598 12.8385L22.0926 12.9126ZM20.7779 18.0355L20.8611 18.0911L20.8636 18.087L20.7779 18.0355ZM20.7775 18.0368L20.8763 18.0521L20.8763 18.0519L20.7775 18.0368ZM20.7771 18.0379L20.7063 17.9673L20.6977 17.9759L20.6914 17.9864L20.7771 18.0379ZM15.0079 21.5079L15.0079 21.6079H15.0079V21.5079ZM9.23806 18.0347L9.32383 17.9833L9.13849 18.044L9.23806 18.0347ZM13.2209 24.3185L13.2051 24.4172L13.2289 24.4211L13.2519 24.4136L13.2209 24.3185ZM13.414 24.1279L13.322 24.0889L13.3218 24.0892L13.414 24.1279ZM13.2209 24.3185L13.2367 24.2198L13.2128 24.2159L13.1899 24.2234L13.2209 24.3185ZM12.4761 24.5912L12.4386 24.4985L12.2659 24.5684L12.4196 24.6737L12.4761 24.5912ZM17.5619 24.5981L17.6196 24.6798L17.7688 24.5743L17.5995 24.5055L17.5619 24.5981ZM16.7175 24.2923L16.7477 24.1969L16.7475 24.1969L16.7175 24.2923ZM16.5405 24.143L16.4516 24.1887L16.4516 24.1888L16.5405 24.143ZM16.51 23.962L16.61 23.9762L16.61 23.9622L16.51 23.962ZM16.5148 21.9085L16.6148 21.9087L16.6151 21.7788L16.4894 21.8118L16.5148 21.9085ZM13.4461 21.8955L13.4723 21.799L13.3466 21.7649L13.3461 21.8951L13.4461 21.8955ZM13.4379 24.0116L13.3379 24.0112V24.0116H13.4379ZM11.84 24.8719L11.7428 24.8481L11.7273 24.9116L11.7792 24.9513L11.84 24.8719ZM18.1872 24.8759L18.2302 24.7856L18.174 24.7588L18.1251 24.7975L18.1872 24.8759ZM23.5748 29.8443L23.6266 29.9298L23.7131 29.8775L23.6598 29.7916L23.5748 29.8443ZM23.1202 30.3983L23.2145 30.4316L23.2149 30.4303L23.1202 30.3983ZM22.7728 31.3819L22.739 31.476L22.8336 31.5101L22.8671 31.4152L22.7728 31.3819ZM20.8172 30.679L20.7833 30.7731L20.7834 30.7731L20.8172 30.679ZM20.4317 30.8608L20.5258 30.8947L20.5258 30.8945L20.4317 30.8608ZM20.3002 31.2266L20.2465 31.3109L20.352 31.3783L20.3944 31.2604L20.3002 31.2266ZM19.5162 30.8219L19.5507 30.728L19.5505 30.7279L19.5162 30.8219ZM16.6523 31.502L16.6179 31.5959L16.68 31.6187L16.7252 31.5704L16.6523 31.502ZM15.0882 30.9287L14.9944 30.8942L14.9599 30.9881L15.0538 31.0226L15.0882 30.9287ZM15.1171 30.8499L15.211 30.8844L15.211 30.8844L15.1171 30.8499ZM14.938 30.4632L14.9035 30.5571L14.9038 30.5572L14.938 30.4632ZM14.3562 30.2496L14.2889 30.1756L14.1669 30.2866L14.3217 30.3434L14.3562 30.2496ZM14.8519 29.4637L14.7566 29.4333L14.7564 29.4341L14.8519 29.4637ZM14.8636 29.4083L14.7642 29.3969L14.7642 29.3971L14.8636 29.4083ZM14.5022 28.0582L14.575 27.9898L14.575 27.9897L14.5022 28.0582ZM13.3888 27.5885L13.3211 27.6622L13.3475 27.6864L13.3833 27.6884L13.3888 27.5885ZM11.287 27.5506L11.2574 27.6462L11.3058 27.6612L11.3466 27.6309L11.287 27.5506ZM10.1728 27.5483L10.1406 27.4536L10.1405 27.4536L10.1728 27.5483ZM9.17099 28.3525L9.13643 28.4463L9.20985 28.4734L9.25376 28.4086L9.17099 28.3525ZM8.76587 28.2033L8.80044 28.1094L8.80014 28.1093L8.76587 28.2033ZM8.37983 28.383L8.28592 28.3486L8.28591 28.3486L8.37983 28.383ZM7.71957 30.1894L7.81343 30.2239L7.81349 30.2237L7.71957 30.1894ZM7.7291 30.4205L7.63825 30.4623L7.63843 30.4627L7.7291 30.4205ZM7.8992 30.5767L7.93352 30.4827L7.93321 30.4826L7.8992 30.5767ZM8.17052 30.6758L8.23534 30.7519L8.36597 30.6407L8.20484 30.5819L8.17052 30.6758ZM4.56476 33.9841L4.46944 33.9538L4.6367 34.0535L4.56476 33.9841ZM11.84 24.8716L11.9372 24.8954L11.9874 24.6905L11.797 24.7813L11.84 24.8716ZM4.17738 35.3449L4.09629 35.2864L4.24809 35.4157L4.17738 35.3449ZM8.82207 30.9138L8.85645 30.8199L8.80192 30.8L8.75756 30.8374L8.82207 30.9138ZM4.17741 35.3449L4.2744 35.3693L4.36255 35.0184L4.1067 35.2742L4.17741 35.3449ZM3.90001 36.59L3.80195 36.5703L3.77802 36.69H3.90001V36.59ZM7.15468 36.59V36.69H7.1649L7.17491 36.6879L7.15468 36.59ZM9.95898 33.6493L9.86523 33.6145L9.86516 33.6147L9.95898 33.6493ZM10.0538 33.3938L9.96029 33.3584L9.96008 33.359L10.0538 33.3938ZM11.0289 31.7217L11.1074 31.7837L11.1929 31.6753L11.0632 31.6278L11.0289 31.7217ZM9.62041 37.1934H9.72041V37.0934H9.62041V37.1934ZM1.60309 37.1934V37.0934H1.50309V37.1934H1.60309ZM9.62041 38.3931L9.62039 38.4931L9.72041 38.4931V38.3931H9.62041ZM1.60309 38.3915H1.50309V38.4915L1.60307 38.4915L1.60309 38.3915ZM33.3977 38.3963L33.3976 38.4963L33.4977 38.4963V38.3963H33.3977ZM30.041 38.3957H29.941V38.4957L30.041 38.4957L30.041 38.3957ZM33.3977 37.1931H33.4977V37.0931H33.3977V37.1931ZM30.041 37.1931V37.0931H29.941V37.1931H30.041ZM27.5409 36.6901H33.6987V36.4902H27.5409V36.6901ZM28.4563 33.7482L27.4468 36.5563L27.635 36.624L28.6445 33.8159L28.4563 33.7482ZM28.3351 33.4902C28.4395 33.5277 28.4941 33.6429 28.4563 33.7482L28.6445 33.8158C28.7195 33.6068 28.6114 33.3769 28.4027 33.302L28.3351 33.4902ZM27.2172 33.0878L28.335 33.4902L28.4028 33.302L27.2849 32.8996L27.2172 33.0878ZM27.4583 32.1061L27.1568 32.9604L27.3454 33.027L27.6469 32.1727L27.4583 32.1061ZM27.4696 32.0517C27.4681 32.0708 27.4643 32.089 27.4582 32.1063L27.647 32.1725C27.6589 32.1384 27.6662 32.103 27.669 32.067L27.4696 32.0517ZM26.8023 31.0666C27.2273 31.21 27.4995 31.6158 27.4695 32.0525L27.6691 32.0662C27.7053 31.537 27.3756 31.049 26.8663 30.8771L26.8023 31.0666ZM26.469 31.0167C26.5833 31.0157 26.6947 31.0311 26.803 31.0668L26.8656 30.8768C26.7344 30.8336 26.6009 30.8155 26.4673 30.8167L26.469 31.0167ZM25.7677 30.3631C26.0517 30.4563 26.273 30.6773 26.3743 30.9514L26.5619 30.882C26.4402 30.5527 26.174 30.286 25.8301 30.173L25.7677 30.3631ZM25.1372 30.3635C25.3385 30.2949 25.5596 30.2926 25.7668 30.3628L25.8309 30.1733C25.5813 30.0888 25.3149 30.0917 25.0727 30.1742L25.1372 30.3635ZM24.453 29.833C24.7043 29.9176 24.9022 30.0924 25.016 30.3144L25.194 30.2233C25.0565 29.9549 24.8178 29.7448 24.5169 29.6434L24.453 29.833ZM24.1835 29.7872C24.2779 29.7914 24.3677 29.804 24.4529 29.8329L24.5171 29.6435C24.4083 29.6066 24.2984 29.5922 24.1925 29.5874L24.1835 29.7872ZM17.0815 23.8825C19.1334 24.5752 21.9347 26.155 24.1024 29.7391L24.2735 29.6355C22.0774 26.0045 19.2342 24.3982 17.1454 23.693L17.0815 23.8825ZM17.0185 21.7226L17.0135 23.7875L17.2135 23.788L17.2185 21.7231L17.0185 21.7226ZM21.2106 18.2942C20.5673 19.367 19.0309 20.9179 17.0842 21.6289L17.1528 21.8168C19.1481 21.088 20.7185 19.5037 21.3821 18.3971L21.2106 18.2942ZM21.2119 18.2902C21.2038 18.3037 21.2007 18.3159 21.1999 18.3194C21.1997 18.3201 21.1995 18.321 21.1995 18.3207C21.1995 18.3207 21.1995 18.3207 21.1996 18.3206C21.1996 18.3206 21.1996 18.3205 21.1996 18.3204C21.1997 18.3201 21.1998 18.3197 21.1999 18.3192C21.2004 18.3174 21.2015 18.3134 21.2035 18.3085L21.3892 18.3828C21.3914 18.3772 21.3927 18.3725 21.3934 18.37C21.3937 18.3688 21.3939 18.3678 21.394 18.3675C21.3941 18.367 21.394 18.3675 21.3939 18.3679C21.3934 18.37 21.3907 18.3809 21.3834 18.3931L21.2119 18.2902ZM21.6918 17.248C21.5422 17.6547 21.3815 18.0067 21.2118 18.2903L21.3835 18.393C21.5614 18.0956 21.7271 17.7314 21.8795 17.317L21.6918 17.248ZM23.7823 15.5998C23.4297 16.5594 22.625 17.172 21.7844 17.1825L21.7869 17.3825C22.7258 17.3707 23.5945 16.6908 23.97 15.6688L23.7823 15.5998ZM22.7534 12.68C23.7513 13.0771 24.2311 14.3786 23.7823 15.5998L23.97 15.6688C24.4459 14.374 23.9517 12.9416 22.8273 12.4942L22.7534 12.68ZM22.7242 12.6701C22.7367 12.6741 22.7459 12.6771 22.7541 12.6803L22.8266 12.4939C22.812 12.4882 22.7971 12.4835 22.7857 12.4798L22.7242 12.6701ZM22.7178 12.6678L22.7178 12.6678L22.7921 12.4821L22.792 12.4821L22.7178 12.6678ZM22.6978 12.6613C22.7071 12.6646 22.7164 12.6676 22.7242 12.6701L22.7856 12.4798C22.7774 12.4771 22.7706 12.4749 22.7642 12.4726L22.6978 12.6613ZM22.7354 10.7493C22.7201 11.361 22.6845 11.9672 22.6314 12.558L22.8306 12.5759C22.8841 11.9809 22.92 11.3704 22.9354 10.7543L22.7354 10.7493ZM23.0721 10.7102C23.006 10.6922 22.934 10.6737 22.8601 10.6549L22.8107 10.8487C22.8847 10.8675 22.9552 10.8856 23.0195 10.9032L23.0721 10.7102ZM23.2559 10.7348C23.1946 10.7348 23.133 10.7269 23.0722 10.7102L23.0194 10.9031C23.0979 10.9246 23.1773 10.9348 23.2559 10.9348V10.7348ZM23.6783 10.5906C23.554 10.6854 23.4065 10.7348 23.2559 10.7348V10.9348C23.4508 10.9348 23.6408 10.8707 23.7995 10.7497L23.6783 10.5906ZM23.9526 10.0329C23.9526 10.254 23.8526 10.4569 23.678 10.5908L23.7998 10.7495C24.0238 10.5776 24.1526 10.316 24.1526 10.0329H23.9526ZM23.9526 9.1675V10.0329H24.1526V9.1675H23.9526ZM23.4535 8.49599C23.752 8.58435 23.9526 8.85313 23.9526 9.1675H24.1526C24.1526 8.76514 23.8943 8.41789 23.5103 8.30422L23.4535 8.49599ZM23.2326 8.43319C23.3141 8.45554 23.3885 8.47684 23.4536 8.49603L23.5101 8.30418C23.4439 8.28467 23.3683 8.26303 23.2855 8.24032L23.2326 8.43319ZM17.324 2.58412C20.3575 3.36627 22.6118 5.60093 23.161 8.3563L23.3571 8.31721C22.7909 5.47656 20.4715 3.18911 17.3739 2.39045L17.324 2.58412ZM17.2687 2.08843L17.2491 2.48232L17.4489 2.49226L17.4685 2.09837L17.2687 2.08843ZM17.2265 1.95487C17.2562 1.99313 17.2712 2.04037 17.2687 2.08826L17.4685 2.09854C17.4734 2.00223 17.4433 1.90792 17.3845 1.83221L17.2265 1.95487ZM15.0084 1.1C16.5528 1.1 17.2097 1.93282 17.2261 1.95425L17.385 1.83283C17.3447 1.78004 16.6349 0.9 15.0084 0.9V1.1ZM12.7905 1.95426C12.8073 1.93263 13.4641 1.1 15.0084 1.1V0.9C13.3817 0.9 12.6724 1.78021 12.6325 1.83173L12.7905 1.95426ZM12.7483 2.08808C12.746 2.03956 12.761 1.99211 12.7904 1.9545L12.6327 1.83149C12.5735 1.90733 12.544 2.00195 12.5486 2.09763L12.7483 2.08808ZM12.7682 2.49003L12.7483 2.08792L12.5486 2.09779L12.5684 2.4999L12.7682 2.49003ZM6.85789 8.34825C7.40753 5.61252 9.65932 3.38453 12.6936 2.59171L12.643 2.39821C9.54576 3.20749 7.22862 5.48764 6.66181 8.30885L6.85789 8.34825ZM6.5361 8.49571C6.60817 8.47429 6.6937 8.4504 6.78631 8.42499L6.73339 8.23211C6.64053 8.2576 6.55331 8.28195 6.47912 8.304L6.5361 8.49571ZM6.03689 9.16725C6.03689 8.85279 6.23754 8.58383 6.53592 8.49576L6.4793 8.30395C6.09516 8.41733 5.83689 8.76491 5.83689 9.16725H6.03689ZM6.03689 10.0327V9.16725H5.83689V10.0327H6.03689ZM6.31144 10.5905C6.13673 10.4566 6.03689 10.2538 6.03689 10.0327H5.83689C5.83689 10.3157 5.96544 10.5773 6.18976 10.7493L6.31144 10.5905ZM6.91744 10.7099C6.70557 10.767 6.48511 10.7232 6.31131 10.5904L6.18989 10.7494C6.41299 10.9198 6.69753 10.9763 6.96949 10.903L6.91744 10.7099ZM7.15591 10.6478C7.07157 10.6692 6.99178 10.6898 6.91741 10.7099L6.96953 10.903C7.04247 10.8833 7.12112 10.863 7.20529 10.8416L7.15591 10.6478ZM7.38486 12.5582C7.33126 11.9651 7.29588 11.3568 7.28057 10.7422L7.08063 10.7472C7.09606 11.3661 7.13168 11.9788 7.18567 12.5762L7.38486 12.5582ZM7.29096 12.6707C7.29898 12.6681 7.3089 12.665 7.31884 12.6614L7.25169 12.473C7.2455 12.4752 7.23883 12.4774 7.23026 12.4801L7.29096 12.6707ZM7.26314 12.6801C7.27043 12.6773 7.27876 12.6746 7.29097 12.6707L7.23025 12.4801C7.21926 12.4836 7.20439 12.4883 7.18974 12.4941L7.26314 12.6801ZM6.23451 15.5998C5.78597 14.3791 6.26548 13.0774 7.26343 12.68L7.18945 12.4942C6.06505 12.9419 5.57122 14.3746 6.04678 15.6688L6.23451 15.5998ZM8.23186 17.1825C7.39181 17.1717 6.58684 16.5589 6.23451 15.5998L6.04678 15.6688C6.42202 16.6903 7.29101 17.3704 8.22929 17.3825L8.23186 17.1825ZM8.80651 18.2942C8.63609 18.0099 8.47459 17.6561 8.32442 17.2479L8.13672 17.317C8.28967 17.7327 8.45617 18.0988 8.63497 18.3971L8.80651 18.2942ZM12.8785 21.6069C10.9583 20.8869 9.44362 19.3566 8.8065 18.2942L8.63498 18.3971C9.29244 19.4934 10.8407 21.0564 12.8083 21.7942L12.8785 21.6069ZM12.9352 23.8119L12.9434 21.7009L12.7434 21.7002L12.7352 23.8111L12.9352 23.8119ZM3.70272 35.1716C5.64065 27.541 10.1345 24.8504 12.8679 23.906L12.8026 23.717C10.0148 24.6801 5.46564 27.4175 3.50887 35.1224L3.70272 35.1716ZM3.70133 35.1768L3.70231 35.1732L3.50928 35.1209L3.50829 35.1245L3.70133 35.1768ZM3.70206 35.1728C3.70113 35.178 3.69977 35.1821 3.70038 35.1801L3.50924 35.1212C3.50901 35.122 3.50679 35.1288 3.50529 35.1371L3.70206 35.1728ZM3.38228 36.6095C3.47896 36.1151 3.58454 35.6371 3.70061 35.1796L3.50675 35.1304C3.38964 35.5921 3.28327 36.0737 3.186 36.5711L3.38228 36.6095ZM1.30149 36.6897L3.28412 36.6903L3.28417 36.4903L1.30154 36.4897L1.30149 36.6897ZM1.1 36.8914C1.1 36.7799 1.19034 36.6897 1.30152 36.6897V36.4897C1.07992 36.4897 0.9 36.6694 0.9 36.8914H1.1ZM1.1 38.6931V36.8914H0.9V38.6931H1.1ZM1.30152 38.8947C1.1904 38.8947 1.1 38.8043 1.1 38.6931H0.9C0.9 38.9147 1.07986 39.0947 1.30152 39.0947V38.8947ZM9.90353 38.896L1.30153 38.8947L1.3015 39.0947L9.9035 39.096L9.90353 38.896ZM9.94158 38.9023C9.94055 38.902 9.92565 38.8969 9.90769 38.8961L9.89935 39.0959C9.89276 39.0957 9.88769 39.0946 9.88493 39.094C9.88264 39.0934 9.88091 39.0929 9.88283 39.0935L9.94158 38.9023ZM9.92154 38.8997C9.92931 38.8997 9.93537 38.9008 9.93876 38.9016C9.94158 38.9022 9.94372 38.903 9.9416 38.9023L9.88282 39.0935C9.88376 39.0938 9.90087 39.0997 9.92154 39.0997V38.8997ZM9.90147 38.9023C9.89935 38.903 9.90149 38.9022 9.90431 38.9016C9.9077 38.9008 9.91376 38.8997 9.92154 38.8997V39.0997C9.9422 39.0997 9.95931 39.0938 9.96025 39.0935L9.90147 38.9023ZM9.93538 38.8961C9.91742 38.8969 9.90252 38.902 9.90149 38.9023L9.96024 39.0935C9.96216 39.0929 9.96043 39.0934 9.95814 39.094C9.95539 39.0946 9.95031 39.0957 9.94372 39.0959L9.93538 38.8961ZM11.1804 38.8963L9.93957 38.896L9.93953 39.096L11.1803 39.0963L11.1804 38.8963ZM11.2193 38.903C11.2185 38.9027 11.2032 38.8972 11.1847 38.8964L11.176 39.0962C11.169 39.0959 11.1635 39.0948 11.1605 39.094C11.158 39.0934 11.1561 39.0927 11.158 39.0933L11.2193 38.903ZM11.1976 38.9C11.2058 38.9 11.2123 38.9012 11.2159 38.9021C11.219 38.9028 11.2214 38.9036 11.2193 38.903L11.158 39.0933C11.1587 39.0936 11.1762 39.1 11.1976 39.1V38.9ZM11.1784 38.9024C11.1762 38.903 11.1782 38.9024 11.181 38.9018C11.1843 38.901 11.1901 38.9 11.1976 38.9V39.1C11.2181 39.1 11.235 39.0942 11.2363 39.0938L11.1784 38.9024ZM11.1757 38.9032L11.1757 38.9032L11.239 39.093H11.239L11.1757 38.9032ZM11.1834 38.9009L11.1798 38.902L11.2349 39.0942L11.2386 39.0932L11.1834 38.9009ZM11.1953 38.8982L11.1916 38.8989L11.2305 39.0951L11.2342 39.0944L11.1953 38.8982ZM19.1812 38.8976L11.2148 38.8963L11.2148 39.0963L19.1812 39.0976L19.1812 38.8976ZM19.2152 38.9028C19.2149 38.9027 19.2104 38.9013 19.2052 38.9002C19.1995 38.899 19.1912 38.8976 19.1812 38.8976V39.0976C19.1733 39.0976 19.1669 39.0965 19.1629 39.0957C19.1596 39.095 19.1569 39.0941 19.1584 39.0946L19.2152 38.9028ZM19.2155 38.9029L19.2129 38.9021L19.1607 39.0952L19.1634 39.0959L19.2155 38.9029ZM19.2081 38.9011L19.2067 38.9009L19.1722 39.0979L19.1736 39.0981L19.2081 38.9011ZM19.1989 38.9L19.1974 38.8998L19.1843 39.0994L19.1858 39.0995L19.1989 38.9ZM19.1735 38.9018C19.1774 38.9009 19.184 38.8997 19.1924 38.8997V39.0997C19.2028 39.0997 19.2114 39.0983 19.2172 39.097L19.1735 38.9018ZM19.1717 38.9022L19.1691 38.9029L19.2215 39.0959L19.2241 39.0952L19.1717 38.9022ZM19.2035 38.8976C19.1935 38.8976 19.1853 38.899 19.1795 38.9002C19.1743 38.9013 19.1698 38.9027 19.1695 38.9028L19.2263 39.0946C19.2278 39.0941 19.2251 39.095 19.2218 39.0957C19.2178 39.0965 19.2115 39.0976 19.2035 39.0976V38.8976ZM20.4586 38.8979L19.2035 38.8976L19.2035 39.0976L20.4586 39.0979L20.4586 38.8979ZM20.4943 38.9037C20.494 38.9036 20.4894 38.9021 20.484 38.9008C20.4779 38.8994 20.4692 38.8979 20.4586 38.8979V39.0979C20.4499 39.0979 20.4429 39.0966 20.4385 39.0956C20.4348 39.0947 20.4318 39.0937 20.4332 39.0942L20.4943 38.9037ZM20.4689 38.9C20.4776 38.9 20.4846 38.9013 20.489 38.9023C20.4927 38.9032 20.4957 38.9042 20.4943 38.9037L20.4332 39.0942C20.4335 39.0942 20.4381 39.0958 20.4436 39.0971C20.4496 39.0985 20.4584 39.1 20.4689 39.1V38.9ZM20.4471 38.9028C20.4503 38.9019 20.4583 38.9 20.4689 38.9V39.1C20.4822 39.1 20.4926 39.0976 20.4982 39.0961L20.4471 38.9028ZM20.4491 38.9022L20.4451 38.9033L20.5001 39.0956L20.5041 39.0945L20.4491 38.9022ZM20.4628 38.8992L20.4601 38.8997L20.493 39.097L20.4957 39.0965L20.4628 38.8992ZM28.4593 38.8992L20.4793 38.8979L20.4792 39.0979L28.4592 39.0992L28.4593 38.8992ZM28.4916 38.9043C28.4916 38.9043 28.4904 38.9039 28.4889 38.9035C28.4874 38.903 28.4851 38.9024 28.4823 38.9018C28.4764 38.9005 28.4686 38.8992 28.4593 38.8992V39.0992C28.4428 39.0992 28.4299 39.0945 28.4313 39.095L28.4916 38.9043ZM28.4632 38.9C28.4726 38.9 28.4801 38.9014 28.4849 38.9025C28.4891 38.9034 28.4925 38.9046 28.4915 38.9043L28.4314 39.095C28.4314 39.095 28.4317 39.0951 28.432 39.0952C28.4324 39.0953 28.4329 39.0955 28.4336 39.0957C28.4349 39.0961 28.4371 39.0967 28.4397 39.0973C28.4451 39.0986 28.4533 39.1 28.4632 39.1V38.9ZM28.4672 38.8992C28.4571 38.8992 28.449 38.9007 28.4443 38.9018C28.4419 38.9023 28.4399 38.9028 28.4387 38.9032C28.4376 38.9035 28.4366 38.9038 28.4365 38.9038C28.4356 38.9041 28.4386 38.9031 28.4423 38.9023C28.4464 38.9014 28.4538 38.9 28.4632 38.9V39.1C28.4734 39.1 28.4814 39.0985 28.4861 39.0974C28.4886 39.0969 28.4905 39.0964 28.4918 39.096C28.4929 39.0957 28.4939 39.0954 28.4939 39.0954C28.4949 39.0951 28.4918 39.0961 28.4881 39.0969C28.4841 39.0978 28.4767 39.0992 28.4672 39.0992V38.8992ZM29.7364 38.8995L28.4672 38.8992L28.4672 39.0992L29.7363 39.0995L29.7364 38.8995ZM29.7393 38.9C29.75 38.9 29.7583 38.9018 29.762 38.9027C29.764 38.9031 29.7654 38.9036 29.7658 38.9037C29.7661 38.9038 29.7663 38.9038 29.7661 38.9038C29.7661 38.9038 29.7658 38.9037 29.7655 38.9036C29.7621 38.9026 29.751 38.8995 29.7363 38.8995V39.0995C29.723 39.0995 29.713 39.0966 29.7105 39.0959C29.7103 39.0958 29.7101 39.0958 29.7102 39.0958C29.7102 39.0958 29.7105 39.0959 29.7108 39.096C29.7115 39.0962 29.7132 39.0966 29.7153 39.0972C29.7195 39.0982 29.7281 39.1 29.7393 39.1V38.9ZM29.7422 38.8995C29.7367 38.8995 29.7322 38.8999 29.7292 38.9003C29.7261 38.9007 29.7236 38.9012 29.7219 38.9015C29.7201 38.9018 29.7187 38.9022 29.7179 38.9024C29.7172 38.9025 29.7165 38.9027 29.7164 38.9027C29.7157 38.9029 29.7178 38.9024 29.7203 38.9019C29.7218 38.9016 29.7241 38.9011 29.727 38.9008C29.7297 38.9004 29.734 38.9 29.7393 38.9V39.1C29.7447 39.1 29.7492 39.0996 29.7522 39.0992C29.7553 39.0988 29.7579 39.0983 29.7596 39.098C29.7613 39.0976 29.7627 39.0973 29.7635 39.0971C29.7643 39.0969 29.765 39.0968 29.765 39.0967C29.7658 39.0965 29.7636 39.0971 29.7611 39.0976C29.7597 39.0979 29.7574 39.0983 29.7545 39.0987C29.7517 39.099 29.7474 39.0995 29.7422 39.0995V38.8995ZM33.6987 38.8995H29.7422V39.0995H33.6987V38.8995ZM33.8407 38.8408C33.8036 38.8783 33.7525 38.8995 33.6987 38.8995V39.0995C33.805 39.0995 33.9076 39.0576 33.9828 38.9816L33.8407 38.8408ZM33.9 38.6981C33.9 38.7515 33.8788 38.8025 33.8409 38.8407L33.9827 38.9817C34.0576 38.9064 34.1 38.8048 34.1 38.6981H33.9ZM33.9 36.8917V38.6981H34.1V36.8917H33.9ZM33.6987 36.6898C33.8103 36.6898 33.9002 36.7798 33.9 36.8915L34.1 36.8918C34.1003 36.6696 33.921 36.4898 33.6987 36.4898V36.6898ZM33.7979 36.6029L33.7979 36.6025L33.5996 36.577L33.5995 36.5774L33.7979 36.6029ZM8.74861 28.8385L8.29528 30.0787L8.48312 30.1474L8.93646 28.9071L8.74861 28.8385ZM10.6029 29.413L8.87702 28.7789L8.80805 28.9667L10.5339 29.6007L10.6029 29.413ZM11.2808 30.3648C11.0069 30.2715 10.7929 29.9915 10.6654 29.4825L10.4714 29.5311C10.6052 30.065 10.8464 30.4281 11.2163 30.5541L11.2808 30.3648ZM11.4915 30.3995C11.4235 30.3995 11.3531 30.3894 11.2807 30.3648L11.2164 30.5542C11.3109 30.5863 11.4032 30.5995 11.4915 30.5995V30.3995ZM12.0875 30.1522C12.0398 30.1951 11.7934 30.3995 11.4915 30.3995V30.5995C11.8727 30.5995 12.1678 30.349 12.2214 30.3008L12.0875 30.1522ZM12.2179 29.9882C12.1445 30.0883 12.0861 30.1531 12.0813 30.1583L12.2275 30.2947C12.2375 30.284 12.301 30.2131 12.3792 30.1064L12.2179 29.9882ZM12.586 29.985C12.4991 29.9821 12.4108 29.9705 12.3209 29.9498L12.2762 30.1448C12.3781 30.1682 12.479 30.1815 12.5792 30.1849L12.586 29.985ZM13.2211 30.3612C13.0377 30.2916 12.8459 30.1757 12.6469 30.0084L12.5182 30.1615C12.7305 30.3399 12.9414 30.4689 13.1501 30.5482L13.2211 30.3612ZM13.255 30.3807C13.2527 30.379 13.2428 30.3715 13.2304 30.3653L13.1409 30.5442C13.138 30.5427 13.1361 30.5415 13.1356 30.5411C13.1353 30.5409 13.1352 30.5409 13.1372 30.5423L13.255 30.3807ZM13.2419 30.375C13.2486 30.3771 13.2532 30.3797 13.2553 30.381C13.2569 30.382 13.2579 30.3828 13.255 30.3807L13.1372 30.5423C13.14 30.5443 13.157 30.5577 13.1802 30.5652L13.2419 30.375ZM14.482 30.8303L13.2455 30.3762L13.1766 30.564L14.4131 31.018L14.482 30.8303ZM14.5129 31.0369L14.5415 30.9584L14.3536 30.8899L14.325 30.9683L14.5129 31.0369ZM14.4891 31.0741C14.4891 31.0741 14.4892 31.074 14.4893 31.0739C14.4894 31.0738 14.4896 31.0737 14.4898 31.0735C14.4902 31.0731 14.4908 31.0724 14.4916 31.0716C14.493 31.0701 14.4957 31.0671 14.4988 31.063C14.5032 31.0571 14.519 31.0354 14.519 31.0026H14.319C14.319 30.9701 14.3346 30.9486 14.3388 30.943C14.3438 30.9363 14.3492 30.9312 14.3477 30.9327L14.4891 31.0741ZM14.2201 31.8385L14.5124 31.0377L14.3245 30.9691L14.0322 31.7699L14.2201 31.8385ZM14.0887 32.1987L14.2201 31.8385L14.0322 31.7699L13.9008 32.1301L14.0887 32.1987ZM11.6097 31.3976L13.9604 32.2583L14.0291 32.0705L11.6785 31.2098L11.6097 31.3976ZM11.6122 31.3985L11.6132 31.3988L11.675 31.2086L11.6741 31.2083L11.6122 31.3985ZM11.5951 31.3916C11.6038 31.3959 11.611 31.3981 11.6126 31.3986L11.6737 31.2082C11.6728 31.2079 11.6746 31.2084 11.6766 31.2092C11.6792 31.2102 11.6819 31.2113 11.6846 31.2127L11.5951 31.3916ZM8.35484 30.2069L11.6055 31.396L11.6742 31.2082L8.42355 30.0191L8.35484 30.2069ZM14.1731 29.2741C14.1453 29.3516 14.0874 29.4788 14.004 29.5941C13.9191 29.7115 13.818 29.8026 13.708 29.8321L13.7598 30.0252C13.9354 29.9781 14.0707 29.8431 14.166 29.7114C14.2628 29.5776 14.3287 29.4327 14.3613 29.3416L14.1731 29.2741ZM14.1672 29.3103L14.1672 29.3103L14.3672 29.3054L14.3672 29.3054L14.1672 29.3103ZM13.9897 28.5402C14.1353 28.6944 14.2038 28.9415 14.1677 29.2977L14.3667 29.3179C14.4058 28.932 14.3366 28.6161 14.1351 28.4029L13.9897 28.5402ZM13.8261 28.4182C13.8881 28.4527 13.9432 28.4908 13.9896 28.5401L14.1352 28.403C14.0698 28.3335 13.9956 28.2837 13.9235 28.2435L13.8261 28.4182ZM13.8047 29.5693C14.0283 29.2361 14.1177 28.7702 13.9702 28.3008L13.7794 28.3608C13.9085 28.7715 13.8289 29.1744 13.6386 29.4578L13.8047 29.5693ZM13.4089 29.9623C13.5607 29.8624 13.6959 29.7314 13.8047 29.5693L13.6386 29.4578C13.545 29.5974 13.429 29.7097 13.2989 29.7953L13.4089 29.9623ZM13.407 29.7928L13.3934 29.7869L13.3144 29.9707L13.3281 29.9766L13.407 29.7928ZM13.4502 29.8103C13.4375 29.8059 13.4244 29.8003 13.4072 29.7929L13.3279 29.9765C13.3439 29.9834 13.3639 29.9921 13.3848 29.9993L13.4502 29.8103ZM13.4178 29.8048H13.4175V30.0048H13.4178V29.8048ZM13.418 29.8048H13.4178V30.0048H13.418V29.8048ZM13.708 29.8321C13.6327 29.8522 13.5466 29.8437 13.4509 29.8104L13.3851 29.9992C13.5041 30.0406 13.6331 30.0592 13.7597 30.0252L13.708 29.8321ZM13.3048 29.2331C13.4931 28.9522 13.5435 28.4717 13.1244 28.0298L12.9793 28.1674C13.3323 28.5398 13.2762 28.9165 13.1386 29.1217L13.3048 29.2331ZM12.5833 29.5855C12.9201 29.6029 13.1697 29.4344 13.3047 29.2331L13.1387 29.1217C13.0379 29.2719 12.8519 29.3991 12.5936 29.3858L12.5833 29.5855ZM12.5529 28.849C12.5886 29.0632 12.5553 29.2673 12.4935 29.4543L12.6834 29.5171C12.752 29.3097 12.7928 29.0716 12.7502 28.8161L12.5529 28.849ZM11.8911 27.9468C12.2777 28.1984 12.4948 28.5013 12.5529 28.849L12.7501 28.8161C12.6805 28.3994 12.4207 28.0528 12.0002 27.7791L11.8911 27.9468ZM13.1245 28.0298C12.9143 27.808 12.6912 27.7055 12.4758 27.6792C12.2626 27.6532 12.0656 27.703 11.9064 27.771L11.985 27.9549C12.1231 27.8959 12.2838 27.8573 12.4516 27.8778C12.6173 27.898 12.7987 27.9767 12.9793 28.1674L13.1245 28.0298ZM13.0916 28.1904L13.0917 28.1903L13.0121 28.0068L13.0121 28.0069L13.0916 28.1904ZM11.3844 28.348C11.7455 28.5334 11.9218 28.7388 11.9576 28.9471L12.1547 28.9132C12.1031 28.6126 11.8581 28.3664 11.4758 28.1701L11.3844 28.348ZM11.3342 28.2306L11.3342 28.2306L11.526 28.2874L11.526 28.2874L11.3342 28.2306ZM10.3993 28.2135C10.6816 28.1174 11.0103 28.1556 11.3844 28.3479L11.4758 28.1701C11.0693 27.9611 10.6832 27.9055 10.3348 28.0241L10.3993 28.2135ZM9.83839 28.6309C9.96516 28.474 10.1525 28.2974 10.3993 28.2135L10.3349 28.0241C10.0379 28.1252 9.82152 28.3335 9.6828 28.5052L9.83839 28.6309ZM10.9627 28.9031L9.79507 28.4742L9.72612 28.6619L10.8938 29.0908L10.9627 28.9031ZM10.9996 28.9235C10.9974 28.9219 10.9823 28.91 10.9617 28.9027L10.8948 29.0912C10.8886 29.089 10.8842 29.0864 10.882 29.0851C10.8803 29.0841 10.8792 29.0832 10.8816 29.085L10.9996 28.9235ZM10.9942 28.9205C10.9975 28.9221 10.9997 28.9236 11.0005 28.9241C11.001 28.9245 11.0013 28.9247 10.9996 28.9235L10.8816 29.085C10.8834 29.0862 10.8928 29.0934 10.9047 29.0994L10.9942 28.9205ZM11.0796 28.9738C11.0509 28.9496 11.0207 28.9322 10.9901 28.9186L10.9088 29.1013C10.9259 29.1089 10.9392 29.117 10.9507 29.1267L11.0796 28.9738ZM11.1205 29.0145C11.1095 29.0019 11.0961 28.9875 11.0792 28.9734L10.9511 29.127C10.9565 29.1315 10.9622 29.1372 10.9702 29.1464L11.1205 29.0145ZM11.1743 29.0898C11.1582 29.06 11.1395 29.0354 11.1194 29.0132L10.9714 29.1477C10.983 29.1605 10.9913 29.172 10.9981 29.1845L11.1743 29.0898ZM11.2001 29.1517C11.1945 29.1348 11.1866 29.1121 11.1737 29.0888L10.9987 29.1856C11.0022 29.1919 11.0054 29.2 11.0104 29.2149L11.2001 29.1517ZM11.2013 29.1534C11.2 29.1507 11.1995 29.1497 11.1991 29.149C11.1989 29.1484 11.1992 29.1491 11.1997 29.1505L11.0108 29.2161C11.0152 29.2288 11.0208 29.2396 11.0229 29.2436L11.2013 29.1534ZM11.2191 29.2021C11.2145 29.178 11.204 29.1587 11.2013 29.1534L11.0229 29.2436C11.0249 29.2477 11.0251 29.2481 11.025 29.248C11.0248 29.2474 11.0236 29.2444 11.0227 29.2398L11.2191 29.2021ZM11.4758 29.7944C11.4755 29.7943 11.4666 29.7912 11.4517 29.7787C11.4365 29.7661 11.4144 29.7432 11.3886 29.7028C11.3366 29.6213 11.2715 29.4717 11.219 29.2018L11.0227 29.24C11.1325 29.8047 11.3099 29.9486 11.4103 29.9834L11.4758 29.7944ZM11.6722 29.7159C11.6649 29.7221 11.6262 29.7504 11.5785 29.7722C11.5261 29.7962 11.4907 29.7994 11.475 29.7942L11.4111 29.9837C11.5038 30.015 11.6013 29.9817 11.6617 29.9541C11.7267 29.9244 11.7809 29.886 11.8016 29.8684L11.6722 29.7159ZM11.6645 29.7227C11.6634 29.7241 11.6619 29.7258 11.6609 29.7271C11.6605 29.7276 11.6592 29.7291 11.6578 29.7309C11.6575 29.7313 11.655 29.7345 11.6524 29.7387C11.6521 29.7392 11.6467 29.7474 11.6426 29.7588C11.6418 29.7611 11.633 29.7837 11.639 29.8125C11.6427 29.8306 11.6532 29.8543 11.6768 29.8721C11.6993 29.889 11.7227 29.8922 11.7369 29.8922V29.6922C11.7511 29.6922 11.7745 29.6953 11.797 29.7122C11.8206 29.73 11.831 29.7537 11.8348 29.7718C11.8408 29.8006 11.832 29.8232 11.8312 29.8254C11.8271 29.8369 11.8218 29.845 11.8215 29.8455C11.8189 29.8496 11.8165 29.8526 11.8164 29.8528C11.8157 29.8537 11.8152 29.8543 11.8151 29.8545C11.815 29.8546 11.8149 29.8547 11.8148 29.8547C11.8148 29.8548 11.8148 29.8548 11.8148 29.8548C11.8148 29.8548 11.8148 29.8548 11.8148 29.8548C11.8148 29.8548 11.8148 29.8548 11.8148 29.8548C11.8148 29.8548 11.8148 29.8548 11.8148 29.8548C11.8149 29.8547 11.8149 29.8547 11.815 29.8546C11.8151 29.8544 11.8153 29.8542 11.8155 29.854C11.8159 29.8535 11.8164 29.8529 11.8171 29.8521L11.6645 29.7227ZM11.9576 28.9471C11.9869 29.1172 11.9294 29.2958 11.8512 29.4457C11.7739 29.5937 11.6834 29.7004 11.6645 29.7227L11.8171 29.8521C11.839 29.8263 11.9409 29.7061 12.0285 29.5383C12.115 29.3725 12.1949 29.1465 12.1547 28.9132L11.9576 28.9471ZM17.2718 33.4449C17.0641 33.5172 16.9545 33.6716 16.8993 33.823C16.8451 33.9718 16.841 34.1227 16.8438 34.2074L17.0437 34.2007C17.0413 34.1272 17.0456 34.0056 17.0872 33.8915C17.1278 33.78 17.2013 33.6812 17.3375 33.6337L17.2718 33.4449ZM18.0892 33.6649C18.0585 33.6238 17.7713 33.2713 17.2718 33.4448L17.3375 33.6337C17.706 33.5057 17.9111 33.7607 17.9291 33.7848L18.0892 33.6649ZM18.3059 33.744C18.2238 33.7646 18.1386 33.7337 18.0905 33.6666L17.9279 33.7831C18.025 33.9185 18.1947 33.9782 18.3547 33.9379L18.3059 33.744ZM18.4543 33.5714C18.4451 33.6544 18.3857 33.7231 18.305 33.7442L18.3556 33.9377C18.5165 33.8957 18.6347 33.7587 18.6531 33.5935L18.4543 33.5714ZM19.0464 32.9307C18.782 32.9437 18.6319 33.1082 18.5521 33.2598C18.4737 33.4087 18.456 33.556 18.4543 33.5716L18.6531 33.5934C18.6537 33.5873 18.6679 33.4692 18.7291 33.353C18.789 33.2393 18.8865 33.1388 19.0561 33.1305L19.0464 32.9307ZM19.6426 33.1922C19.5393 33.0799 19.3373 32.9133 19.0453 32.9308L19.0572 33.1304C19.2612 33.1182 19.409 33.2337 19.4954 33.3276L19.6426 33.1922ZM19.3708 34.1065L19.6631 33.2937L19.4749 33.2261L19.1826 34.0388L19.3708 34.1065ZM19.4922 34.3644C19.3875 34.3269 19.333 34.2117 19.3708 34.1064L19.1826 34.0388C19.1076 34.2479 19.2157 34.4778 19.4248 34.5527L19.4922 34.3644ZM21.4268 35.0605L19.4923 34.3645L19.4246 34.5527L21.3591 35.2487L21.4268 35.0605ZM17.9716 35.0468C18.8952 35.3849 20.2549 35.4485 21.4096 35.2532L21.3763 35.056C20.2455 35.2472 18.9228 35.182 18.0404 34.859L17.9716 35.0468ZM16.8628 34.2628C17.0888 34.5747 17.4401 34.8519 17.9716 35.0468L18.0404 34.859C17.5412 34.6759 17.2244 34.4209 17.0248 34.1455L16.8628 34.2628ZM16.8629 34.2629L16.8629 34.2629L17.0247 34.1453L17.0247 34.1453L16.8629 34.2629ZM19.8429 32.5761C19.6432 32.4349 19.3704 32.3131 19.0176 32.3281L19.0261 32.5279C19.3245 32.5152 19.5546 32.6172 19.7274 32.7394L19.8429 32.5761ZM19.9962 31.7757L19.6911 32.6239L19.8793 32.6916L20.1844 31.8434L19.9962 31.7757ZM19.2743 31.4814C19.5154 31.57 19.7473 31.7028 20.0352 31.893L20.1455 31.7261C19.8532 31.5331 19.6061 31.3902 19.3432 31.2937L19.2743 31.4814ZM17.0514 32.1107C17.2631 31.8539 17.5489 31.5985 17.9145 31.4561C18.2776 31.3148 18.7269 31.282 19.2745 31.4815L19.343 31.2936C18.7516 31.0781 18.2521 31.1101 17.8419 31.2698C17.4342 31.4285 17.1223 31.7103 16.8971 31.9834L17.0514 32.1107ZM16.6035 32.2326C16.7633 32.2913 16.9435 32.2422 17.0516 32.1105L16.8969 31.9836C16.8428 32.0496 16.7523 32.0742 16.6725 32.0449L16.6035 32.2326ZM14.8462 31.5886L16.6036 32.2327L16.6724 32.0449L14.915 31.4008L14.8462 31.5886ZM14.8142 31.9682L14.9745 31.5289L14.7866 31.4604L14.6263 31.8996L14.8142 31.9682ZM14.7773 32.0688L14.8142 31.9683L14.6264 31.8995L14.5896 31.9999L14.7773 32.0688ZM16.4485 32.5731L14.7178 31.9404L14.6491 32.1283L16.3798 32.761L16.4485 32.5731ZM16.7114 32.9732C16.7213 32.7968 16.615 32.6336 16.4483 32.5731L16.38 32.761C16.4629 32.7911 16.5167 32.8728 16.5117 32.9621L16.7114 32.9732ZM16.7177 33.3087C16.7068 33.1928 16.7051 33.08 16.7114 32.9736L16.5117 32.9617C16.5048 33.0785 16.5068 33.2016 16.5186 33.3274L16.7177 33.3087ZM17.0728 32.8753C16.835 32.9582 16.6654 33.0971 16.5397 33.256L16.6966 33.3801C16.802 33.2469 16.9413 33.1329 17.1386 33.0642L17.0728 32.8753ZM18.1501 32.9499C17.8775 32.8044 17.5059 32.7246 17.0728 32.8753L17.1386 33.0642C17.5114 32.9345 17.825 33.0031 18.0559 33.1264L18.1501 32.9499ZM19.017 32.3281C18.4926 32.3536 18.18 32.6714 18.0141 32.9922L18.1918 33.0841C18.3354 32.8064 18.5936 32.5489 19.0267 32.5278L19.017 32.3281ZM14.1732 32.7538C14.1501 32.7538 14.1267 32.7499 14.1038 32.7416L14.0353 32.9295C14.0808 32.9461 14.1274 32.9538 14.1732 32.9538V32.7538ZM14.3622 32.6218C14.3326 32.7029 14.2555 32.7538 14.1732 32.7538V32.9538C14.3367 32.9538 14.4907 32.8531 14.5501 32.6904L14.3622 32.6218ZM14.382 32.5672L14.3621 32.622L14.5501 32.6902L14.57 32.6353L14.382 32.5672ZM16.0394 33.0661L14.5103 32.5073L14.4417 32.6952L15.9707 33.2539L16.0394 33.0661ZM17.8329 35.4257C17.1092 35.1607 16.6831 34.7665 16.435 34.3564C16.1859 33.9448 16.1117 33.5097 16.105 33.1581L15.9051 33.1619C15.9122 33.5371 15.9914 34.0096 16.2639 34.46C16.5374 34.9119 17.0012 35.3341 17.7641 35.6135L17.8329 35.4257ZM20.0731 35.7684C19.2548 35.7684 18.4555 35.6533 17.8328 35.4257L17.7642 35.6135C18.4149 35.8514 19.2388 35.9684 20.0731 35.9684V35.7684ZM21.8983 35.5662C21.3294 35.6997 20.6981 35.7684 20.0731 35.7684V35.9684C20.712 35.9684 21.3588 35.8982 21.944 35.7609L21.8983 35.5662ZM21.8688 36.5906C21.8701 36.2998 21.9268 35.9863 22.0168 35.6928L21.8256 35.6342C21.7312 35.9419 21.6702 36.2752 21.6688 36.5897L21.8688 36.5906ZM8.71797 36.6904L21.7688 36.6902L21.7688 36.4902L8.71797 36.4904L8.71797 36.6904ZM10.4306 33.8238C10.1018 34.7152 9.6914 35.8105 8.6619 36.5076L8.77404 36.6732C9.86363 35.9354 10.2916 34.7786 10.6183 33.893L10.4306 33.8238ZM10.5243 33.5724L10.4307 33.8235L10.6181 33.8933L10.7117 33.6423L10.5243 33.5724ZM11.5512 31.8773C11.3147 32.1605 10.8099 32.8162 10.5244 33.572L10.7115 33.6427C10.9851 32.9184 11.4728 32.2832 11.7048 32.0055L11.5512 31.8773ZM14.1039 32.7417L11.6624 31.8475L11.5936 32.0353L14.0352 32.9295L14.1039 32.7417ZM10.7967 37.1939V38.3936H10.9967V37.1939H10.7967ZM10.2235 37.2939H10.8967V37.0939H10.2235V37.2939ZM10.3235 38.3936V37.1939H10.1235V38.3936H10.3235ZM10.8967 38.2936H10.2235V38.4936H10.8967V38.2936ZM18.891 37.0936H11.4998V37.2936H18.891V37.0936ZM18.991 38.3949V37.1936H18.791V38.3949H18.991ZM11.4998 38.4935L18.891 38.4949L18.8911 38.2949L11.4998 38.2935L11.4998 38.4935ZM11.3998 37.1936V38.3935H11.5998V37.1936H11.3998ZM19.494 37.2936H20.1673V37.0936H19.494V37.2936ZM19.594 38.3949V37.1936H19.394V38.3949H19.594ZM20.1673 38.2949H19.494V38.4949H20.1673V38.2949ZM20.0673 37.1936V38.3949H20.2673V37.1936H20.0673ZM28.1618 37.0936H20.7706V37.2936H28.1618V37.0936ZM28.2618 38.396V37.1936H28.0618V38.396H28.2618ZM20.7706 38.4946L28.1618 38.496L28.1618 38.296L20.7706 38.2946L20.7706 38.4946ZM20.6706 37.1936V38.3946H20.8706V37.1936H20.6706ZM28.7648 37.2936H29.4381V37.0936H28.7648V37.2936ZM28.8648 38.3962V37.1936H28.6648V38.3962H28.8648ZM29.4381 38.2962H28.7648V38.4962H29.4381V38.2962ZM29.3381 37.1936V38.3962H29.5381V37.1936H29.3381ZM22.4934 35.547C22.3546 35.896 22.2729 36.2774 22.2712 36.5896L22.4712 36.5907C22.4727 36.3081 22.5478 35.9516 22.6793 35.6209L22.4934 35.547ZM25.4163 36.4961L22.6202 35.4899L22.5525 35.6781L25.3486 36.6843L25.4163 36.4961ZM22.3712 36.6902H25.3824V36.4902H22.3712V36.6902ZM27.7868 33.8282L26.8364 36.4725L27.0246 36.5401L27.975 33.8958L27.7868 33.8282ZM27.0168 33.6571L27.847 33.9561L27.9148 33.7679L27.0846 33.4689L27.0168 33.6571ZM26.929 34.2075L27.145 33.5963L26.9564 33.5297L26.7404 34.1409L26.929 34.2075ZM26.8549 34.3356C26.8872 34.2981 26.9128 34.2546 26.9293 34.2069L26.7402 34.1415C26.7323 34.1644 26.7198 34.186 26.7033 34.2053L26.8549 34.3356ZM26.5196 34.5785C26.6546 34.5169 26.768 34.4363 26.8548 34.3358L26.7034 34.2051C26.6387 34.2801 26.5502 34.3447 26.4366 34.3966L26.5196 34.5785ZM26.0478 34.6843C26.212 34.6843 26.3753 34.6502 26.5226 34.5771L26.4337 34.3979C26.317 34.4558 26.1846 34.4843 26.0478 34.4843V34.6843ZM25.2064 34.3557C25.429 34.5668 25.7427 34.6843 26.0478 34.6843V34.4843C25.7907 34.4843 25.5273 34.3844 25.344 34.2106L25.2064 34.3557ZM24.3714 34.4589C24.6917 34.5656 25.0353 34.5312 25.3238 34.3705L25.2265 34.1958C24.9868 34.3293 24.7014 34.358 24.4346 34.2691L24.3714 34.4589ZM24.1638 34.3653C24.231 34.4045 24.2995 34.4356 24.3722 34.4591L24.4338 34.2689C24.3756 34.25 24.3201 34.2249 24.2644 34.1925L24.1638 34.3653ZM23.6957 33.8786C23.8 34.0812 23.9626 34.2538 24.1656 34.3664L24.2626 34.1915C24.0957 34.0989 23.9605 33.956 23.8735 33.787L23.6957 33.8786ZM23.0577 33.9294C23.3078 34.0137 23.5745 34.0105 23.817 33.9274L23.7522 33.7382C23.5506 33.8073 23.3292 33.8099 23.1215 33.7399L23.0577 33.9294ZM22.347 33.3103C22.4896 33.5999 22.7491 33.8251 23.0576 33.9294L23.1216 33.7399C22.8626 33.6523 22.6451 33.463 22.5265 33.2219L22.347 33.3103ZM22.2884 32.4539C22.1921 32.735 22.2135 33.0393 22.3471 33.3103L22.5265 33.2219C22.4158 32.9973 22.399 32.7481 22.4776 32.5187L22.2884 32.4539ZM22.4776 31.9176L22.2887 32.453L22.4773 32.5196L22.6662 31.9841L22.4776 31.9176ZM20.8628 31.4427L22.5381 32.045L22.6057 31.8568L20.9304 31.2545L20.8628 31.4427ZM20.0403 34.027L20.9907 31.3825L20.8025 31.3148L19.8521 33.9594L20.0403 34.027ZM26.9643 36.4122L19.98 33.8991L19.9123 34.0873L26.8966 36.6004L26.9643 36.4122ZM24.8435 30.9089C24.7711 30.8791 24.7225 30.8104 24.7186 30.7316L24.5189 30.7415C24.5266 30.8975 24.6232 31.0345 24.7675 31.0938L24.8435 30.9089ZM25.0572 30.8705C24.9985 30.9239 24.9158 30.9388 24.8439 30.909L24.7672 31.0937C24.9125 31.154 25.0773 31.1228 25.1919 31.0183L25.0572 30.8705ZM25.6404 30.7462C25.4362 30.6758 25.2136 30.7257 25.0566 30.871L25.1925 31.0178C25.2967 30.9213 25.4424 30.8895 25.5753 30.9353L25.6404 30.7462ZM26.0315 31.27C26.0235 31.0307 25.8664 30.8204 25.639 30.7457L25.5766 30.9357C25.7239 30.9841 25.8264 31.121 25.8317 31.2767L26.0315 31.27ZM26.1189 31.4295C26.0662 31.3932 26.0338 31.334 26.0315 31.2697L25.8317 31.2769C25.8362 31.404 25.9003 31.5218 26.0055 31.5942L26.1189 31.4295ZM26.2987 31.4539C26.2384 31.4748 26.1717 31.4658 26.1189 31.4295L26.0055 31.5942C26.1107 31.6666 26.2437 31.6846 26.3641 31.6429L26.2987 31.4539ZM26.675 31.4495C26.5534 31.4095 26.4224 31.4115 26.299 31.4539L26.3639 31.643C26.4477 31.6143 26.5339 31.6137 26.6126 31.6395L26.675 31.4495ZM27.0694 31.9817C27.0665 31.7422 26.9081 31.5287 26.676 31.4498L26.6116 31.6392C26.7664 31.6917 26.8676 31.8324 26.8694 31.9841L27.0694 31.9817ZM26.3854 33.9371L27.0637 32.0162L26.8751 31.9496L26.1969 33.8706L26.3854 33.9371ZM26.2608 34.0343C26.2942 34.0191 26.3237 34.0031 26.3483 33.9859L26.234 33.8218C26.2221 33.8301 26.2039 33.8405 26.1779 33.8523L26.2608 34.0343ZM25.5924 33.8863C25.6631 33.9693 25.7757 34.0312 25.8921 34.0608C26.009 34.0905 26.1458 34.0918 26.264 34.0328L26.1747 33.8539C26.1122 33.885 26.0278 33.8889 25.9415 33.867C25.8547 33.8449 25.7823 33.8008 25.7446 33.7566L25.5924 33.8863ZM26.0313 32.4938L25.5742 33.7881L25.7628 33.8547L26.2198 32.5604L26.0313 32.4938ZM25.9083 32.2365C26.0134 32.2737 26.0683 32.3887 26.0312 32.4939L26.2199 32.5603C26.2936 32.3512 26.1842 32.1221 25.9751 32.048L25.9083 32.2365ZM25.6512 32.3596C25.6883 32.2548 25.8031 32.1999 25.9088 32.2367L25.9745 32.0478C25.766 31.9753 25.5369 32.0832 25.4627 32.2928L25.6512 32.3596ZM25.1712 33.719L25.6513 32.3595L25.4627 32.2929L24.9826 33.6524L25.1712 33.719ZM25.1346 33.7688C25.1389 33.7645 25.1414 33.7621 25.1437 33.7601L25.01 33.6113C25.004 33.6167 24.9984 33.6222 24.9947 33.6259L25.1346 33.7688ZM25.1338 33.7696L25.1338 33.7695L24.9954 33.6251L24.9954 33.6252L25.1338 33.7696ZM25.1086 33.7924C25.1196 33.7836 25.1292 33.7741 25.1346 33.7688L24.9946 33.6259C24.9879 33.6326 24.9854 33.6348 24.9836 33.6363L25.1086 33.7924ZM24.5597 33.8863C24.7489 33.9496 24.9543 33.9142 25.1081 33.7928L24.9842 33.6358C24.8841 33.7148 24.7493 33.7388 24.6232 33.6966L24.5597 33.8863ZM24.4643 33.8428C24.4971 33.8613 24.5272 33.8759 24.5611 33.8867L24.6219 33.6962C24.6059 33.6911 24.5889 33.6834 24.5624 33.6685L24.4643 33.8428ZM24.1785 33.4254C24.2029 33.5977 24.3061 33.755 24.4648 33.8431L24.5618 33.6682C24.4598 33.6116 24.3924 33.5097 24.3765 33.3973L24.1785 33.4254ZM24.6426 32.0766L24.1832 33.3781L24.3718 33.4446L24.8312 32.1431L24.6426 32.0766ZM24.6544 32.0091C24.6544 32.031 24.6506 32.0539 24.6426 32.0767L24.8313 32.1431C24.8466 32.0995 24.8544 32.0541 24.8544 32.0091H24.6544ZM24.52 31.8193C24.6025 31.8484 24.6544 31.9262 24.6544 32.0091H24.8544C24.8544 31.844 24.7516 31.689 24.5866 31.6307L24.52 31.8193ZM24.2628 31.9424C24.2999 31.8379 24.4148 31.7829 24.5206 31.8195L24.586 31.6305C24.3776 31.5584 24.1486 31.6662 24.0744 31.8755L24.2628 31.9424ZM23.8093 33.227L24.2629 31.9422L24.0743 31.8756L23.6207 33.1604L23.8093 33.227ZM23.2515 33.3585C23.4303 33.4186 23.6223 33.3822 23.7729 33.2753L23.6571 33.1122C23.5539 33.1855 23.428 33.2069 23.3153 33.1689L23.2515 33.3585ZM22.8886 33.0442C22.9607 33.1917 23.0935 33.3053 23.2515 33.3585L23.3153 33.1689C23.2057 33.132 23.1159 33.0537 23.0683 32.9563L22.8886 33.0442ZM22.8583 32.6531C22.803 32.8154 22.8462 32.9581 22.8887 33.0444L23.0681 32.9561C23.0391 32.8972 23.0155 32.8118 23.0476 32.7176L22.8583 32.6531ZM23.5966 30.562L22.8587 32.652L23.0473 32.7186L23.7852 30.6286L23.5966 30.562ZM23.8826 30.2438C23.7464 30.3092 23.6432 30.4226 23.5961 30.5635L23.7857 30.627C23.8149 30.54 23.8792 30.4673 23.9692 30.4241L23.8826 30.2438ZM24.3242 30.2155C24.1787 30.1669 24.0217 30.1769 23.8826 30.2438L23.9692 30.424C24.0617 30.3796 24.1649 30.3732 24.261 30.4052L24.3242 30.2155ZM24.7186 30.7318C24.7074 30.4945 24.5516 30.2914 24.3243 30.2155L24.2609 30.4052C24.4114 30.4554 24.5116 30.5879 24.5189 30.7413L24.7186 30.7318ZM23.2163 15.3913C22.9854 16.0194 22.4904 16.4534 21.9755 16.5528L22.0133 16.7492C22.6084 16.6343 23.1532 16.1426 23.404 15.4603L23.2163 15.3913ZM23.3102 15.3258H23.3101V15.5258H23.3102V15.3258ZM22.6205 13.2907C23.2488 13.6119 23.5389 14.5143 23.2163 15.3913L23.404 15.4603C23.7502 14.519 23.4563 13.4933 22.7116 13.1126L22.6205 13.2907ZM22.0902 16.6798C22.3856 15.6984 22.6181 14.5046 22.7654 13.213L22.5667 13.1903C22.4204 14.4731 22.1898 15.6548 21.8986 16.6221L22.0902 16.6798ZM20.9678 11.2139L22.0949 12.2347L22.2292 12.0864L21.1021 11.0657L20.9678 11.2139ZM20.8205 11.1623C20.8759 11.1596 20.9285 11.1782 20.9678 11.2139L21.1021 11.0657C21.0222 10.9932 20.9174 10.9573 20.8107 10.9625L20.8205 11.1623ZM20.6813 11.2306C20.7173 11.1897 20.7676 11.1652 20.8212 11.1622L20.81 10.9626C20.7024 10.9686 20.6023 11.0178 20.5313 11.0983L20.6813 11.2306ZM20.5181 11.4158L20.6813 11.2305L20.5312 11.0983L20.368 11.2836L20.5181 11.4158ZM19.6024 10.2592L20.3596 11.4049L20.5265 11.2946L19.7692 10.149L19.6024 10.2592ZM22.2567 10.5138C21.6076 10.3731 20.7559 10.2233 19.697 10.1047L19.6747 10.3035C20.7269 10.4213 21.5719 10.57 22.2143 10.7092L22.2567 10.5138ZM22.2618 12.1681C22.3004 11.6583 22.3246 11.1372 22.3355 10.6136L22.1355 10.6094C22.1247 11.1297 22.1007 11.6471 22.0624 12.153L22.2618 12.1681ZM22.2106 12.248L22.2107 12.248L22.1135 12.0731L22.1135 12.0731L22.2106 12.248ZM22.6302 8.07609C21.5187 7.82023 19.6825 7.50742 17.104 7.40672L17.0962 7.60656C19.6622 7.70678 21.486 8.01794 22.5853 8.271L22.6302 8.07609ZM22.5581 8.26036L22.5581 8.26037L22.6573 8.08672L22.6573 8.08671L22.5581 8.26036ZM17.2921 3.19852C19.9396 3.92163 21.9239 5.83206 22.5107 8.19761L22.7048 8.14947C22.0983 5.7041 20.0521 3.74506 17.3448 3.00558L17.2921 3.19852ZM17.2 7.51159L17.4183 3.107L17.2186 3.0971L17.0002 7.50169L17.2 7.51159ZM16.8286 2.11778C16.6326 1.93095 16.0673 1.50331 15.0082 1.50331V1.70331C16.0073 1.70331 16.5251 2.10479 16.6906 2.26253L16.8286 2.11778ZM16.5971 7.49215L16.8594 2.1951L16.6597 2.18521L16.3974 7.48226L16.5971 7.49215ZM15.0128 7.57448C15.5314 7.56998 16.0225 7.57553 16.4948 7.58717L16.4997 7.38723C16.0256 7.37555 15.5322 7.36997 15.0111 7.37448L15.0128 7.57448ZM14.9985 7.57491C15.0045 7.57463 15.0084 7.57448 15.0119 7.57448V7.37448C15.0033 7.37448 14.9951 7.37486 14.9894 7.37511L14.9985 7.57491ZM14.9884 7.57486L14.9897 7.57492L14.9982 7.3751L14.9968 7.37504L14.9884 7.57486ZM14.9762 7.57448C14.9793 7.57448 14.9824 7.5746 14.9882 7.57486L14.997 7.37505C14.9916 7.37481 14.9843 7.37448 14.9762 7.37448V7.57448ZM13.5213 7.58717C13.9852 7.57606 14.4671 7.57025 14.9753 7.57448L14.977 7.37448C14.4662 7.37023 13.9821 7.37608 13.5166 7.38723L13.5213 7.58717ZM13.1568 2.19667L13.4191 7.49215L13.6188 7.48226L13.3565 2.18677L13.1568 2.19667ZM15.0082 1.50327C13.9603 1.50327 13.3858 1.93407 13.1883 2.11868L13.3249 2.26476C13.4932 2.10744 14.0208 1.70327 15.0082 1.70327V1.50327ZM15.0967 1.64998L15.0967 1.64995L14.9198 1.5566L14.9198 1.55663L15.0967 1.64998ZM12.599 3.11559L12.8165 7.51116L13.0163 7.50127L12.7988 3.10571L12.599 3.11559ZM12.5989 3.1106V3.11065H12.7989V3.1106H12.5989ZM7.50682 8.19158C8.09455 5.84407 10.0776 3.93969 12.7255 3.20697L12.6722 3.01422C9.96539 3.76322 7.92055 5.71556 7.31281 8.143L7.50682 8.19158ZM12.9125 7.40629C10.3437 7.5054 8.50676 7.81448 7.38758 8.0698L7.43206 8.26479C8.53914 8.01223 10.3638 7.70477 12.9203 7.60614L12.9125 7.40629ZM6.55646 10.2707C6.59816 10.3023 6.68959 10.3531 6.81174 10.3208L6.76053 10.1274C6.72052 10.138 6.6922 10.1226 6.6772 10.1112L6.55646 10.2707ZM6.43946 10.0327C6.43946 10.1262 6.48192 10.2135 6.55592 10.2703L6.67773 10.1117C6.6537 10.0932 6.63946 10.0649 6.63946 10.0327H6.43946ZM6.43946 9.16728V10.0327H6.63946V9.16728H6.43946ZM6.64948 8.88264C6.52273 8.92002 6.43946 9.03633 6.43946 9.16728H6.63946C6.63946 9.1217 6.66747 9.08585 6.70606 9.07447L6.64948 8.88264ZM14.972 7.97837C10.3616 7.93879 7.62007 8.59574 6.64942 8.88266L6.70612 9.07446C7.658 8.79308 10.3798 8.13896 14.9703 8.17837L14.972 7.97837ZM14.9804 7.97812L14.9688 7.9784L14.9735 8.17834L14.9851 8.17807L14.9804 7.97812ZM14.9923 7.97786L14.9806 7.97812L14.985 8.17807L14.9967 8.17781L14.9923 7.97786ZM15.0201 7.97839L14.9967 7.97786L14.9922 8.17781L15.0155 8.17834L15.0201 7.97839ZM23.3395 8.88266C22.3683 8.59571 19.6247 7.93932 15.0169 7.97837L15.0186 8.17837C19.6064 8.13948 22.3304 8.79305 23.2828 9.07446L23.3395 8.88266ZM23.5495 9.16728C23.5495 9.03633 23.4662 8.92003 23.3395 8.88264L23.2829 9.07447C23.3215 9.08586 23.3495 9.12171 23.3495 9.16728H23.5495ZM23.5495 10.0327V9.16728H23.3495V10.0327H23.5495ZM23.433 10.2703C23.507 10.2135 23.5495 10.1262 23.5495 10.0327H23.3495C23.3495 10.0649 23.3352 10.0932 23.3112 10.1117L23.433 10.2703ZM23.1765 10.3206C23.2988 10.354 23.3909 10.3022 23.4326 10.2706L23.3116 10.1113C23.296 10.1232 23.2679 10.1382 23.2292 10.1276L23.1765 10.3206ZM22.6421 10.1865C22.8435 10.2338 23.0226 10.2791 23.1768 10.3207L23.2288 10.1276C23.0724 10.0854 22.8912 10.0395 22.6878 9.99182L22.6421 10.1865ZM22.5949 10.1747C22.6164 10.178 22.6219 10.1795 22.6247 10.1807L22.7052 9.99763C22.6742 9.98402 22.6419 9.9796 22.6256 9.97707L22.5949 10.1747ZM22.5782 10.172L22.5942 10.1746L22.6262 9.97717L22.6102 9.97457L22.5782 10.172ZM18.0318 9.55548C20.0875 9.68423 21.5939 9.94613 22.5718 10.1707L22.6166 9.97582C21.628 9.74876 20.1108 9.4853 18.0443 9.35587L18.0318 9.55548ZM18.0372 9.55567H18.038V9.35567H18.0372V9.55567ZM15.425 9.47615C16.376 9.47615 17.2424 9.50604 18.031 9.55548L18.0435 9.35587C17.2508 9.30617 16.3802 9.27615 15.425 9.27615V9.47615ZM15.0166 9.478C15.154 9.47668 15.2904 9.47615 15.425 9.47615V9.27615C15.2899 9.27615 15.1529 9.27668 15.0147 9.27801L15.0166 9.478ZM14.9775 9.47801H15.0157V9.27801H14.9775V9.47801ZM14.449 9.47805C14.6234 9.4773 14.797 9.47656 14.9767 9.478L14.9783 9.27801C14.7972 9.27656 14.6223 9.27731 14.4481 9.27805L14.449 9.47805ZM14.3966 9.47827L14.449 9.47805L14.4481 9.27805L14.3958 9.27827L14.3966 9.47827ZM14.3894 9.47817L14.3945 9.47826L14.3979 9.27829L14.3929 9.2782L14.3894 9.47817ZM14.3915 9.47805C14.3892 9.4782 14.3877 9.47813 14.389 9.47816L14.3933 9.27821C14.3905 9.27815 14.3849 9.27804 14.3781 9.2785L14.3915 9.47805ZM6.81273 10.3207C7.97705 10.0064 10.4773 9.49652 14.3853 9.47827L14.3843 9.27827C10.4592 9.2966 7.9418 9.80879 6.76062 10.1276L6.81273 10.3207ZM6.78507 10.3241L6.7856 10.3241L6.78774 10.1241L6.7872 10.1241L6.78507 10.3241ZM14.7739 10.0808C14.8042 10.0809 14.8339 10.0808 14.8632 10.0807L14.8626 9.88072C14.8332 9.88081 14.8042 9.8809 14.7747 9.88078L14.7739 10.0808ZM14.5352 11.1507C14.7157 10.8361 14.8952 10.4082 14.8742 9.97594L14.6744 9.98563C14.6927 10.3612 14.5352 10.7488 14.3617 11.0512L14.5352 11.1507ZM17.3574 9.95488C16.9619 10.3359 16.1107 10.8939 14.442 11.0011L14.4548 11.2007C16.167 11.0907 17.064 10.5152 17.4961 10.0989L17.3574 9.95488ZM15.0186 10.0808C15.8876 10.0736 16.6859 10.0919 17.422 10.1268L17.4315 9.92702C16.6918 9.89194 15.8898 9.87361 15.017 9.88079L15.0186 10.0808ZM14.9741 10.0808H15.0178V9.88078H14.9741V10.0808ZM14.8632 10.0807C14.8999 10.0806 14.9361 10.0805 14.9733 10.0808L14.9748 9.88079C14.9364 9.88049 14.8992 9.8806 14.8626 9.88072L14.8632 10.0807ZM9.68159 11.4044L10.4436 10.2514L10.2767 10.1412L9.51474 11.2942L9.68159 11.4044ZM9.35992 11.2301L9.52313 11.4154L9.6732 11.2832L9.51 11.0979L9.35992 11.2301ZM9.22104 11.1623C9.27484 11.1655 9.32454 11.1898 9.35977 11.23L9.51015 11.0981C9.43939 11.0174 9.33965 10.969 9.2329 10.9627L9.22104 11.1623ZM9.07512 11.2128C9.11488 11.1769 9.16582 11.1588 9.22051 11.1623L9.23343 10.9627C9.12437 10.9557 9.02057 10.9926 8.94111 11.0644L9.07512 11.2128ZM7.9216 12.2419L9.07468 11.2132L8.94154 11.064L7.78846 12.0927L7.9216 12.2419ZM7.68086 10.6071C7.69176 11.1359 7.71595 11.661 7.75532 12.1749L7.95474 12.1597C7.91568 11.6499 7.89165 11.1285 7.88082 10.603L7.68086 10.6071ZM10.3492 10.0969C9.27805 10.215 8.41701 10.3653 7.75972 10.5073L7.80196 10.7028C8.45248 10.5622 9.30674 10.413 10.3711 10.2957L10.3492 10.0969ZM6.80056 15.3915C6.47803 14.5148 6.76829 13.6121 7.39559 13.2909L7.30444 13.1129C6.56087 13.4936 6.26664 14.5194 6.61285 15.4606L6.80056 15.3915ZM6.79948 15.4634L6.79951 15.4633L6.6139 15.3888L6.61388 15.3889L6.79948 15.4634ZM8.04075 16.5535C7.52598 16.455 7.0315 16.0202 6.80054 15.3916L6.61282 15.4606C6.86357 16.143 7.40774 16.636 8.00313 16.75L8.04075 16.5535ZM7.25066 13.2132C7.39795 14.5051 7.63051 15.6992 7.92619 16.6806L8.11769 16.6229C7.82623 15.6555 7.59566 14.4736 7.44937 13.1906L7.25066 13.2132ZM7.82415 12.9243C8.05339 15.1213 8.53086 17.05 9.1523 18.0862L9.32382 17.9833C8.72594 16.9865 8.25168 15.0945 8.02307 12.9036L7.82415 12.9243ZM9.11662 11.7157L7.85705 12.8393L7.99018 12.9886L9.24976 11.8649L9.11662 11.7157ZM9.48111 11.9777L9.25828 11.7243L9.10809 11.8563L9.33092 12.1097L9.48111 11.9777ZM9.6467 12.0454C9.58371 12.0494 9.52211 12.0243 9.48112 11.9777L9.33092 12.1097C9.41392 12.2041 9.5362 12.2527 9.65921 12.245L9.6467 12.0454ZM9.7999 11.9559C9.76571 12.0079 9.70885 12.0412 9.64619 12.0454L9.65972 12.245C9.78465 12.2365 9.89841 12.1701 9.96703 12.0657L9.7999 11.9559ZM11.0488 10.0665L9.80004 11.9557L9.96689 12.066L11.2156 10.1768L11.0488 10.0665ZM14.1698 9.8812C13.0281 9.89103 12.0161 9.94471 11.1235 10.0221L11.1408 10.2213C12.0283 10.1444 13.0352 10.091 14.1716 10.0812L14.1698 9.8812ZM13.7071 11.2902C13.7967 11.185 13.9459 10.9785 14.0683 10.7406C14.1889 10.506 14.2927 10.2236 14.2703 9.97234L14.0711 9.99006C14.0882 10.1826 14.007 10.4225 13.8904 10.6491C13.7755 10.8725 13.6351 11.0663 13.5548 11.1606L13.7071 11.2902ZM13.6777 11.5054C13.6447 11.4342 13.6562 11.3502 13.7072 11.2901L13.5547 11.1607C13.4536 11.2798 13.4302 11.4471 13.4963 11.5896L13.6777 11.5054ZM13.8604 11.6227C13.7823 11.6227 13.711 11.5772 13.6777 11.5054L13.4963 11.5896C13.5621 11.7314 13.7038 11.8227 13.8604 11.8227V11.6227ZM18.0999 10.0132C17.7931 10.4521 16.7119 11.6227 13.8604 11.6227V11.8227C16.7775 11.8227 17.9198 10.6199 18.2638 10.1278L18.0999 10.0132ZM18.9213 10.0274C18.6858 10.0063 18.4411 9.98773 18.1886 9.97073L18.1751 10.1703C18.4266 10.1872 18.6698 10.2057 18.9035 10.2266L18.9213 10.0274ZM20.241 11.9559L18.9958 10.0718L18.8289 10.1821L20.0742 12.0662L20.241 11.9559ZM20.3952 12.0457C20.3327 12.0413 20.2757 12.0082 20.241 11.9559L20.0742 12.0663C20.1434 12.1708 20.2571 12.2364 20.381 12.2452L20.3952 12.0457ZM20.5602 11.9776C20.5195 12.0236 20.458 12.0485 20.3927 12.0456L20.3836 12.2454C20.5047 12.2509 20.6261 12.2048 20.7099 12.1103L20.5602 11.9776ZM20.7812 11.7264L20.56 11.9779L20.7102 12.11L20.9314 11.8584L20.7812 11.7264ZM22.1598 12.8385L20.9234 11.7183L20.7892 11.8665L22.0255 12.9867L22.1598 12.8385ZM20.8636 18.087C21.4853 17.0505 21.9628 15.121 22.1921 12.923L21.9931 12.9022C21.7645 15.0942 21.2903 16.9869 20.6921 17.9841L20.8636 18.087ZM20.8763 18.0519C20.8765 18.051 20.8758 18.0563 20.8741 18.0623C20.8723 18.0692 20.8686 18.0798 20.861 18.0911L20.6948 17.9799C20.6869 17.9917 20.6831 18.0027 20.6811 18.0099C20.6801 18.0135 20.6795 18.0165 20.6792 18.0184C20.679 18.0194 20.6789 18.0202 20.6788 18.0207C20.6787 18.0212 20.6787 18.0216 20.6787 18.0216L20.8763 18.0519ZM20.8479 18.1085C20.8636 18.0928 20.8702 18.0759 20.8731 18.0664C20.8745 18.0617 20.8753 18.0578 20.8757 18.0556C20.8759 18.0545 20.8761 18.0536 20.8762 18.053C20.8762 18.0527 20.8763 18.0525 20.8763 18.0524C20.8763 18.0522 20.8763 18.0521 20.8763 18.0521L20.6787 18.0214C20.6784 18.0234 20.6793 18.0162 20.6817 18.0084C20.6844 17.9993 20.6909 17.9827 20.7063 17.9673L20.8479 18.1085ZM15.0079 21.6079C16.377 21.6079 17.6372 21.066 18.6541 20.3586C19.6705 19.6516 20.4516 18.7739 20.8628 18.0894L20.6914 17.9864C20.2958 18.6449 19.5349 19.5023 18.5399 20.1945C17.5452 20.8864 16.3242 21.4079 15.0079 21.4079V21.6079ZM9.15229 18.0861C9.56271 18.7707 10.3438 19.6491 11.3605 20.3569C12.3776 21.065 13.6385 21.6078 15.0079 21.6079L15.008 21.4079C13.6913 21.4078 12.4698 20.8855 11.4748 20.1928C10.4794 19.4999 9.7186 18.6418 9.32383 17.9833L9.15229 18.0861ZM9.33763 18.0255L9.33763 18.0254L9.13849 18.044L9.13849 18.044L9.33763 18.0255ZM13.2519 24.4136C13.3688 24.3755 13.464 24.2674 13.5063 24.1666L13.3218 24.0892C13.2963 24.1501 13.2388 24.2075 13.1899 24.2234L13.2519 24.4136ZM13.2051 24.4172L13.2051 24.4172L13.2367 24.2198L13.2367 24.2198L13.2051 24.4172ZM12.5136 24.6839C12.7723 24.5793 13.02 24.4892 13.2519 24.4136L13.1899 24.2234C12.9534 24.3005 12.7014 24.3922 12.4386 24.4985L12.5136 24.6839ZM17.5041 24.5165C16.7244 25.0678 14.7978 26.0604 12.5326 24.5087L12.4196 24.6737C14.7863 26.2949 16.8107 25.2518 17.6196 24.6798L17.5041 24.5165ZM16.6873 24.3876C16.9523 24.4716 17.2331 24.5725 17.5242 24.6908L17.5995 24.5055C17.3036 24.3852 17.0179 24.2826 16.7477 24.1969L16.6873 24.3876ZM16.4516 24.1888C16.5006 24.2841 16.5854 24.3555 16.6874 24.3876L16.7475 24.1969C16.6964 24.1808 16.654 24.1451 16.6294 24.0973L16.4516 24.1888ZM16.411 23.9479C16.3994 24.0297 16.4131 24.114 16.4516 24.1887L16.6294 24.0973C16.6101 24.0597 16.6032 24.0172 16.609 23.9761L16.411 23.9479ZM16.4148 21.9083L16.41 23.9617L16.61 23.9622L16.6148 21.9087L16.4148 21.9083ZM15.0085 22.2105C15.537 22.2105 16.049 22.1341 16.5402 22.0052L16.4894 21.8118C16.0124 21.9369 15.5176 22.0105 15.0085 22.0105V22.2105ZM13.4199 21.992C13.9285 22.13 14.4601 22.2105 15.0085 22.2105V22.0105C14.4797 22.0105 13.9658 21.9329 13.4723 21.799L13.4199 21.992ZM13.5379 24.0119L13.5461 21.8959L13.3461 21.8951L13.3379 24.0112L13.5379 24.0119ZM13.5061 24.167C13.5268 24.1181 13.5379 24.0653 13.5379 24.0116H13.3379C13.3379 24.0379 13.3325 24.0641 13.322 24.0889L13.5061 24.167ZM14.9844 25.9324C14.0659 25.9324 13.0103 25.6416 11.9007 24.7925L11.7792 24.9513C12.9222 25.8261 14.0202 26.1324 14.9844 26.1324V25.9324ZM18.1251 24.7975C17.715 25.1222 16.5354 25.9324 14.9844 25.9324V26.1324C16.6022 26.1324 17.8258 25.2896 18.2493 24.9543L18.1251 24.7975ZM23.6598 29.7916C21.9978 27.1134 19.9763 25.6174 18.2302 24.7856L18.1442 24.9662C19.8589 25.783 21.8499 27.2543 23.4899 29.897L23.6598 29.7916ZM23.2149 30.4303C23.2851 30.2221 23.4309 30.0484 23.6266 29.9298L23.523 29.7588C23.2906 29.8995 23.112 30.1095 23.0254 30.3663L23.2149 30.4303ZM22.8671 31.4152L23.2145 30.4316L23.0259 30.365L22.6785 31.3486L22.8671 31.4152ZM20.7834 30.7731L22.739 31.476L22.8066 31.2878L20.851 30.5849L20.7834 30.7731ZM20.5258 30.8945C20.5631 30.7901 20.6788 30.7354 20.7833 30.7731L20.8511 30.5849C20.6424 30.5097 20.412 30.6188 20.3375 30.8272L20.5258 30.8945ZM20.3944 31.2604L20.5258 30.8947L20.3376 30.827L20.2061 31.1928L20.3944 31.2604ZM19.4817 30.9157C19.7394 31.0104 19.9743 31.1374 20.2465 31.3109L20.354 31.1423C20.0751 30.9644 19.8267 30.8295 19.5507 30.728L19.4817 30.9157ZM16.7252 31.5704C17.2172 31.0459 18.1307 30.4226 19.4819 30.9158L19.5505 30.7279C18.0958 30.197 17.1022 30.8762 16.5794 31.4336L16.7252 31.5704ZM15.0538 31.0226L16.6179 31.5959L16.6867 31.4081L15.1227 30.8348L15.0538 31.0226ZM15.0232 30.8155L14.9944 30.8942L15.1821 30.9631L15.211 30.8844L15.0232 30.8155ZM14.9038 30.5572C15.0078 30.5951 15.0615 30.711 15.0232 30.8155L15.211 30.8844C15.2872 30.6766 15.1809 30.4453 14.9723 30.3693L14.9038 30.5572ZM14.3217 30.3434L14.9035 30.5571L14.9725 30.3693L14.3906 30.1557L14.3217 30.3434ZM14.7564 29.4341C14.7496 29.4562 14.6113 29.8822 14.2889 30.1756L14.4235 30.3235C14.7873 29.9924 14.9384 29.5226 14.9474 29.4932L14.7564 29.4341ZM14.7642 29.3971C14.7627 29.41 14.7603 29.4218 14.7566 29.4333L14.9472 29.494C14.9552 29.4689 14.9602 29.4441 14.9629 29.4195L14.7642 29.3971ZM14.4293 28.1267C14.7089 28.4242 14.8274 28.8455 14.7642 29.3969L14.9629 29.4196C15.0307 28.828 14.9059 28.3418 14.575 27.9898L14.4293 28.1267ZM13.3833 27.6884C13.6188 27.7015 14.0956 27.7723 14.4294 28.1268L14.575 27.9897C14.187 27.5776 13.6442 27.5026 13.3944 27.4887L13.3833 27.6884ZM11.3466 27.6309C11.5711 27.4643 11.8887 27.3077 12.2372 27.2751C12.5819 27.243 12.9615 27.3314 13.3211 27.6622L13.4565 27.5149C13.0528 27.1437 12.6164 27.0389 12.2186 27.076C11.8245 27.1128 11.4729 27.2881 11.2274 27.4703L11.3466 27.6309ZM10.205 27.6429C10.5348 27.5306 10.8861 27.5311 11.2574 27.6462L11.3166 27.4551C10.9094 27.329 10.5146 27.3262 10.1406 27.4536L10.205 27.6429ZM9.25376 28.4086C9.41868 28.1654 9.72916 27.8054 10.2051 27.6429L10.1405 27.4536C9.60541 27.6363 9.26408 28.037 9.08822 28.2964L9.25376 28.4086ZM8.73131 28.2971L9.13643 28.4463L9.20556 28.2587L8.80044 28.1094L8.73131 28.2971ZM8.47374 28.4173C8.51198 28.3128 8.62786 28.2594 8.73161 28.2972L8.80014 28.1093C8.59282 28.0337 8.36214 28.1403 8.28592 28.3486L8.47374 28.4173ZM7.81349 30.2237L8.47376 28.4173L8.28591 28.3486L7.62564 30.1551L7.81349 30.2237ZM7.81995 30.3787C7.79725 30.3294 7.79508 30.2738 7.81343 30.2239L7.6257 30.1549C7.58894 30.255 7.59366 30.3654 7.63825 30.4623L7.81995 30.3787ZM7.93321 30.4826C7.88309 30.4645 7.84236 30.4269 7.81978 30.3784L7.63843 30.4627C7.68315 30.5589 7.76429 30.6342 7.8652 30.6707L7.93321 30.4826ZM8.20484 30.5819L7.93352 30.4827L7.86488 30.6706L8.1362 30.7697L8.20484 30.5819ZM4.6367 34.0535C5.77856 32.8708 7.46803 31.4051 8.23534 30.7519L8.1057 30.5996C7.33845 31.2527 5.6422 32.724 4.49281 33.9146L4.6367 34.0535ZM11.797 24.7813C9.35409 25.9466 6.20748 28.478 4.46944 33.9538L4.66007 34.0143C6.3802 28.5949 9.48655 26.105 11.8831 24.9618L11.797 24.7813ZM11.9371 24.8957L11.9372 24.8954L11.7429 24.8478L11.7428 24.8481L11.9371 24.8957ZM4.25848 35.4035C4.6952 34.7982 5.67894 33.8403 6.64597 32.9564C7.61011 32.0752 8.54826 31.2759 8.88658 30.9902L8.75756 30.8374C8.41834 31.1238 7.47795 31.925 6.51103 32.8088C5.547 33.6899 4.54717 34.6615 4.09629 35.2864L4.25848 35.4035ZM4.1067 35.2742L4.10667 35.2742L4.24809 35.4157L4.24812 35.4156L4.1067 35.2742ZM3.99806 36.6096C4.08342 36.1829 4.17448 35.767 4.2744 35.3693L4.08042 35.3206C3.97951 35.7223 3.88775 36.1414 3.80195 36.5703L3.99806 36.6096ZM7.15468 36.49H3.90001V36.69H7.15468V36.49ZM9.86516 33.6147C9.6432 34.2166 9.41174 34.8411 9.00924 35.3643C8.61007 35.8832 8.04021 36.305 7.13446 36.492L7.17491 36.6879C8.12915 36.4908 8.74034 36.0419 9.16776 35.4863C9.59186 34.935 9.83256 34.2812 10.0528 33.6839L9.86516 33.6147ZM9.96008 33.359L9.86523 33.6145L10.0527 33.6841L10.1476 33.4286L9.96008 33.359ZM10.9504 31.6598C10.6639 32.023 10.2312 32.6418 9.96029 33.3584L10.1474 33.4291C10.408 32.7397 10.8269 32.1393 11.1074 31.7837L10.9504 31.6598ZM8.78769 31.0077L10.9945 31.8156L11.0632 31.6278L8.85645 30.8199L8.78769 31.0077ZM9.62041 37.0934H1.60309V37.2934H9.62041V37.0934ZM9.72041 38.3931V37.1934H9.52041V38.3931H9.72041ZM1.60307 38.4915L9.62039 38.4931L9.62043 38.2931L1.60311 38.2915L1.60307 38.4915ZM1.50309 37.1934V38.3915H1.70309V37.1934H1.50309ZM33.3977 38.2963L30.041 38.2957L30.041 38.4957L33.3976 38.4963L33.3977 38.2963ZM33.2977 37.1931V38.3963H33.4977V37.1931H33.2977ZM30.041 37.2931H33.3977V37.0931H30.041V37.2931ZM30.141 38.3957V37.1931H29.941V38.3957H30.141Z" fill="#333333"/>
</svg>
