<svg width="19" height="26" viewBox="0 0 19 26" fill="none" xmlns="http://www.w3.org/2000/svg">
<path fill-rule="evenodd" clip-rule="evenodd" d="M9.72727 16.2727C12.1363 16.2703 14.0885 14.3181 14.0909 11.9091V5.36364C14.0909 2.95364 12.1373 1 9.72727 1C7.31727 1 5.36364 2.95364 5.36364 5.36364V11.9091C5.36603 14.3181 7.31827 16.2703 9.72727 16.2727ZM18.4545 11.9091C18.4545 11.6079 18.2103 11.3636 17.9091 11.3636C17.6079 11.3636 17.3636 11.6079 17.3636 11.9091C17.3636 16.1265 13.9447 19.5455 9.72727 19.5455C5.50985 19.5455 2.09091 16.1265 2.09091 11.9091C2.09091 11.6079 1.84668 11.3636 1.54545 11.3636C1.24423 11.3636 1 11.6079 1 11.9091C1.00533 16.5426 4.6197 20.3205 9.18182 20.6082V23.9091H5.90909C5.60787 23.9091 5.36364 24.1533 5.36364 24.4545C5.36364 24.7558 5.60787 25 5.90909 25H9.72727H9.72794H13.5455C13.8467 25 14.0909 24.7558 14.0909 24.4545C14.0909 24.1533 13.8467 23.9091 13.5455 23.9091H10.2727V20.6082C14.8349 20.3205 18.4492 16.5426 18.4545 11.9091ZM9.72727 2.09091C7.92059 2.09291 6.45654 3.55695 6.45455 5.36364V11.9091C6.45455 13.7166 7.91979 15.1818 9.72727 15.1818C11.5348 15.1818 13 13.7166 13 11.9091V5.36364C12.998 3.55695 11.534 2.09291 9.72727 2.09091Z" fill="#231F20"/>
<path d="M14.0909 11.9091L14.3409 11.9093V11.9091H14.0909ZM9.72727 16.2727L9.72702 16.5227H9.72752L9.72727 16.2727ZM5.36364 11.9091H5.11364V11.9093L5.36364 11.9091ZM18.4545 11.9091L18.7045 11.9094V11.9091H18.4545ZM1 11.9091H0.75L0.75 11.9094L1 11.9091ZM9.18182 20.6082H9.43182V20.3735L9.19755 20.3587L9.18182 20.6082ZM9.18182 23.9091V24.1591H9.43182V23.9091H9.18182ZM10.2727 23.9091H10.0227V24.1591H10.2727V23.9091ZM10.2727 20.6082L10.257 20.3587L10.0227 20.3735V20.6082H10.2727ZM6.45455 5.36364L6.20455 5.36336V5.36364H6.45455ZM9.72727 2.09091L9.72755 1.84091L9.727 1.84091L9.72727 2.09091ZM13 5.36364H13.25V5.36336L13 5.36364ZM13.8409 11.9088C13.8386 14.18 11.9981 16.0205 9.72702 16.0227L9.72752 16.5227C12.2744 16.5202 14.3384 14.4562 14.3409 11.9093L13.8409 11.9088ZM13.8409 5.36364V11.9091H14.3409V5.36364H13.8409ZM9.72727 1.25C11.9992 1.25 13.8409 3.09171 13.8409 5.36364H14.3409C14.3409 2.81556 12.2753 0.75 9.72727 0.75V1.25ZM5.61364 5.36364C5.61364 3.09171 7.45534 1.25 9.72727 1.25V0.75C7.1792 0.75 5.11364 2.81556 5.11364 5.36364H5.61364ZM5.61364 11.9091V5.36364H5.11364V11.9091H5.61364ZM9.72752 16.0227C7.4564 16.0205 5.6159 14.18 5.61364 11.9088L5.11364 11.9093C5.11617 14.4562 7.18015 16.5202 9.72702 16.5227L9.72752 16.0227ZM17.9091 11.6136C18.0722 11.6136 18.2045 11.7459 18.2045 11.9091H18.7045C18.7045 11.4698 18.3484 11.1136 17.9091 11.1136V11.6136ZM17.6136 11.9091C17.6136 11.7459 17.7459 11.6136 17.9091 11.6136V11.1136C17.4698 11.1136 17.1136 11.4698 17.1136 11.9091H17.6136ZM9.72727 19.7955C14.0828 19.7955 17.6136 16.2646 17.6136 11.9091H17.1136C17.1136 15.9884 13.8066 19.2955 9.72727 19.2955V19.7955ZM1.84091 11.9091C1.84091 16.2646 5.37178 19.7955 9.72727 19.7955V19.2955C5.64793 19.2955 2.34091 15.9884 2.34091 11.9091H1.84091ZM1.54545 11.6136C1.70861 11.6136 1.84091 11.7459 1.84091 11.9091H2.34091C2.34091 11.4698 1.98475 11.1136 1.54545 11.1136V11.6136ZM1.25 11.9091C1.25 11.7459 1.3823 11.6136 1.54545 11.6136V11.1136C1.10616 11.1136 0.75 11.4698 0.75 11.9091H1.25ZM9.19755 20.3587C4.76571 20.0792 1.25517 16.4091 1.25 11.9088L0.75 11.9094C0.75548 16.676 4.47368 20.5618 9.16608 20.8577L9.19755 20.3587ZM9.43182 23.9091V20.6082H8.93182V23.9091H9.43182ZM5.90909 24.1591H9.18182V23.6591H5.90909V24.1591ZM5.61364 24.4545C5.61364 24.2914 5.74594 24.1591 5.90909 24.1591V23.6591C5.4698 23.6591 5.11364 24.0152 5.11364 24.4545H5.61364ZM5.90909 24.75C5.74594 24.75 5.61364 24.6177 5.61364 24.4545H5.11364C5.11364 24.8938 5.46979 25.25 5.90909 25.25V24.75ZM9.72727 24.75H5.90909V25.25H9.72727V24.75ZM9.72794 24.75H9.72727V25.25H9.72794V24.75ZM13.5455 24.75H9.72794V25.25H13.5455V24.75ZM13.8409 24.4545C13.8409 24.6177 13.7086 24.75 13.5455 24.75V25.25C13.9848 25.25 14.3409 24.8938 14.3409 24.4545H13.8409ZM13.5455 24.1591C13.7086 24.1591 13.8409 24.2914 13.8409 24.4545H14.3409C14.3409 24.0152 13.9847 23.6591 13.5455 23.6591V24.1591ZM10.2727 24.1591H13.5455V23.6591H10.2727V24.1591ZM10.0227 20.6082V23.9091H10.5227V20.6082H10.0227ZM18.2045 11.9088C18.1994 16.4091 14.6888 20.0792 10.257 20.3587L10.2885 20.8577C14.9809 20.5618 18.6991 16.676 18.7045 11.9094L18.2045 11.9088ZM6.70455 5.36391C6.70639 3.69508 8.05872 2.34275 9.72755 2.34091L9.727 1.84091C7.78246 1.84306 6.2067 3.41882 6.20455 5.36336L6.70455 5.36391ZM6.70455 11.9091V5.36364H6.20455V11.9091H6.70455ZM9.72727 14.9318C8.05786 14.9318 6.70455 13.5785 6.70455 11.9091H6.20455C6.20455 13.8546 7.78172 15.4318 9.72727 15.4318V14.9318ZM12.75 11.9091C12.75 13.5785 11.3967 14.9318 9.72727 14.9318V15.4318C11.6728 15.4318 13.25 13.8546 13.25 11.9091H12.75ZM12.75 5.36364V11.9091H13.25V5.36364H12.75ZM9.727 2.34091C11.3958 2.34275 12.7482 3.69508 12.75 5.36391L13.25 5.36336C13.2478 3.41882 11.6721 1.84306 9.72755 1.84091L9.727 2.34091Z" fill="#231F20"/>
</svg>
