<svg width="16" height="17" viewBox="0 0 16 17" fill="none" xmlns="http://www.w3.org/2000/svg">
<path d="M8 0C3.6 0 0 3.71339 0 8.25197C0 11.7591 2.13333 14.716 5.06667 15.9538C5 15.3349 4.93333 14.3034 5.06667 13.6157C5.2 12.9969 6 9.48976 6 9.48976C6 9.48976 5.8 8.93963 5.8 8.25197C5.8 7.08294 6.46667 6.25774 7.26667 6.25774C7.93333 6.25774 8.26667 6.80787 8.26667 7.42677C8.26667 8.11444 7.8 9.2147 7.6 10.1774C7.4 11.0026 8 11.6903 8.8 11.6903C10.2 11.6903 11.3333 10.1774 11.3333 7.90814C11.3333 5.91391 9.93333 4.53858 8 4.53858C5.73333 4.53858 4.4 6.32651 4.4 8.11444C4.4 8.8021 4.66667 9.55853 5 9.97113C5.06667 10.0399 5.06667 10.1087 5.06667 10.1774C5 10.4525 4.86667 11.0026 4.86667 11.1402C4.8 11.2777 4.73333 11.3465 4.6 11.2777C3.6 10.7963 3 9.28346 3 8.11444C3 5.50131 4.86667 3.09449 8.26667 3.09449C11.0667 3.09449 13.2 5.15748 13.2 7.83937C13.2 10.6588 11.4667 12.9969 9.06667 12.9969C8.26667 12.9969 7.46667 12.5843 7.2 12.0341C7.2 12.0341 6.8 13.6157 6.73333 14.0283C6.53333 14.716 6.06667 15.61 5.73333 16.1601C6.4 16.3664 7.2 16.5039 8 16.5039C12.4 16.5039 16 12.7906 16 8.25197C16 3.71339 12.4 0 8 0Z" fill="white"/>
<mask id="mask0_683_2000" style="mask-type:alpha" maskUnits="userSpaceOnUse" x="0" y="0" width="16" height="17">
<path d="M8 0C3.6 0 0 3.71339 0 8.25197C0 11.7591 2.13333 14.716 5.06667 15.9538C5 15.3349 4.93333 14.3034 5.06667 13.6157C5.2 12.9969 6 9.48976 6 9.48976C6 9.48976 5.8 8.93963 5.8 8.25197C5.8 7.08294 6.46667 6.25774 7.26667 6.25774C7.93333 6.25774 8.26667 6.80787 8.26667 7.42677C8.26667 8.11444 7.8 9.2147 7.6 10.1774C7.4 11.0026 8 11.6903 8.8 11.6903C10.2 11.6903 11.3333 10.1774 11.3333 7.90814C11.3333 5.91391 9.93333 4.53858 8 4.53858C5.73333 4.53858 4.4 6.32651 4.4 8.11444C4.4 8.8021 4.66667 9.55853 5 9.97113C5.06667 10.0399 5.06667 10.1087 5.06667 10.1774C5 10.4525 4.86667 11.0026 4.86667 11.1402C4.8 11.2777 4.73333 11.3465 4.6 11.2777C3.6 10.7963 3 9.28346 3 8.11444C3 5.50131 4.86667 3.09449 8.26667 3.09449C11.0667 3.09449 13.2 5.15748 13.2 7.83937C13.2 10.6588 11.4667 12.9969 9.06667 12.9969C8.26667 12.9969 7.46667 12.5843 7.2 12.0341C7.2 12.0341 6.8 13.6157 6.73333 14.0283C6.53333 14.716 6.06667 15.61 5.73333 16.1601C6.4 16.3664 7.2 16.5039 8 16.5039C12.4 16.5039 16 12.7906 16 8.25197C16 3.71339 12.4 0 8 0Z" fill="white"/>
</mask>
<g mask="url(#mask0_683_2000)">
</g>
</svg>
