<svg width="14" height="14" viewBox="0 0 14 14" fill="none" xmlns="http://www.w3.org/2000/svg">
<path fill-rule="evenodd" clip-rule="evenodd" d="M9.29526 8.47422L13.8312 13.0102C14.0566 13.2376 14.0566 13.6036 13.8292 13.831C13.6038 14.0563 13.2358 14.0563 13.0105 13.831L8.47655 9.295C6.42977 10.9345 3.42577 10.8042 1.52578 8.90839C-0.508593 6.87401 -0.508593 3.55989 1.52578 1.52759C3.56015 -0.508851 6.87221 -0.508851 8.90658 1.52552C10.8045 3.42344 10.9306 6.42538 9.29526 8.47422ZM2.34656 8.08968C3.92816 9.67334 6.5042 9.67128 8.08787 8.08968C9.67153 6.50394 9.67153 3.9279 8.08787 2.3463C6.50627 0.764698 3.93022 0.764698 2.34656 2.3463C0.762889 3.9279 0.762889 6.50394 2.34656 8.08968Z" fill="#231F20"/>
</svg>
