<svg width="14" height="15" viewBox="0 0 14 15" fill="none" xmlns="http://www.w3.org/2000/svg">
<path d="M6.285 7.82496L4.66 6.19996L3.75 7.10996L6.285 9.70996L10.25 5.74496L9.34 4.83496L6.285 7.82496Z" fill="#231F20" stroke="white" stroke-width="0.4"/>
<path fill-rule="evenodd" clip-rule="evenodd" d="M2.45 1H11.55C12.655 1 13.5 1.845 13.5 2.95V12.05C13.5 13.155 12.655 14 11.55 14H2.45C1.345 14 0.5 13.155 0.5 12.05V2.95C0.5 1.845 1.345 1 2.45 1ZM11.55 12.7C11.94 12.7 12.2 12.44 12.2 12.05V2.95005C12.2 2.56005 11.94 2.30005 11.55 2.30005H2.45C2.06 2.30005 1.8 2.56005 1.8 2.95005V12.05C1.8 12.44 2.06 12.7 2.45 12.7H11.55Z" fill="#231F20"/>
<path d="M11.55 0.8H2.45V1.2H11.55V0.8ZM13.7 2.95C13.7 1.73454 12.7655 0.8 11.55 0.8V1.2C12.5445 1.2 13.3 1.95546 13.3 2.95H13.7ZM13.7 12.05V2.95H13.3V12.05H13.7ZM11.55 14.2C12.7655 14.2 13.7 13.2655 13.7 12.05H13.3C13.3 13.0445 12.5445 13.8 11.55 13.8V14.2ZM2.45 14.2H11.55V13.8H2.45V14.2ZM0.3 12.05C0.3 13.2655 1.23454 14.2 2.45 14.2V13.8C1.45546 13.8 0.7 13.0445 0.7 12.05H0.3ZM0.3 2.95V12.05H0.7V2.95H0.3ZM2.45 0.8C1.23454 0.8 0.3 1.73454 0.3 2.95H0.7C0.7 1.95546 1.45546 1.2 2.45 1.2V0.8ZM12 12.05C12 12.1996 11.951 12.3087 11.8798 12.3799C11.8086 12.4511 11.6996 12.5 11.55 12.5V12.9C11.7905 12.9 12.0064 12.819 12.1627 12.6627C12.319 12.5064 12.4 12.2905 12.4 12.05H12ZM12 2.95005V12.05H12.4V2.95005H12ZM11.55 2.50005C11.6996 2.50005 11.8086 2.54903 11.8798 2.62022C11.951 2.69141 12 2.8005 12 2.95005H12.4C12.4 2.7096 12.319 2.49368 12.1627 2.33738C12.0064 2.18107 11.7905 2.10005 11.55 2.10005V2.50005ZM2.45 2.50005H11.55V2.10005H2.45V2.50005ZM2 2.95005C2 2.8005 2.04898 2.69141 2.12017 2.62022C2.19137 2.54903 2.30045 2.50005 2.45 2.50005V2.10005C2.20955 2.10005 1.99364 2.18107 1.83733 2.33738C1.68103 2.49368 1.6 2.7096 1.6 2.95005H2ZM2 12.05V2.95005H1.6V12.05H2ZM2.45 12.5C2.30045 12.5 2.19137 12.4511 2.12017 12.3799C2.04898 12.3087 2 12.1996 2 12.05H1.6C1.6 12.2905 1.68103 12.5064 1.83733 12.6627C1.99364 12.819 2.20955 12.9 2.45 12.9V12.5ZM11.55 12.5H2.45V12.9H11.55V12.5Z" fill="white"/>
</svg>
