<svg width="16" height="17" viewBox="0 0 16 17" fill="none" xmlns="http://www.w3.org/2000/svg">
<path d="M16 3.21571C15.4 3.48794 14.8 3.69211 14.1333 3.76017C14.8 3.35183 15.3333 2.67125 15.6 1.92262C14.9333 2.33097 14.2667 2.6032 13.5333 2.73931C12.9333 2.05874 12.0667 1.65039 11.1333 1.65039C9.33333 1.65039 7.86667 3.14765 7.86667 4.98521C7.86667 5.25744 7.86667 5.52967 7.93333 5.73384C5.13333 5.59772 2.73333 4.23657 1.13333 2.19485C0.8 2.73931 0.666667 3.28377 0.666667 3.89629C0.666667 5.05326 1.26667 6.07413 2.13333 6.68664C1.6 6.68664 1.06667 6.55053 0.666667 6.2783C0.666667 6.2783 0.666667 6.2783 0.666667 6.34636C0.666667 7.97974 1.8 9.34088 3.26667 9.61311C3 9.68117 2.73333 9.74923 2.4 9.74923C2.2 9.74923 2 9.74923 1.8 9.68117C2.2 11.0423 3.4 11.9951 4.86667 11.9951C3.73333 12.8799 2.33333 13.4243 0.8 13.4243C0.533333 13.4243 0.266667 13.4243 0 13.3563C1.46667 14.3091 3.2 14.8535 5 14.8535C11.0667 14.8535 14.3333 9.74923 14.3333 5.32549C14.3333 5.18938 14.3333 5.05326 14.3333 4.91715C15 4.44075 15.5333 3.82823 16 3.21571Z" fill="white"/>
<mask id="mask0_683_1996" style="mask-type:alpha" maskUnits="userSpaceOnUse" x="0" y="1" width="16" height="14">
<path d="M16 3.21571C15.4 3.48794 14.8 3.69211 14.1333 3.76017C14.8 3.35183 15.3333 2.67125 15.6 1.92262C14.9333 2.33097 14.2667 2.6032 13.5333 2.73931C12.9333 2.05874 12.0667 1.65039 11.1333 1.65039C9.33333 1.65039 7.86667 3.14765 7.86667 4.98521C7.86667 5.25744 7.86667 5.52967 7.93333 5.73384C5.13333 5.59772 2.73333 4.23657 1.13333 2.19485C0.8 2.73931 0.666667 3.28377 0.666667 3.89629C0.666667 5.05326 1.26667 6.07413 2.13333 6.68664C1.6 6.68664 1.06667 6.55053 0.666667 6.2783C0.666667 6.2783 0.666667 6.2783 0.666667 6.34636C0.666667 7.97974 1.8 9.34088 3.26667 9.61311C3 9.68117 2.73333 9.74923 2.4 9.74923C2.2 9.74923 2 9.74923 1.8 9.68117C2.2 11.0423 3.4 11.9951 4.86667 11.9951C3.73333 12.8799 2.33333 13.4243 0.8 13.4243C0.533333 13.4243 0.266667 13.4243 0 13.3563C1.46667 14.3091 3.2 14.8535 5 14.8535C11.0667 14.8535 14.3333 9.74923 14.3333 5.32549C14.3333 5.18938 14.3333 5.05326 14.3333 4.91715C15 4.44075 15.5333 3.82823 16 3.21571Z" fill="white"/>
</mask>
<g mask="url(#mask0_683_1996)">
</g>
</svg>
