<svg width="16" height="17" viewBox="0 0 16 17" fill="none" xmlns="http://www.w3.org/2000/svg">
<path fill-rule="evenodd" clip-rule="evenodd" d="M15.2 3.30078C15.7333 3.78215 15.8667 4.95118 15.8667 4.95118C15.8667 4.95118 16 6.25774 16 7.5643V8.80209C16 10.1774 15.8667 11.484 15.8667 11.484C15.8667 11.484 15.6667 12.653 15.2 13.1344C14.6953 13.655 14.1433 13.7377 13.7824 13.7917C13.7142 13.8019 13.6529 13.8111 13.6 13.822C11.3333 14.0283 8 14.0283 8 14.0283C8 14.0283 3.8 14.0283 2.53333 13.8908C2.46939 13.8776 2.38827 13.8695 2.29469 13.8601C1.90043 13.8206 1.2849 13.7589 0.8 13.2031C0.266667 12.7218 0.133333 11.5528 0.133333 11.5528C0.133333 11.5528 0 10.1774 0 8.87086V7.63307C0 6.25774 0.133333 4.95118 0.133333 4.95118C0.133333 4.95118 0.333333 3.78215 0.8 3.30078C1.30474 2.78015 1.85666 2.69749 2.21763 2.64342C2.28575 2.63322 2.34708 2.62404 2.4 2.61312C4.66667 2.47559 8 2.47559 8 2.47559C8 2.47559 11.3333 2.47559 13.6 2.61312C13.9333 2.61312 14.6 2.61312 15.2 3.30078ZM6.33333 5.77637V10.3837L10.6667 8.11443L6.33333 5.77637Z" fill="white"/>
<mask id="mask0_683_2004" style="mask-type:alpha" maskUnits="userSpaceOnUse" x="0" y="2" width="16" height="13">
<path fill-rule="evenodd" clip-rule="evenodd" d="M15.2 3.30078C15.7333 3.78215 15.8667 4.95118 15.8667 4.95118C15.8667 4.95118 16 6.25774 16 7.5643V8.80209C16 10.1774 15.8667 11.484 15.8667 11.484C15.8667 11.484 15.6667 12.653 15.2 13.1344C14.6953 13.655 14.1433 13.7377 13.7824 13.7917C13.7142 13.8019 13.6529 13.8111 13.6 13.822C11.3333 14.0283 8 14.0283 8 14.0283C8 14.0283 3.8 14.0283 2.53333 13.8908C2.46939 13.8776 2.38827 13.8695 2.29469 13.8601C1.90043 13.8206 1.2849 13.7589 0.8 13.2031C0.266667 12.7218 0.133333 11.5528 0.133333 11.5528C0.133333 11.5528 0 10.1774 0 8.87086V7.63307C0 6.25774 0.133333 4.95118 0.133333 4.95118C0.133333 4.95118 0.333333 3.78215 0.8 3.30078C1.30474 2.78015 1.85666 2.69749 2.21763 2.64342C2.28575 2.63322 2.34708 2.62404 2.4 2.61312C4.66667 2.47559 8 2.47559 8 2.47559C8 2.47559 11.3333 2.47559 13.6 2.61312C13.9333 2.61312 14.6 2.61312 15.2 3.30078ZM6.33333 5.77637V10.3837L10.6667 8.11443L6.33333 5.77637Z" fill="white"/>
</mask>
<g mask="url(#mask0_683_2004)">
</g>
</svg>
