<svg width="20" height="20" viewBox="0 0 20 20" fill="none" xmlns="http://www.w3.org/2000/svg">
<path d="M12.7447 18.3334V12.3123H14.9888L15.3248 9.70682H12.7447V8.04335C12.7447 7.28899 12.9542 6.77492 14.0359 6.77492L15.4156 6.77431V4.44391C15.177 4.41215 14.358 4.34121 13.4052 4.34121C11.4159 4.34121 10.054 5.55545 10.054 7.78531V9.70682H7.80421V12.3123H10.054V18.3334H3.66602C2.56145 18.3334 1.66602 17.438 1.66602 16.3334L1.66602 3.66675C1.66602 2.56218 2.56145 1.66675 3.66602 1.66675L16.3327 1.66675C17.4373 1.66675 18.3327 2.56218 18.3327 3.66675V16.3334C18.3327 17.438 17.4373 18.3334 16.3327 18.3334H12.7447Z" fill="#45423E"/>
</svg>
