<svg width="16" height="16" viewBox="0 0 16 16" fill="none" xmlns="http://www.w3.org/2000/svg">
<path fill-rule="evenodd" clip-rule="evenodd" d="M16 8.00011C16 8.16468 15.9711 8.3255 15.9163 8.48211C15.6497 12.3918 12.5405 15.5312 8.64403 15.8458C8.43573 15.9459 8.22079 16 8.00011 16C7.77435 16 7.55544 15.9468 7.34536 15.8451C3.45377 15.5255 0.350347 12.3883 0.0837211 8.48211C0.0291588 8.3255 0 8.16468 0 8.00011C0 7.84835 0.0260662 7.69991 0.0726761 7.555C0.272811 3.35525 3.75176 0 8.00011 0C12.2485 0 15.7274 3.35525 15.9273 7.555C15.9739 7.69991 16 7.84835 16 8.00011ZM0.730665 7.72418C0.72816 7.79498 0.725656 7.86575 0.725656 7.93715C0.725656 8.06793 0.729632 8.19782 0.73648 8.32682C1.08241 9.1119 2.63799 9.89808 4.93402 10.2824C4.85472 9.56408 4.81164 8.79977 4.81164 7.99989C4.81164 7.20001 4.85472 6.43548 4.93402 5.71711C2.62694 6.10346 1.06805 6.89539 0.732062 7.68422L0.730665 7.72418ZM5.47434 8.00011C5.47434 7.15075 5.52625 6.35308 5.61793 5.61793C6.35308 5.52625 7.15075 5.47434 8.00011 5.47434C8.84947 5.47434 9.64714 5.52625 10.3823 5.61793C10.474 6.35308 10.5259 7.15097 10.5259 8.00011C10.5259 8.35863 10.5164 8.71892 10.4978 9.07103C10.4881 9.25372 10.6286 9.40967 10.8113 9.41939C10.9975 9.42779 11.1501 9.2884 11.1596 9.10594C11.1789 8.74233 11.1886 8.37012 11.1886 8.00011C11.1886 7.20023 11.1455 6.43592 11.0662 5.71733C13.3733 6.10368 14.9322 6.89539 15.2682 7.68444L15.2696 7.72435V7.72437V7.72439V7.72441V7.72442V7.72444C15.2721 7.79523 15.2746 7.86599 15.2746 7.93737C15.2746 8.06815 15.2708 8.19804 15.264 8.32726C14.7802 9.42514 11.9326 10.5259 8.00033 10.5259C7.15119 10.5259 6.3533 10.474 5.61815 10.3823C5.52647 9.64692 5.47434 8.84925 5.47434 8.00011ZM10.2827 4.93402C9.84462 2.3179 8.88526 0.6627 8.00011 0.6627C7.11496 0.6627 6.1556 2.3179 5.71755 4.93402C6.43592 4.85472 7.20023 4.81164 8.00011 4.81164C8.79999 4.81164 9.5643 4.85472 10.2827 4.93402ZM15.1332 6.51102C14.2673 5.82601 12.8031 5.29917 10.9759 5.02415C10.6944 3.15401 10.1492 1.66404 9.4406 0.806506C12.303 1.38394 14.5615 3.64662 15.1332 6.51102ZM5.02415 5.02415C5.30579 3.15401 5.85075 1.66382 6.5594 0.806506C3.6972 1.38394 1.43872 3.64662 0.866811 6.51102C1.73274 5.82601 3.19686 5.29917 5.02415 5.02415ZM0.900167 9.51548C1.77007 10.1877 3.2205 10.7041 5.02415 10.9756C5.28945 12.7391 5.78912 14.1652 6.43945 15.0411C3.68527 14.4365 1.51162 12.2675 0.900167 9.51548ZM10.6226 12.6264C10.3405 13.6554 9.97319 14.4712 9.54862 15.0439C12.3088 14.4429 14.4877 12.2714 15.0996 9.51526C13.7897 10.5272 11.1656 11.1881 7.99967 11.1881C7.19979 11.1881 6.43548 11.1451 5.71711 11.0658C6.08027 13.235 6.80195 14.7437 7.54285 15.1955C7.69416 15.205 7.84636 15.2114 7.99989 15.2114C8.15408 15.2114 8.30672 15.205 8.45848 15.1955C9.03944 14.8465 9.597 13.8619 9.98357 12.4512C10.0319 12.275 10.2137 12.17 10.3907 12.2193C10.5672 12.2677 10.6712 12.4499 10.6226 12.6264Z" fill="#231F20"/>
</svg>
