<svg width="20" height="20" viewBox="0 0 20 20" fill="none" xmlns="http://www.w3.org/2000/svg">
<path d="M18.3327 4.93672C17.7195 5.20895 17.0605 5.39228 16.3688 5.47492C17.075 5.052 17.6174 4.38186 17.8723 3.58325C17.2119 3.97492 16.4799 4.25964 15.7007 4.41311C15.0778 3.74853 14.1882 3.33325 13.2049 3.33325C10.9973 3.33325 9.37504 5.39297 9.87366 7.53117C7.03268 7.38881 4.51324 6.0277 2.82643 3.95895C1.9306 5.49575 2.36185 7.50617 3.88407 8.52422C3.32435 8.50617 2.79657 8.3527 2.33615 8.09645C2.29865 9.68047 3.43407 11.1624 5.07852 11.4923C4.59727 11.6228 4.07018 11.6534 3.53407 11.5506C3.96879 12.9089 5.23129 13.8971 6.72852 13.9249C5.29102 15.052 3.4799 15.5555 1.66602 15.3416C3.17921 16.3117 4.97713 16.8777 6.90768 16.8777C13.2563 16.8777 16.8431 11.5159 16.6264 6.70686C17.2945 6.22422 17.8743 5.62214 18.3327 4.93672Z" fill="#45423E"/>
</svg>
