<svg width="11" height="15" viewBox="0 0 11 15" fill="none" xmlns="http://www.w3.org/2000/svg">
<path fill-rule="evenodd" clip-rule="evenodd" d="M5.72728 9.27273C7.03216 9.27143 8.08962 8.21397 8.09092 6.90909V3.36364C8.09092 2.05822 7.0327 1 5.72728 1C4.42187 1 3.36365 2.05822 3.36365 3.36364V6.90909C3.36495 8.21397 4.42241 9.27143 5.72728 9.27273ZM10.4545 6.90909C10.4545 6.74593 10.3223 6.61364 10.1591 6.61364C9.99593 6.61364 9.86364 6.74593 9.86364 6.90909C9.86364 9.19353 8.01171 11.0455 5.72727 11.0455C3.44284 11.0455 1.59091 9.19353 1.59091 6.90909C1.59091 6.74593 1.45862 6.61364 1.29545 6.61364C1.13229 6.61364 1 6.74593 1 6.90909C1.00289 9.41891 2.96067 11.4653 5.43182 11.6211V13.4091H3.65909C3.49593 13.4091 3.36364 13.5414 3.36364 13.7045C3.36364 13.8677 3.49593 14 3.65909 14H5.72727H5.72763H7.79545C7.95862 14 8.09091 13.8677 8.09091 13.7045C8.09091 13.5414 7.95862 13.4091 7.79545 13.4091H6.02273V11.6211C8.49388 11.4653 10.4517 9.41891 10.4545 6.90909ZM5.72729 1.59091C4.74867 1.59199 3.95564 2.38502 3.95456 3.36364V6.90909C3.95456 7.88815 4.74823 8.68182 5.72729 8.68182C6.70634 8.68182 7.50001 7.88815 7.50001 6.90909V3.36364C7.49893 2.38502 6.70591 1.59199 5.72729 1.59091Z" fill="#231F20"/>
<path d="M8.09092 6.90909L8.19092 6.90919V6.90909H8.09092ZM5.72728 9.27273L5.72718 9.37273H5.72738L5.72728 9.27273ZM3.36365 6.90909H3.26365L3.26365 6.90919L3.36365 6.90909ZM10.4545 6.90909L10.5545 6.90921V6.90909H10.4545ZM1 6.90909H0.9L0.9 6.90921L1 6.90909ZM5.43182 11.6211H5.53182V11.5272L5.43811 11.5213L5.43182 11.6211ZM5.43182 13.4091V13.5091H5.53182V13.4091H5.43182ZM6.02273 13.4091H5.92273V13.5091H6.02273V13.4091ZM6.02273 11.6211L6.01643 11.5213L5.92273 11.5272V11.6211H6.02273ZM3.95456 3.36364L3.85456 3.36353V3.36364H3.95456ZM5.72729 1.59091L5.7274 1.49091L5.72718 1.49091L5.72729 1.59091ZM7.50001 3.36364H7.60001V3.36353L7.50001 3.36364ZM7.99092 6.90899C7.98968 8.15872 6.97691 9.17148 5.72718 9.17273L5.72738 9.37273C7.08741 9.37137 8.18957 8.26922 8.19092 6.90919L7.99092 6.90899ZM7.99092 3.36364V6.90909H8.19092V3.36364H7.99092ZM5.72728 1.1C6.97747 1.1 7.99092 2.11345 7.99092 3.36364H8.19092C8.19092 2.00299 7.08793 0.9 5.72728 0.9V1.1ZM3.46365 3.36364C3.46365 2.11345 4.47709 1.1 5.72728 1.1V0.9C4.36664 0.9 3.26365 2.00299 3.26365 3.36364H3.46365ZM3.46365 6.90909V3.36364H3.26365V6.90909H3.46365ZM5.72738 9.17273C4.47766 9.17148 3.46489 8.15872 3.46365 6.90899L3.26365 6.90919C3.265 8.26922 4.36716 9.37137 5.72718 9.37273L5.72738 9.17273ZM10.1591 6.71364C10.267 6.71364 10.3545 6.80116 10.3545 6.90909H10.5545C10.5545 6.6907 10.3775 6.51364 10.1591 6.51364V6.71364ZM9.96364 6.90909C9.96364 6.80116 10.0512 6.71364 10.1591 6.71364V6.51364C9.9407 6.51364 9.76364 6.6907 9.76364 6.90909H9.96364ZM5.72727 11.1455C8.06694 11.1455 9.96364 9.24876 9.96364 6.90909H9.76364C9.76364 9.1383 7.95648 10.9455 5.72727 10.9455V11.1455ZM1.49091 6.90909C1.49091 9.24876 3.38761 11.1455 5.72727 11.1455V10.9455C3.49807 10.9455 1.69091 9.1383 1.69091 6.90909H1.49091ZM1.29545 6.71364C1.40339 6.71364 1.49091 6.80116 1.49091 6.90909H1.69091C1.69091 6.6907 1.51385 6.51364 1.29545 6.51364V6.71364ZM1.1 6.90909C1.1 6.80116 1.18752 6.71364 1.29545 6.71364V6.51364C1.07706 6.51364 0.9 6.6907 0.9 6.90909H1.1ZM5.43811 11.5213C3.01907 11.3688 1.10282 9.36553 1.1 6.90898L0.9 6.90921C0.902947 9.47229 2.90226 11.5618 5.42552 11.7209L5.43811 11.5213ZM5.53182 13.4091V11.6211H5.33182V13.4091H5.53182ZM3.65909 13.5091H5.43182V13.3091H3.65909V13.5091ZM3.46364 13.7045C3.46364 13.5966 3.55116 13.5091 3.65909 13.5091V13.3091C3.4407 13.3091 3.26364 13.4862 3.26364 13.7045H3.46364ZM3.65909 13.9C3.55116 13.9 3.46364 13.8125 3.46364 13.7045H3.26364C3.26364 13.9229 3.4407 14.1 3.65909 14.1V13.9ZM5.72727 13.9H3.65909V14.1H5.72727V13.9ZM5.72763 13.9H5.72727V14.1H5.72763V13.9ZM7.79545 13.9H5.72763V14.1H7.79545V13.9ZM7.99091 13.7045C7.99091 13.8125 7.90339 13.9 7.79545 13.9V14.1C8.01385 14.1 8.19091 13.9229 8.19091 13.7045H7.99091ZM7.79545 13.5091C7.90339 13.5091 7.99091 13.5966 7.99091 13.7045H8.19091C8.19091 13.4862 8.01385 13.3091 7.79545 13.3091V13.5091ZM6.02273 13.5091H7.79545V13.3091H6.02273V13.5091ZM5.92273 11.6211V13.4091H6.12273V11.6211H5.92273ZM10.3545 6.90898C10.3517 9.36553 8.43547 11.3688 6.01643 11.5213L6.02902 11.7209C8.55228 11.5618 10.5516 9.47229 10.5545 6.90921L10.3545 6.90898ZM4.05456 3.36375C4.05558 2.44027 4.80392 1.69193 5.7274 1.69091L5.72718 1.49091C4.69341 1.49205 3.8557 2.32977 3.85456 3.36353L4.05456 3.36375ZM4.05456 6.90909V3.36364H3.85456V6.90909H4.05456ZM5.72729 8.58182C4.80346 8.58182 4.05456 7.83292 4.05456 6.90909H3.85456C3.85456 7.94338 4.693 8.78182 5.72729 8.78182V8.58182ZM7.40001 6.90909C7.40001 7.83292 6.65111 8.58182 5.72729 8.58182V8.78182C6.76157 8.78182 7.60001 7.94338 7.60001 6.90909H7.40001ZM7.40001 3.36364V6.90909H7.60001V3.36364H7.40001ZM5.72718 1.69091C6.65066 1.69193 7.39899 2.44027 7.40001 3.36375L7.60001 3.36353C7.59887 2.32977 6.76116 1.49205 5.7274 1.49091L5.72718 1.69091Z" fill="#231F20"/>
</svg>
