<svg width="20" height="20" viewBox="0 0 20 20" fill="none" xmlns="http://www.w3.org/2000/svg">
<path fill-rule="evenodd" clip-rule="evenodd" d="M16.5209 4.52707C15.2135 4.16675 9.99417 4.16675 9.99417 4.16675C9.99417 4.16675 4.78516 4.16675 3.47777 4.50647C2.77775 4.70207 2.20133 5.27849 2.00574 5.9888C1.66602 7.2962 1.66602 10.0037 1.66602 10.0037C1.66602 10.0037 1.66602 12.7215 2.00574 14.0083C2.20133 14.7186 2.76745 15.2847 3.47777 15.4803C4.79546 15.8303 9.99417 15.8303 9.99417 15.8303C9.99417 15.8303 15.2135 15.8303 16.5209 15.4906C17.2312 15.295 17.7973 14.7392 17.9826 14.0186C18.3327 12.7215 18.3327 10.014 18.3327 10.014C18.3327 10.014 18.3429 7.2962 17.9826 5.9888C17.7973 5.27849 17.2312 4.71237 16.5209 4.52707ZM8.33675 12.4949V7.50219L12.6708 10.0037L8.33675 12.4949Z" fill="#45423E"/>
</svg>
